0
SECTION
2
HEADER
9
$INSUNITS
70
4
9
$ACADVER
1
AC1014
9
$HANDSEED
5
FFFF
0
ENDSEC
0
SECTION
2
TABLES
0
TABLE
2
VPORT
5
8
100
AcDbSymbolTable
0
ENDTAB
0
TABLE
2
LTYPE
5
5
100
AcDbSymbolTable
0
LTYPE
5
14
100
AcDbSymbolTableRecord
100
AcDbLinetypeTableRecord
2
BYBLOCK
70
0
0
LTYPE
5
15
100
AcDbSymbolTableRecord
100
AcDbLinetypeTableRecord
2
BYLAYER
70
0
0
ENDTAB
0
TABLE
2
LAYER
5
2
100
AcDbSymbolTable
70
2
0
LAYER
5
50
100
AcDbSymbolTableRecord
100
AcDbLayerTableRecord
2
0
70
0
6
CONTINUOUS
0
ENDTAB
0
TABLE
2
STYLE
5
3
100
AcDbSymbolTable
70
1
0
STYLE
5
11
100
AcDbSymbolTableRecord
100
AcDbTextStyleTableRecord
2
STANDARD
70
0
0
ENDTAB
0
TABLE
2
VIEW
5
6
100
AcDbSymbolTable
70
0
0
ENDTAB
0
TABLE
2
UCS
5
7
100
AcDbSymbolTable
70
0
0
ENDTAB
0
TABLE
2
APPID
5
9
100
AcDbSymbolTable
70
2
0
APPID
5
12
100
AcDbSymbolTableRecord
100
AcDbRegAppTableRecord
2
ACAD
70
0
0
ENDTAB
0
TABLE
2
DIMSTYLE
5
A
100
AcDbSymbolTable
70
1
0
ENDTAB
0
TABLE
2
BLOCK_RECORD
5
1
100
AcDbSymbolTable
70
1
0
BLOCK_RECORD
5
1F
100
AcDbSymbolTableRecord
100
AcDbBlockTableRecord
2
*MODEL_SPACE
0
BLOCK_RECORD
5
1B
100
AcDbSymbolTableRecord
100
AcDbBlockTableRecord
2
*PAPER_SPACE
0
ENDTAB
0
ENDSEC
0
SECTION
2
BLOCKS
0
BLOCK
5
20
100
AcDbEntity
100
AcDbBlockBegin
2
*MODEL_SPACE
0
ENDBLK
5
21
100
AcDbEntity
100
AcDbBlockEnd
0
BLOCK
5
1C
100
AcDbEntity
100
AcDbBlockBegin
2
*PAPER_SPACE
0
ENDBLK
5
1D
100
AcDbEntity
100
AcDbBlockEnd
0
ENDSEC
0
SECTION
2
ENTITIES
0
LWPOLYLINE
5
100
100
AcDbEntity
8
0
100
AcDbPolyline
90
4
70
1
43
0.0
10
10.160000000000002
20
64.25
10
-10.160000000000002
20
64.25
10
-10.160000000000002
20
-64.25
10
10.160000000000002
20
-64.25
0
LWPOLYLINE
5
101
100
AcDbEntity
8
0
100
AcDbPolyline
90
4
70
1
43
0.0
10
9.9099999999999984
20
64.25
10
-9.9099999999999984
20
64.25
10
-9.9099999999999984
20
-64.25
10
9.9099999999999984
20
-64.25
0
LINE
5
102
100
AcDbEntity
8
0
100
AcDbLine
10
-2.2204460492503127e-15
20
64.25
30
0
11
2.2204460492503131e-15
21
-64.25
31
0
0
LWPOLYLINE
5
103
100
AcDbEntity
8
0
100
AcDbPolyline
90
4
70
1
43
0.0
10
9.6600000000000019
20
53.249999999999993
10
-9.6600000000000019
20
53.249999999999993
10
-9.6600000000000019
20
-53.250000000000014
10
9.6600000000000019
20
-53.250000000000014
0
CIRCLE
5
104
100
AcDbEntity
8
0
100
AcDbCircle
10
-2.6600000000000024
20
61.250000000000007
30
0
40
1.5000000000000009
210
0
220
0
230
1
0
LINE
5
105
100
AcDbEntity
8
0
100
AcDbLine
10
9.9099999999999984
20
3.3517351741158845e-15
30
0
11
-9.6600000000000019
21
-1.2191768808410164e-14
31
0
0
CIRCLE
5
106
100
AcDbEntity
8
0
100
AcDbCircle
10
-2.6600000000000024
20
-61.250000000000007
30
0
40
1.5000000000000013
210
0
220
0
230
1
0
LINE
5
107
100
AcDbEntity
8
0
100
AcDbLine
10
-4.1599999999999993
20
-61.250000000000007
30
0
11
-1.160000000000001
21
-61.250000000000007
31
0
0
CIRCLE
5
108
100
AcDbEntity
8
0
100
AcDbCircle
10
-4.1599999999999993
20
-61.250000000000007
30
0
40
1.4999999999999989
210
0
220
0
230
1
0
CIRCLE
5
109
100
AcDbEntity
8
0
100
AcDbCircle
10
-1.160000000000001
20
-61.250000000000007
30
0
40
1.4999999999999978
210
0
220
0
230
1
0
LINE
5
110
100
AcDbEntity
8
0
100
AcDbLine
10
-4.1600000000000081
20
-59.750000000000014
30
0
11
-1.160000000000001
21
-59.750000000000014
31
0
0
LINE
5
111
100
AcDbEntity
8
0
100
AcDbLine
10
-4.1600000000000126
20
62.75
30
0
11
-1.1600000000000055
21
62.75
31
0
0
LINE
5
112
100
AcDbEntity
8
0
100
AcDbLine
10
-1.1599999999983757
20
-62.74999999999676
30
0
11
-4.1599999999984005
21
-62.75
31
0
0
CIRCLE
5
113
100
AcDbEntity
8
0
100
AcDbCircle
10
-4.1600000000000037
20
61.250000000000007
30
0
40
1.4999999999999989
210
0
220
0
230
1
0
LINE
5
114
100
AcDbEntity
8
0
100
AcDbLine
10
-4.1600000000000037
20
61.250000000000007
30
0
11
-1.1600000000000055
21
61.250000000000007
31
0
0
CIRCLE
5
115
100
AcDbEntity
8
0
100
AcDbCircle
10
-1.1600000000000055
20
61.250000000000007
30
0
40
1.4999999999999978
210
0
220
0
230
1
0
LINE
5
116
100
AcDbEntity
8
0
100
AcDbLine
10
-1.1599999999983801
20
59.750000000003254
30
0
11
-4.159999999998405
21
59.750000000000014
31
0
0
CIRCLE
5
117
100
AcDbEntity
8
0
100
AcDbCircle
10
1.0014432246007224e-13
20
20.75
30
0
40
3.5499999999999998
210
0
220
0
230
1
0
CIRCLE
5
118
100
AcDbEntity
8
0
100
AcDbCircle
10
2.4401907943099216e-14
20
5.2499999999999991
30
0
40
3.5499999999999998
210
0
220
0
230
1
0
CIRCLE
5
119
100
AcDbEntity
8
0
100
AcDbCircle
10
1.7588673697704528e-13
20
36.250000000000007
30
0
40
3.5499999999999998
210
0
220
0
230
1
0
CIRCLE
5
120
100
AcDbEntity
8
0
100
AcDbCircle
10
-5.1340506573873806e-14
20
-10.25
30
0
40
3.5499999999999998
210
0
220
0
230
1
0
CIRCLE
5
121
100
AcDbEntity
8
0
100
AcDbCircle
10
1.6674945039117139e-15
20
-48.250000000000014
30
0
40
3.0499999999999998
210
0
220
0
230
1
0
CIRCLE
5
122
100
AcDbEntity
8
0
100
AcDbCircle
10
-0.0020824061619479318
20
-36.250000180683983
30
0
40
3.0499999999999989
210
0
220
0
230
1
0
CIRCLE
5
123
100
AcDbEntity
8
0
100
AcDbCircle
10
0.022308315035140587
20
-24.250024968512946
30
0
40
3.049999999999998
210
0
220
0
230
1
0
CIRCLE
5
124
100
AcDbEntity
8
0
100
AcDbCircle
10
-1.7020539754953758e-15
20
49.250000000000007
30
0
40
2.8000000000000003
210
0
220
0
230
1
0
ENDSEC
0
SECTION
2
OBJECTS
0
DICTIONARY
5
C
100
AcDbDictionary
3
ACAD_GROUP
350
D
3
ACAD_MLINESTYLE
350
17
0
DICTIONARY
5
D
100
AcDbDictionary
0
DICTIONARY
5
1A
330
C
100
AcDbDictionary
0
DICTIONARY
5
17
100
AcDbDictionary
0
ENDSEC
0
EOF
