M48
; DRILL file {KiCad (5.1.5)-3} date 7/12/2020 1:51:51 PM
; FORMAT={-:-/ absolute / inch / decimal}
; #@! TF.CreationDate,2020-07-12T13:51:51+08:00
; #@! TF.GenerationSoftware,Kicad,Pcbnew,(5.1.5)-3
; #@! TF.FileFunction,Plated,1,2,PTH
FMAT,2
INCH
T1C0.0157
T2C0.0197
T3C0.0236
T4C0.0300
T5C0.0394
T6C0.0433
%
G90
G05
T1
X4.658Y-3.44
X4.66Y-1.942
X4.66Y-2.364
X4.66Y-2.402
X4.66Y-3.486
X4.66Y-3.94
X4.66Y-4.532
X4.662Y-4.494
X4.704Y-5.69
X4.724Y-4.294
X4.738Y-3.094
X4.746Y-2.614
X4.752Y-4.84
X4.772Y-3.642
X4.78Y-3.174
X4.784Y-3.888
X4.784Y-3.944
X4.836Y-2.23
X4.836Y-3.64
X4.848Y-2.958
X4.872Y-2.802
X4.886Y-4.69
X4.974Y-3.814
X5.0Y-5.11
X5.0Y-5.312
X5.028Y-4.71
X5.068Y-2.882
X5.068Y-4.628
X5.074Y-3.178
X5.12Y-3.614
X5.136Y-2.386
X5.1374Y-3.1601
X5.144Y-2.944
X5.156Y-3.614
X5.192Y-5.112
X5.2Y-2.078
X5.23Y-4.094
X5.242Y-3.574
X5.268Y-2.786
T2
X4.66Y-5.03
X4.66Y-5.1011
X5.34Y-5.03
X5.34Y-5.1
T4
X4.9975Y-1.9425
X4.9975Y-2.1775
T5
X5.2903Y-4.3066
X5.2903Y-4.4034
X5.2903Y-4.5034
X5.2903Y-2.4766
X5.2903Y-2.5734
X5.2903Y-2.6734
X5.2903Y-3.0841
X5.2903Y-3.1809
X5.2903Y-3.2809
X5.2903Y-3.6966
X5.2903Y-3.7934
X5.2903Y-3.8934
T6
X4.8725Y-1.9725
X4.8725Y-2.1497
X5.1284Y-1.9725
X5.1284Y-2.1497
T2
G00X4.8063Y-5.4491
M15
G01X4.8063Y-5.4058
M16
G05
G00X4.8063Y-4.9767
M15
G01X4.8063Y-4.9333
M16
G05
G00X4.8063Y-5.9217
M15
G01X4.8063Y-5.8783
M16
G05
T3
G00X5.1331Y-5.9197
M15
G01X5.1331Y-5.8803
M16
G05
G00X5.2551Y-5.9157
M15
G01X5.2551Y-5.8843
M16
G05
G00X5.1331Y-5.4472
M15
G01X5.1331Y-5.4078
M16
G05
G00X5.2551Y-5.4432
M15
G01X5.2551Y-5.4117
M16
G05
G00X5.1331Y-4.9747
M15
G01X5.1331Y-4.9353
M16
G05
G00X5.2551Y-4.9707
M15
G01X5.2551Y-4.9393
M16
G05
T6
G00X4.995Y-4.2298
M15
G01X4.995Y-4.2022
M16
G05
G00X4.995Y-2.3998
M15
G01X4.995Y-2.3722
M16
G05
G00X4.995Y-2.7778
M15
G01X4.995Y-2.7502
M16
G05
G00X4.995Y-3.0073
M15
G01X4.995Y-2.9797
M16
G05
G00X4.995Y-3.3853
M15
G01X4.995Y-3.3577
M16
G05
G00X4.995Y-3.6198
M15
G01X4.995Y-3.5922
M16
G05
G00X4.995Y-3.9978
M15
G01X4.995Y-3.9702
M16
G05
G00X4.995Y-4.6078
M15
G01X4.995Y-4.5802
M16
G05
T0
M30
