G04 #@! TF.GenerationSoftware,KiCad,Pcbnew,(5.1.5)-3*
G04 #@! TF.CreationDate,2020-07-12T13:51:54+08:00*
G04 #@! TF.ProjectId,Kick-808,4b69636b-2d38-4303-982e-6b696361645f,rev?*
G04 #@! TF.SameCoordinates,Original*
G04 #@! TF.FileFunction,Legend,Top*
G04 #@! TF.FilePolarity,Positive*
%FSLAX46Y46*%
G04 Gerber Fmt 4.6, Leading zero omitted, Abs format (unit mm)*
G04 Created by KiCad (PCBNEW (5.1.5)-3) date 2020-07-12 13:51:54*
%MOMM*%
%LPD*%
G04 APERTURE LIST*
%ADD10C,0.150000*%
%ADD11C,0.120000*%
G04 APERTURE END LIST*
D10*
X128800000Y-125857000D02*
G75*
G03X128800000Y-125857000I-1800000J0D01*
G01*
X130006659Y-125857000D02*
G75*
G03X130006659Y-125857000I-3006659J0D01*
G01*
X121000000Y-130357000D02*
X131500000Y-130357000D01*
X121000000Y-121357000D02*
X121000000Y-130357000D01*
X131500000Y-121357000D02*
X121000000Y-121357000D01*
X131500000Y-130357000D02*
X131500000Y-121357000D01*
X125200000Y-125857000D02*
X128800000Y-125857000D01*
X127000000Y-124057000D02*
X127000000Y-127657000D01*
D11*
X133613000Y-116868000D02*
X129676000Y-116868000D01*
X125309000Y-116868000D02*
X121373000Y-116868000D01*
X133613000Y-106827000D02*
X129676000Y-106827000D01*
X125309000Y-106827000D02*
X121373000Y-106827000D01*
X133613000Y-116868000D02*
X133613000Y-115218000D01*
X133613000Y-113476000D02*
X133613000Y-112717000D01*
X133613000Y-110976000D02*
X133613000Y-110217000D01*
X133613000Y-108477000D02*
X133613000Y-106827000D01*
X121373000Y-116868000D02*
X121373000Y-106827000D01*
X130511000Y-53101500D02*
X130511000Y-51601500D01*
X129261000Y-49101500D02*
X124761000Y-49101500D01*
X123511000Y-51601500D02*
X123511000Y-53101500D01*
X124761000Y-55601500D02*
X129261000Y-55601500D01*
D10*
X128800000Y-149860000D02*
G75*
G03X128800000Y-149860000I-1800000J0D01*
G01*
X130006659Y-149860000D02*
G75*
G03X130006659Y-149860000I-3006659J0D01*
G01*
X121000000Y-154360000D02*
X131500000Y-154360000D01*
X121000000Y-145360000D02*
X121000000Y-154360000D01*
X131500000Y-145360000D02*
X121000000Y-145360000D01*
X131500000Y-154360000D02*
X131500000Y-145360000D01*
X125200000Y-149860000D02*
X128800000Y-149860000D01*
X127000000Y-148060000D02*
X127000000Y-151660000D01*
D11*
X133613000Y-101374000D02*
X129676000Y-101374000D01*
X125309000Y-101374000D02*
X121373000Y-101374000D01*
X133613000Y-91333000D02*
X129676000Y-91333000D01*
X125309000Y-91333000D02*
X121373000Y-91333000D01*
X133613000Y-101374000D02*
X133613000Y-99724000D01*
X133613000Y-97982000D02*
X133613000Y-97223000D01*
X133613000Y-95482000D02*
X133613000Y-94723000D01*
X133613000Y-92983000D02*
X133613000Y-91333000D01*
X121373000Y-101374000D02*
X121373000Y-91333000D01*
X133613000Y-85816500D02*
X129676000Y-85816500D01*
X125309000Y-85816500D02*
X121373000Y-85816500D01*
X133613000Y-75775500D02*
X129676000Y-75775500D01*
X125309000Y-75775500D02*
X121373000Y-75775500D01*
X133613000Y-85816500D02*
X133613000Y-84166500D01*
X133613000Y-82424500D02*
X133613000Y-81665500D01*
X133613000Y-79924500D02*
X133613000Y-79165500D01*
X133613000Y-77425500D02*
X133613000Y-75775500D01*
X121373000Y-85816500D02*
X121373000Y-75775500D01*
X133613000Y-70386000D02*
X129676000Y-70386000D01*
X125309000Y-70386000D02*
X121373000Y-70386000D01*
X133613000Y-60345000D02*
X129676000Y-60345000D01*
X125309000Y-60345000D02*
X121373000Y-60345000D01*
X133613000Y-70386000D02*
X133613000Y-68736000D01*
X133613000Y-66994000D02*
X133613000Y-66235000D01*
X133613000Y-64494000D02*
X133613000Y-63735000D01*
X133613000Y-61995000D02*
X133613000Y-60345000D01*
X121373000Y-70386000D02*
X121373000Y-60345000D01*
D10*
X128800000Y-137858000D02*
G75*
G03X128800000Y-137858000I-1800000J0D01*
G01*
X130006659Y-137858000D02*
G75*
G03X130006659Y-137858000I-3006659J0D01*
G01*
X121000000Y-142358000D02*
X131500000Y-142358000D01*
X121000000Y-133358000D02*
X121000000Y-142358000D01*
X131500000Y-133358000D02*
X121000000Y-133358000D01*
X131500000Y-142358000D02*
X131500000Y-133358000D01*
X125200000Y-137858000D02*
X128800000Y-137858000D01*
X127000000Y-136058000D02*
X127000000Y-139658000D01*
X119552380Y-128809380D02*
X119552380Y-128237952D01*
X120552380Y-128523666D02*
X119552380Y-128523666D01*
X120552380Y-127904619D02*
X119885714Y-127904619D01*
X120076190Y-127904619D02*
X119980952Y-127857000D01*
X119933333Y-127809380D01*
X119885714Y-127714142D01*
X119885714Y-127618904D01*
X120552380Y-127285571D02*
X119885714Y-127285571D01*
X119552380Y-127285571D02*
X119600000Y-127333190D01*
X119647619Y-127285571D01*
X119600000Y-127237952D01*
X119552380Y-127285571D01*
X119647619Y-127285571D01*
X119885714Y-126380809D02*
X120695238Y-126380809D01*
X120790476Y-126428428D01*
X120838095Y-126476047D01*
X120885714Y-126571285D01*
X120885714Y-126714142D01*
X120838095Y-126809380D01*
X120504761Y-126380809D02*
X120552380Y-126476047D01*
X120552380Y-126666523D01*
X120504761Y-126761761D01*
X120457142Y-126809380D01*
X120361904Y-126857000D01*
X120076190Y-126857000D01*
X119980952Y-126809380D01*
X119933333Y-126761761D01*
X119885714Y-126666523D01*
X119885714Y-126476047D01*
X119933333Y-126380809D01*
X119885714Y-125476047D02*
X120695238Y-125476047D01*
X120790476Y-125523666D01*
X120838095Y-125571285D01*
X120885714Y-125666523D01*
X120885714Y-125809380D01*
X120838095Y-125904619D01*
X120504761Y-125476047D02*
X120552380Y-125571285D01*
X120552380Y-125761761D01*
X120504761Y-125857000D01*
X120457142Y-125904619D01*
X120361904Y-125952238D01*
X120076190Y-125952238D01*
X119980952Y-125904619D01*
X119933333Y-125857000D01*
X119885714Y-125761761D01*
X119885714Y-125571285D01*
X119933333Y-125476047D01*
X120504761Y-124618904D02*
X120552380Y-124714142D01*
X120552380Y-124904619D01*
X120504761Y-124999857D01*
X120409523Y-125047476D01*
X120028571Y-125047476D01*
X119933333Y-124999857D01*
X119885714Y-124904619D01*
X119885714Y-124714142D01*
X119933333Y-124618904D01*
X120028571Y-124571285D01*
X120123809Y-124571285D01*
X120219047Y-125047476D01*
X120552380Y-124142714D02*
X119885714Y-124142714D01*
X120076190Y-124142714D02*
X119980952Y-124095095D01*
X119933333Y-124047476D01*
X119885714Y-123952238D01*
X119885714Y-123857000D01*
X120552380Y-122999857D02*
X120552380Y-123571285D01*
X120552380Y-123285571D02*
X119552380Y-123285571D01*
X119695238Y-123380809D01*
X119790476Y-123476047D01*
X119838095Y-123571285D01*
X119975380Y-113982238D02*
X119975380Y-113410809D01*
X120975380Y-113696523D02*
X119975380Y-113696523D01*
X120975380Y-112934619D02*
X120927761Y-113029857D01*
X120880142Y-113077476D01*
X120784904Y-113125095D01*
X120499190Y-113125095D01*
X120403952Y-113077476D01*
X120356333Y-113029857D01*
X120308714Y-112934619D01*
X120308714Y-112791761D01*
X120356333Y-112696523D01*
X120403952Y-112648904D01*
X120499190Y-112601285D01*
X120784904Y-112601285D01*
X120880142Y-112648904D01*
X120927761Y-112696523D01*
X120975380Y-112791761D01*
X120975380Y-112934619D01*
X120308714Y-112172714D02*
X120975380Y-112172714D01*
X120403952Y-112172714D02*
X120356333Y-112125095D01*
X120308714Y-112029857D01*
X120308714Y-111887000D01*
X120356333Y-111791761D01*
X120451571Y-111744142D01*
X120975380Y-111744142D01*
X120927761Y-110887000D02*
X120975380Y-110982238D01*
X120975380Y-111172714D01*
X120927761Y-111267952D01*
X120832523Y-111315571D01*
X120451571Y-111315571D01*
X120356333Y-111267952D01*
X120308714Y-111172714D01*
X120308714Y-110982238D01*
X120356333Y-110887000D01*
X120451571Y-110839380D01*
X120546809Y-110839380D01*
X120642047Y-111315571D01*
X120975380Y-109887000D02*
X120975380Y-110458428D01*
X120975380Y-110172714D02*
X119975380Y-110172714D01*
X120118238Y-110267952D01*
X120213476Y-110363190D01*
X120261095Y-110458428D01*
X122197761Y-53530333D02*
X122245380Y-53387476D01*
X122245380Y-53149380D01*
X122197761Y-53054142D01*
X122150142Y-53006523D01*
X122054904Y-52958904D01*
X121959666Y-52958904D01*
X121864428Y-53006523D01*
X121816809Y-53054142D01*
X121769190Y-53149380D01*
X121721571Y-53339857D01*
X121673952Y-53435095D01*
X121626333Y-53482714D01*
X121531095Y-53530333D01*
X121435857Y-53530333D01*
X121340619Y-53482714D01*
X121293000Y-53435095D01*
X121245380Y-53339857D01*
X121245380Y-53101761D01*
X121293000Y-52958904D01*
X121245380Y-52625571D02*
X122245380Y-52387476D01*
X121531095Y-52197000D01*
X122245380Y-52006523D01*
X121245380Y-51768428D01*
X122245380Y-50863666D02*
X122245380Y-51435095D01*
X122245380Y-51149380D02*
X121245380Y-51149380D01*
X121388238Y-51244619D01*
X121483476Y-51339857D01*
X121531095Y-51435095D01*
X119552380Y-152360000D02*
X119552380Y-152169523D01*
X119600000Y-152074285D01*
X119695238Y-151979047D01*
X119885714Y-151931428D01*
X120219047Y-151931428D01*
X120409523Y-151979047D01*
X120504761Y-152074285D01*
X120552380Y-152169523D01*
X120552380Y-152360000D01*
X120504761Y-152455238D01*
X120409523Y-152550476D01*
X120219047Y-152598095D01*
X119885714Y-152598095D01*
X119695238Y-152550476D01*
X119600000Y-152455238D01*
X119552380Y-152360000D01*
X119885714Y-151074285D02*
X120552380Y-151074285D01*
X119885714Y-151502857D02*
X120409523Y-151502857D01*
X120504761Y-151455238D01*
X120552380Y-151360000D01*
X120552380Y-151217142D01*
X120504761Y-151121904D01*
X120457142Y-151074285D01*
X119885714Y-150740952D02*
X119885714Y-150360000D01*
X119552380Y-150598095D02*
X120409523Y-150598095D01*
X120504761Y-150550476D01*
X120552380Y-150455238D01*
X120552380Y-150360000D01*
X119885714Y-150026666D02*
X120885714Y-150026666D01*
X119933333Y-150026666D02*
X119885714Y-149931428D01*
X119885714Y-149740952D01*
X119933333Y-149645714D01*
X119980952Y-149598095D01*
X120076190Y-149550476D01*
X120361904Y-149550476D01*
X120457142Y-149598095D01*
X120504761Y-149645714D01*
X120552380Y-149740952D01*
X120552380Y-149931428D01*
X120504761Y-150026666D01*
X119885714Y-148693333D02*
X120552380Y-148693333D01*
X119885714Y-149121904D02*
X120409523Y-149121904D01*
X120504761Y-149074285D01*
X120552380Y-148979047D01*
X120552380Y-148836190D01*
X120504761Y-148740952D01*
X120457142Y-148693333D01*
X119885714Y-148360000D02*
X119885714Y-147979047D01*
X119552380Y-148217142D02*
X120409523Y-148217142D01*
X120504761Y-148169523D01*
X120552380Y-148074285D01*
X120552380Y-147979047D01*
X120552380Y-147121904D02*
X120552380Y-147693333D01*
X120552380Y-147407619D02*
X119552380Y-147407619D01*
X119695238Y-147502857D01*
X119790476Y-147598095D01*
X119838095Y-147693333D01*
X120975380Y-98107285D02*
X119975380Y-98107285D01*
X120689666Y-97773952D01*
X119975380Y-97440619D01*
X120975380Y-97440619D01*
X120975380Y-96821571D02*
X120927761Y-96916809D01*
X120880142Y-96964428D01*
X120784904Y-97012047D01*
X120499190Y-97012047D01*
X120403952Y-96964428D01*
X120356333Y-96916809D01*
X120308714Y-96821571D01*
X120308714Y-96678714D01*
X120356333Y-96583476D01*
X120403952Y-96535857D01*
X120499190Y-96488238D01*
X120784904Y-96488238D01*
X120880142Y-96535857D01*
X120927761Y-96583476D01*
X120975380Y-96678714D01*
X120975380Y-96821571D01*
X120975380Y-95631095D02*
X119975380Y-95631095D01*
X120927761Y-95631095D02*
X120975380Y-95726333D01*
X120975380Y-95916809D01*
X120927761Y-96012047D01*
X120880142Y-96059666D01*
X120784904Y-96107285D01*
X120499190Y-96107285D01*
X120403952Y-96059666D01*
X120356333Y-96012047D01*
X120308714Y-95916809D01*
X120308714Y-95726333D01*
X120356333Y-95631095D01*
X120070619Y-95202523D02*
X120023000Y-95154904D01*
X119975380Y-95059666D01*
X119975380Y-94821571D01*
X120023000Y-94726333D01*
X120070619Y-94678714D01*
X120165857Y-94631095D01*
X120261095Y-94631095D01*
X120403952Y-94678714D01*
X120975380Y-95250142D01*
X120975380Y-94631095D01*
X120975380Y-82549785D02*
X119975380Y-82549785D01*
X120689666Y-82216452D01*
X119975380Y-81883119D01*
X120975380Y-81883119D01*
X120975380Y-81264071D02*
X120927761Y-81359309D01*
X120880142Y-81406928D01*
X120784904Y-81454547D01*
X120499190Y-81454547D01*
X120403952Y-81406928D01*
X120356333Y-81359309D01*
X120308714Y-81264071D01*
X120308714Y-81121214D01*
X120356333Y-81025976D01*
X120403952Y-80978357D01*
X120499190Y-80930738D01*
X120784904Y-80930738D01*
X120880142Y-80978357D01*
X120927761Y-81025976D01*
X120975380Y-81121214D01*
X120975380Y-81264071D01*
X120975380Y-80073595D02*
X119975380Y-80073595D01*
X120927761Y-80073595D02*
X120975380Y-80168833D01*
X120975380Y-80359309D01*
X120927761Y-80454547D01*
X120880142Y-80502166D01*
X120784904Y-80549785D01*
X120499190Y-80549785D01*
X120403952Y-80502166D01*
X120356333Y-80454547D01*
X120308714Y-80359309D01*
X120308714Y-80168833D01*
X120356333Y-80073595D01*
X120975380Y-79073595D02*
X120975380Y-79645023D01*
X120975380Y-79359309D02*
X119975380Y-79359309D01*
X120118238Y-79454547D01*
X120213476Y-79549785D01*
X120261095Y-79645023D01*
X120848380Y-67833571D02*
X119848380Y-67833571D01*
X119848380Y-67595476D01*
X119896000Y-67452619D01*
X119991238Y-67357380D01*
X120086476Y-67309761D01*
X120276952Y-67262142D01*
X120419809Y-67262142D01*
X120610285Y-67309761D01*
X120705523Y-67357380D01*
X120800761Y-67452619D01*
X120848380Y-67595476D01*
X120848380Y-67833571D01*
X120800761Y-66452619D02*
X120848380Y-66547857D01*
X120848380Y-66738333D01*
X120800761Y-66833571D01*
X120705523Y-66881190D01*
X120324571Y-66881190D01*
X120229333Y-66833571D01*
X120181714Y-66738333D01*
X120181714Y-66547857D01*
X120229333Y-66452619D01*
X120324571Y-66405000D01*
X120419809Y-66405000D01*
X120515047Y-66881190D01*
X120800761Y-65547857D02*
X120848380Y-65643095D01*
X120848380Y-65833571D01*
X120800761Y-65928809D01*
X120753142Y-65976428D01*
X120657904Y-66024047D01*
X120372190Y-66024047D01*
X120276952Y-65976428D01*
X120229333Y-65928809D01*
X120181714Y-65833571D01*
X120181714Y-65643095D01*
X120229333Y-65547857D01*
X120848380Y-64690714D02*
X120324571Y-64690714D01*
X120229333Y-64738333D01*
X120181714Y-64833571D01*
X120181714Y-65024047D01*
X120229333Y-65119285D01*
X120800761Y-64690714D02*
X120848380Y-64785952D01*
X120848380Y-65024047D01*
X120800761Y-65119285D01*
X120705523Y-65166904D01*
X120610285Y-65166904D01*
X120515047Y-65119285D01*
X120467428Y-65024047D01*
X120467428Y-64785952D01*
X120419809Y-64690714D01*
X120181714Y-64309761D02*
X120848380Y-64071666D01*
X120181714Y-63833571D02*
X120848380Y-64071666D01*
X121086476Y-64166904D01*
X121134095Y-64214523D01*
X121181714Y-64309761D01*
X120848380Y-62928809D02*
X120848380Y-63500238D01*
X120848380Y-63214523D02*
X119848380Y-63214523D01*
X119991238Y-63309761D01*
X120086476Y-63405000D01*
X120134095Y-63500238D01*
X120266666Y-140596095D02*
X120266666Y-140119904D01*
X120552380Y-140691333D02*
X119552380Y-140358000D01*
X120552380Y-140024666D01*
X120504761Y-139262761D02*
X120552380Y-139358000D01*
X120552380Y-139548476D01*
X120504761Y-139643714D01*
X120457142Y-139691333D01*
X120361904Y-139738952D01*
X120076190Y-139738952D01*
X119980952Y-139691333D01*
X119933333Y-139643714D01*
X119885714Y-139548476D01*
X119885714Y-139358000D01*
X119933333Y-139262761D01*
X120504761Y-138405619D02*
X120552380Y-138500857D01*
X120552380Y-138691333D01*
X120504761Y-138786571D01*
X120457142Y-138834190D01*
X120361904Y-138881809D01*
X120076190Y-138881809D01*
X119980952Y-138834190D01*
X119933333Y-138786571D01*
X119885714Y-138691333D01*
X119885714Y-138500857D01*
X119933333Y-138405619D01*
X120504761Y-137596095D02*
X120552380Y-137691333D01*
X120552380Y-137881809D01*
X120504761Y-137977047D01*
X120409523Y-138024666D01*
X120028571Y-138024666D01*
X119933333Y-137977047D01*
X119885714Y-137881809D01*
X119885714Y-137691333D01*
X119933333Y-137596095D01*
X120028571Y-137548476D01*
X120123809Y-137548476D01*
X120219047Y-138024666D01*
X119885714Y-137119904D02*
X120552380Y-137119904D01*
X119980952Y-137119904D02*
X119933333Y-137072285D01*
X119885714Y-136977047D01*
X119885714Y-136834190D01*
X119933333Y-136738952D01*
X120028571Y-136691333D01*
X120552380Y-136691333D01*
X119885714Y-136358000D02*
X119885714Y-135977047D01*
X119552380Y-136215142D02*
X120409523Y-136215142D01*
X120504761Y-136167523D01*
X120552380Y-136072285D01*
X120552380Y-135977047D01*
X120552380Y-135119904D02*
X120552380Y-135691333D01*
X120552380Y-135405619D02*
X119552380Y-135405619D01*
X119695238Y-135500857D01*
X119790476Y-135596095D01*
X119838095Y-135691333D01*
M02*
