G04 #@! TF.GenerationSoftware,KiCad,Pcbnew,(5.1.5)-3*
G04 #@! TF.CreationDate,2020-07-12T13:51:54+08:00*
G04 #@! TF.ProjectId,Kick-808,4b69636b-2d38-4303-982e-6b696361645f,rev?*
G04 #@! TF.SameCoordinates,Original*
G04 #@! TF.FileFunction,Legend,Bot*
G04 #@! TF.FilePolarity,Positive*
%FSLAX46Y46*%
G04 Gerber Fmt 4.6, Leading zero omitted, Abs format (unit mm)*
G04 Created by KiCad (PCBNEW (5.1.5)-3) date 2020-07-12 13:51:54*
%MOMM*%
%LPD*%
G04 APERTURE LIST*
%ADD10C,0.150000*%
%ADD11C,0.200000*%
%ADD12C,0.300000*%
%ADD13C,0.400000*%
%ADD14C,0.120000*%
G04 APERTURE END LIST*
D10*
X133897523Y-60523380D02*
X134230857Y-60047190D01*
X134468952Y-60523380D02*
X134468952Y-59523380D01*
X134088000Y-59523380D01*
X133992761Y-59571000D01*
X133945142Y-59618619D01*
X133897523Y-59713857D01*
X133897523Y-59856714D01*
X133945142Y-59951952D01*
X133992761Y-59999571D01*
X134088000Y-60047190D01*
X134468952Y-60047190D01*
X133088000Y-60475761D02*
X133183238Y-60523380D01*
X133373714Y-60523380D01*
X133468952Y-60475761D01*
X133516571Y-60380523D01*
X133516571Y-59999571D01*
X133468952Y-59904333D01*
X133373714Y-59856714D01*
X133183238Y-59856714D01*
X133088000Y-59904333D01*
X133040380Y-59999571D01*
X133040380Y-60094809D01*
X133516571Y-60190047D01*
X132707047Y-59856714D02*
X132468952Y-60523380D01*
X132230857Y-59856714D01*
X131135619Y-60237666D02*
X130659428Y-60237666D01*
X131230857Y-60523380D02*
X130897523Y-59523380D01*
X130564190Y-60523380D01*
X122301000Y-78613000D02*
X122301000Y-93218000D01*
D11*
X124023380Y-79121857D02*
X123023380Y-79121857D01*
X124023380Y-80150428D02*
X123451952Y-79379000D01*
X123023380Y-80150428D02*
X123594809Y-79121857D01*
X124023380Y-80921857D02*
X123356714Y-80921857D01*
X123023380Y-80921857D02*
X123071000Y-80836142D01*
X123118619Y-80921857D01*
X123071000Y-81007571D01*
X123023380Y-80921857D01*
X123118619Y-80921857D01*
X123975761Y-82550428D02*
X124023380Y-82379000D01*
X124023380Y-82036142D01*
X123975761Y-81864714D01*
X123928142Y-81779000D01*
X123832904Y-81693285D01*
X123547190Y-81693285D01*
X123451952Y-81779000D01*
X123404333Y-81864714D01*
X123356714Y-82036142D01*
X123356714Y-82379000D01*
X123404333Y-82550428D01*
X124023380Y-83321857D02*
X123023380Y-83321857D01*
X123642428Y-83493285D02*
X124023380Y-84007571D01*
X123356714Y-84007571D02*
X123737666Y-83321857D01*
X123928142Y-87179000D02*
X123975761Y-87093285D01*
X124023380Y-86836142D01*
X124023380Y-86664714D01*
X123975761Y-86407571D01*
X123880523Y-86236142D01*
X123785285Y-86150428D01*
X123594809Y-86064714D01*
X123451952Y-86064714D01*
X123261476Y-86150428D01*
X123166238Y-86236142D01*
X123071000Y-86407571D01*
X123023380Y-86664714D01*
X123023380Y-86836142D01*
X123071000Y-87093285D01*
X123118619Y-87179000D01*
X124023380Y-88207571D02*
X123975761Y-88036142D01*
X123880523Y-87950428D01*
X123023380Y-87950428D01*
X124023380Y-89150428D02*
X123975761Y-88979000D01*
X123928142Y-88893285D01*
X123832904Y-88807571D01*
X123547190Y-88807571D01*
X123451952Y-88893285D01*
X123404333Y-88979000D01*
X123356714Y-89150428D01*
X123356714Y-89407571D01*
X123404333Y-89579000D01*
X123451952Y-89664714D01*
X123547190Y-89750428D01*
X123832904Y-89750428D01*
X123928142Y-89664714D01*
X123975761Y-89579000D01*
X124023380Y-89407571D01*
X124023380Y-89150428D01*
X123356714Y-90521857D02*
X124023380Y-90521857D01*
X123451952Y-90521857D02*
X123404333Y-90607571D01*
X123356714Y-90779000D01*
X123356714Y-91036142D01*
X123404333Y-91207571D01*
X123499571Y-91293285D01*
X124023380Y-91293285D01*
X123975761Y-92836142D02*
X124023380Y-92664714D01*
X124023380Y-92321857D01*
X123975761Y-92150428D01*
X123880523Y-92064714D01*
X123499571Y-92064714D01*
X123404333Y-92150428D01*
X123356714Y-92321857D01*
X123356714Y-92664714D01*
X123404333Y-92836142D01*
X123499571Y-92921857D01*
X123594809Y-92921857D01*
X123690047Y-92064714D01*
D12*
X118372142Y-79022666D02*
X118372142Y-80451238D01*
X121372142Y-79736952D02*
X118372142Y-79736952D01*
X121372142Y-82713142D02*
X119943571Y-81879809D01*
X121372142Y-81284571D02*
X118372142Y-81284571D01*
X118372142Y-82236952D01*
X118515000Y-82475047D01*
X118657857Y-82594095D01*
X118943571Y-82713142D01*
X119372142Y-82713142D01*
X119657857Y-82594095D01*
X119800714Y-82475047D01*
X119943571Y-82236952D01*
X119943571Y-81284571D01*
X120229285Y-83784571D02*
X120229285Y-85689333D01*
X119657857Y-87236952D02*
X119515000Y-86998857D01*
X119372142Y-86879809D01*
X119086428Y-86760761D01*
X118943571Y-86760761D01*
X118657857Y-86879809D01*
X118515000Y-86998857D01*
X118372142Y-87236952D01*
X118372142Y-87713142D01*
X118515000Y-87951238D01*
X118657857Y-88070285D01*
X118943571Y-88189333D01*
X119086428Y-88189333D01*
X119372142Y-88070285D01*
X119515000Y-87951238D01*
X119657857Y-87713142D01*
X119657857Y-87236952D01*
X119800714Y-86998857D01*
X119943571Y-86879809D01*
X120229285Y-86760761D01*
X120800714Y-86760761D01*
X121086428Y-86879809D01*
X121229285Y-86998857D01*
X121372142Y-87236952D01*
X121372142Y-87713142D01*
X121229285Y-87951238D01*
X121086428Y-88070285D01*
X120800714Y-88189333D01*
X120229285Y-88189333D01*
X119943571Y-88070285D01*
X119800714Y-87951238D01*
X119657857Y-87713142D01*
X118372142Y-89736952D02*
X118372142Y-89975047D01*
X118515000Y-90213142D01*
X118657857Y-90332190D01*
X118943571Y-90451238D01*
X119515000Y-90570285D01*
X120229285Y-90570285D01*
X120800714Y-90451238D01*
X121086428Y-90332190D01*
X121229285Y-90213142D01*
X121372142Y-89975047D01*
X121372142Y-89736952D01*
X121229285Y-89498857D01*
X121086428Y-89379809D01*
X120800714Y-89260761D01*
X120229285Y-89141714D01*
X119515000Y-89141714D01*
X118943571Y-89260761D01*
X118657857Y-89379809D01*
X118515000Y-89498857D01*
X118372142Y-89736952D01*
X119657857Y-91998857D02*
X119515000Y-91760761D01*
X119372142Y-91641714D01*
X119086428Y-91522666D01*
X118943571Y-91522666D01*
X118657857Y-91641714D01*
X118515000Y-91760761D01*
X118372142Y-91998857D01*
X118372142Y-92475047D01*
X118515000Y-92713142D01*
X118657857Y-92832190D01*
X118943571Y-92951238D01*
X119086428Y-92951238D01*
X119372142Y-92832190D01*
X119515000Y-92713142D01*
X119657857Y-92475047D01*
X119657857Y-91998857D01*
X119800714Y-91760761D01*
X119943571Y-91641714D01*
X120229285Y-91522666D01*
X120800714Y-91522666D01*
X121086428Y-91641714D01*
X121229285Y-91760761D01*
X121372142Y-91998857D01*
X121372142Y-92475047D01*
X121229285Y-92713142D01*
X121086428Y-92832190D01*
X120800714Y-92951238D01*
X120229285Y-92951238D01*
X119943571Y-92832190D01*
X119800714Y-92713142D01*
X119657857Y-92475047D01*
D10*
X133373047Y-153360380D02*
X133373047Y-152360380D01*
X133039714Y-153074666D01*
X132706380Y-152360380D01*
X132706380Y-153360380D01*
X131801619Y-153360380D02*
X131801619Y-152836571D01*
X131849238Y-152741333D01*
X131944476Y-152693714D01*
X132134952Y-152693714D01*
X132230190Y-152741333D01*
X131801619Y-153312761D02*
X131896857Y-153360380D01*
X132134952Y-153360380D01*
X132230190Y-153312761D01*
X132277809Y-153217523D01*
X132277809Y-153122285D01*
X132230190Y-153027047D01*
X132134952Y-152979428D01*
X131896857Y-152979428D01*
X131801619Y-152931809D01*
X131325428Y-153360380D02*
X131325428Y-152693714D01*
X131325428Y-152884190D02*
X131277809Y-152788952D01*
X131230190Y-152741333D01*
X131134952Y-152693714D01*
X131039714Y-152693714D01*
X130277809Y-153360380D02*
X130277809Y-152836571D01*
X130325428Y-152741333D01*
X130420666Y-152693714D01*
X130611142Y-152693714D01*
X130706380Y-152741333D01*
X130277809Y-153312761D02*
X130373047Y-153360380D01*
X130611142Y-153360380D01*
X130706380Y-153312761D01*
X130754000Y-153217523D01*
X130754000Y-153122285D01*
X130706380Y-153027047D01*
X130611142Y-152979428D01*
X130373047Y-152979428D01*
X130277809Y-152931809D01*
X129801619Y-152693714D02*
X129801619Y-153360380D01*
X129801619Y-152788952D02*
X129754000Y-152741333D01*
X129658761Y-152693714D01*
X129515904Y-152693714D01*
X129420666Y-152741333D01*
X129373047Y-152836571D01*
X129373047Y-153360380D01*
X128468285Y-152693714D02*
X128468285Y-153503238D01*
X128515904Y-153598476D01*
X128563523Y-153646095D01*
X128658761Y-153693714D01*
X128801619Y-153693714D01*
X128896857Y-153646095D01*
X128468285Y-153312761D02*
X128563523Y-153360380D01*
X128754000Y-153360380D01*
X128849238Y-153312761D01*
X128896857Y-153265142D01*
X128944476Y-153169904D01*
X128944476Y-152884190D01*
X128896857Y-152788952D01*
X128849238Y-152741333D01*
X128754000Y-152693714D01*
X128563523Y-152693714D01*
X128468285Y-152741333D01*
X127992095Y-153360380D02*
X127992095Y-152693714D01*
X127992095Y-152360380D02*
X128039714Y-152408000D01*
X127992095Y-152455619D01*
X127944476Y-152408000D01*
X127992095Y-152360380D01*
X127992095Y-152455619D01*
X127563523Y-153312761D02*
X127468285Y-153360380D01*
X127277809Y-153360380D01*
X127182571Y-153312761D01*
X127134952Y-153217523D01*
X127134952Y-153169904D01*
X127182571Y-153074666D01*
X127277809Y-153027047D01*
X127420666Y-153027047D01*
X127515904Y-152979428D01*
X127563523Y-152884190D01*
X127563523Y-152836571D01*
X127515904Y-152741333D01*
X127420666Y-152693714D01*
X127277809Y-152693714D01*
X127182571Y-152741333D01*
X126849238Y-152693714D02*
X126468285Y-152693714D01*
X126706380Y-152360380D02*
X126706380Y-153217523D01*
X126658761Y-153312761D01*
X126563523Y-153360380D01*
X126468285Y-153360380D01*
X125992095Y-153360380D02*
X126087333Y-153312761D01*
X126134952Y-153265142D01*
X126182571Y-153169904D01*
X126182571Y-152884190D01*
X126134952Y-152788952D01*
X126087333Y-152741333D01*
X125992095Y-152693714D01*
X125849238Y-152693714D01*
X125754000Y-152741333D01*
X125706380Y-152788952D01*
X125658761Y-152884190D01*
X125658761Y-153169904D01*
X125706380Y-153265142D01*
X125754000Y-153312761D01*
X125849238Y-153360380D01*
X125992095Y-153360380D01*
X124515904Y-152455619D02*
X124468285Y-152408000D01*
X124373047Y-152360380D01*
X124134952Y-152360380D01*
X124039714Y-152408000D01*
X123992095Y-152455619D01*
X123944476Y-152550857D01*
X123944476Y-152646095D01*
X123992095Y-152788952D01*
X124563523Y-153360380D01*
X123944476Y-153360380D01*
X123325428Y-152360380D02*
X123230190Y-152360380D01*
X123134952Y-152408000D01*
X123087333Y-152455619D01*
X123039714Y-152550857D01*
X122992095Y-152741333D01*
X122992095Y-152979428D01*
X123039714Y-153169904D01*
X123087333Y-153265142D01*
X123134952Y-153312761D01*
X123230190Y-153360380D01*
X123325428Y-153360380D01*
X123420666Y-153312761D01*
X123468285Y-153265142D01*
X123515904Y-153169904D01*
X123563523Y-152979428D01*
X123563523Y-152741333D01*
X123515904Y-152550857D01*
X123468285Y-152455619D01*
X123420666Y-152408000D01*
X123325428Y-152360380D01*
X122611142Y-152455619D02*
X122563523Y-152408000D01*
X122468285Y-152360380D01*
X122230190Y-152360380D01*
X122134952Y-152408000D01*
X122087333Y-152455619D01*
X122039714Y-152550857D01*
X122039714Y-152646095D01*
X122087333Y-152788952D01*
X122658761Y-153360380D01*
X122039714Y-153360380D01*
X121420666Y-152360380D02*
X121325428Y-152360380D01*
X121230190Y-152408000D01*
X121182571Y-152455619D01*
X121134952Y-152550857D01*
X121087333Y-152741333D01*
X121087333Y-152979428D01*
X121134952Y-153169904D01*
X121182571Y-153265142D01*
X121230190Y-153312761D01*
X121325428Y-153360380D01*
X121420666Y-153360380D01*
X121515904Y-153312761D01*
X121563523Y-153265142D01*
X121611142Y-153169904D01*
X121658761Y-152979428D01*
X121658761Y-152741333D01*
X121611142Y-152550857D01*
X121563523Y-152455619D01*
X121515904Y-152408000D01*
X121420666Y-152360380D01*
X135326428Y-141875095D02*
X135326428Y-142637000D01*
X135707380Y-143637000D02*
X135707380Y-143065571D01*
X135707380Y-143351285D02*
X134707380Y-143351285D01*
X134850238Y-143256047D01*
X134945476Y-143160809D01*
X134993095Y-143065571D01*
X134802619Y-144017952D02*
X134755000Y-144065571D01*
X134707380Y-144160809D01*
X134707380Y-144398904D01*
X134755000Y-144494142D01*
X134802619Y-144541761D01*
X134897857Y-144589380D01*
X134993095Y-144589380D01*
X135135952Y-144541761D01*
X135707380Y-143970333D01*
X135707380Y-144589380D01*
X134707380Y-144875095D02*
X135707380Y-145208428D01*
X134707380Y-145541761D01*
X119705428Y-141875095D02*
X119705428Y-142637000D01*
X120086380Y-142256047D02*
X119324476Y-142256047D01*
X120086380Y-143637000D02*
X120086380Y-143065571D01*
X120086380Y-143351285D02*
X119086380Y-143351285D01*
X119229238Y-143256047D01*
X119324476Y-143160809D01*
X119372095Y-143065571D01*
X119181619Y-144017952D02*
X119134000Y-144065571D01*
X119086380Y-144160809D01*
X119086380Y-144398904D01*
X119134000Y-144494142D01*
X119181619Y-144541761D01*
X119276857Y-144589380D01*
X119372095Y-144589380D01*
X119514952Y-144541761D01*
X120086380Y-143970333D01*
X120086380Y-144589380D01*
X119086380Y-144875095D02*
X120086380Y-145208428D01*
X119086380Y-145541761D01*
D13*
X134112000Y-141478000D02*
X134112000Y-146177000D01*
D14*
X130591779Y-122430000D02*
X130266221Y-122430000D01*
X130591779Y-121410000D02*
X130266221Y-121410000D01*
X132166000Y-90805000D02*
X132166000Y-94405000D01*
X132166000Y-90805000D02*
X132166000Y-88605000D01*
X128946000Y-90805000D02*
X128946000Y-93005000D01*
X128946000Y-90805000D02*
X128946000Y-88605000D01*
X119929000Y-110363000D02*
X119929000Y-106763000D01*
X119929000Y-110363000D02*
X119929000Y-112563000D01*
X123149000Y-110363000D02*
X123149000Y-108163000D01*
X123149000Y-110363000D02*
X123149000Y-112563000D01*
X123733779Y-102059200D02*
X123408221Y-102059200D01*
X123733779Y-101039200D02*
X123408221Y-101039200D01*
X119669779Y-116842000D02*
X119344221Y-116842000D01*
X119669779Y-115822000D02*
X119344221Y-115822000D01*
X133410000Y-146428000D02*
X133410000Y-141228000D01*
X120590000Y-146428000D02*
X120590000Y-141228000D01*
X132840000Y-147868000D02*
X132840000Y-146428000D01*
X133410000Y-146428000D02*
X132840000Y-146428000D01*
X133410000Y-141228000D02*
X132840000Y-141228000D01*
X121160000Y-146428000D02*
X120590000Y-146428000D01*
X121160000Y-141228000D02*
X120590000Y-141228000D01*
X131320000Y-146428000D02*
X130300000Y-146428000D01*
X131320000Y-141228000D02*
X130300000Y-141228000D01*
X128780000Y-146428000D02*
X127760000Y-146428000D01*
X128780000Y-141228000D02*
X127760000Y-141228000D01*
X126240000Y-146428000D02*
X125220000Y-146428000D01*
X126240000Y-141228000D02*
X125220000Y-141228000D01*
X123700000Y-146428000D02*
X122680000Y-146428000D01*
X123700000Y-141228000D02*
X122680000Y-141228000D01*
X119217221Y-50061400D02*
X119542779Y-50061400D01*
X119217221Y-51081400D02*
X119542779Y-51081400D01*
X119217221Y-52855400D02*
X119542779Y-52855400D01*
X119217221Y-53875400D02*
X119542779Y-53875400D01*
X119471221Y-118616000D02*
X119796779Y-118616000D01*
X119471221Y-119636000D02*
X119796779Y-119636000D01*
X130718779Y-82552000D02*
X130393221Y-82552000D01*
X130718779Y-81532000D02*
X130393221Y-81532000D01*
X134457221Y-50061400D02*
X134782779Y-50061400D01*
X134457221Y-51081400D02*
X134782779Y-51081400D01*
X130718779Y-85346000D02*
X130393221Y-85346000D01*
X130718779Y-84326000D02*
X130393221Y-84326000D01*
X134782779Y-53875400D02*
X134457221Y-53875400D01*
X134782779Y-52855400D02*
X134457221Y-52855400D01*
X130393221Y-78738000D02*
X130718779Y-78738000D01*
X130393221Y-79758000D02*
X130718779Y-79758000D01*
X130520221Y-72642000D02*
X130845779Y-72642000D01*
X130520221Y-73662000D02*
X130845779Y-73662000D01*
X130266221Y-115822000D02*
X130591779Y-115822000D01*
X130266221Y-116842000D02*
X130591779Y-116842000D01*
X130266221Y-113028000D02*
X130591779Y-113028000D01*
X130266221Y-114048000D02*
X130591779Y-114048000D01*
X134457221Y-72642000D02*
X134782779Y-72642000D01*
X134457221Y-73662000D02*
X134782779Y-73662000D01*
X130718779Y-97284000D02*
X130393221Y-97284000D01*
X130718779Y-96264000D02*
X130393221Y-96264000D01*
X130845779Y-70741000D02*
X130520221Y-70741000D01*
X130845779Y-69721000D02*
X130520221Y-69721000D01*
X123606779Y-65407000D02*
X123281221Y-65407000D01*
X123606779Y-64387000D02*
X123281221Y-64387000D01*
X130393221Y-99058000D02*
X130718779Y-99058000D01*
X130393221Y-100078000D02*
X130718779Y-100078000D01*
X130654779Y-102872000D02*
X130329221Y-102872000D01*
X130654779Y-101852000D02*
X130329221Y-101852000D01*
X123281221Y-58672000D02*
X123606779Y-58672000D01*
X123281221Y-59692000D02*
X123606779Y-59692000D01*
X130266221Y-110234000D02*
X130591779Y-110234000D01*
X130266221Y-111254000D02*
X130591779Y-111254000D01*
X130266221Y-107440000D02*
X130591779Y-107440000D01*
X130266221Y-108460000D02*
X130591779Y-108460000D01*
X119281221Y-61466000D02*
X119606779Y-61466000D01*
X119281221Y-62486000D02*
X119606779Y-62486000D01*
X119344221Y-103884000D02*
X119669779Y-103884000D01*
X119344221Y-104904000D02*
X119669779Y-104904000D01*
X134330221Y-121410000D02*
X134655779Y-121410000D01*
X134330221Y-122430000D02*
X134655779Y-122430000D01*
X119217221Y-76833000D02*
X119542779Y-76833000D01*
X119217221Y-77853000D02*
X119542779Y-77853000D01*
X123281221Y-76833000D02*
X123606779Y-76833000D01*
X123281221Y-77853000D02*
X123606779Y-77853000D01*
X134330221Y-118616000D02*
X134655779Y-118616000D01*
X134330221Y-119636000D02*
X134655779Y-119636000D01*
X119344221Y-101090000D02*
X119669779Y-101090000D01*
X119344221Y-102110000D02*
X119669779Y-102110000D01*
X123408221Y-103884000D02*
X123733779Y-103884000D01*
X123408221Y-104904000D02*
X123733779Y-104904000D01*
X123733779Y-99316000D02*
X123408221Y-99316000D01*
X123733779Y-98296000D02*
X123408221Y-98296000D01*
X119344221Y-95502000D02*
X119669779Y-95502000D01*
X119344221Y-96522000D02*
X119669779Y-96522000D01*
X119344221Y-98296000D02*
X119669779Y-98296000D01*
X119344221Y-99316000D02*
X119669779Y-99316000D01*
X121214000Y-57808400D02*
X121214000Y-56348400D01*
X118054000Y-57808400D02*
X118054000Y-55648400D01*
X118054000Y-57808400D02*
X118984000Y-57808400D01*
X121214000Y-57808400D02*
X120284000Y-57808400D01*
X132786000Y-56288400D02*
X132786000Y-57748400D01*
X135946000Y-56288400D02*
X135946000Y-58448400D01*
X135946000Y-56288400D02*
X135016000Y-56288400D01*
X132786000Y-56288400D02*
X133716000Y-56288400D01*
X127125000Y-79446000D02*
X125665000Y-79446000D01*
X127125000Y-82606000D02*
X124965000Y-82606000D01*
X127125000Y-82606000D02*
X127125000Y-81676000D01*
X127125000Y-79446000D02*
X127125000Y-80376000D01*
X120394000Y-67127000D02*
X118934000Y-67127000D01*
X120394000Y-70287000D02*
X118234000Y-70287000D01*
X120394000Y-70287000D02*
X120394000Y-69357000D01*
X120394000Y-67127000D02*
X120394000Y-68057000D01*
X124658000Y-111127000D02*
X124658000Y-112587000D01*
X127818000Y-111127000D02*
X127818000Y-113287000D01*
X127818000Y-111127000D02*
X126888000Y-111127000D01*
X124658000Y-111127000D02*
X125588000Y-111127000D01*
X124785000Y-124970000D02*
X124785000Y-126430000D01*
X127945000Y-124970000D02*
X127945000Y-127130000D01*
X127945000Y-124970000D02*
X127015000Y-124970000D01*
X124785000Y-124970000D02*
X125715000Y-124970000D01*
X118874000Y-75113000D02*
X120334000Y-75113000D01*
X118874000Y-71953000D02*
X121034000Y-71953000D01*
X118874000Y-71953000D02*
X118874000Y-72883000D01*
X118874000Y-75113000D02*
X118874000Y-74183000D01*
X135790000Y-137861221D02*
X135790000Y-138186779D01*
X134770000Y-137861221D02*
X134770000Y-138186779D01*
X119382000Y-137759221D02*
X119382000Y-138084779D01*
X118362000Y-137759221D02*
X118362000Y-138084779D01*
X133493000Y-101763000D02*
X133493000Y-105663000D01*
X135493000Y-101763000D02*
X135493000Y-105663000D01*
X133493000Y-101763000D02*
X135493000Y-101763000D01*
X124825000Y-73370000D02*
X124825000Y-69470000D01*
X122825000Y-73370000D02*
X122825000Y-69470000D01*
X124825000Y-73370000D02*
X122825000Y-73370000D01*
X127472000Y-120285000D02*
X123572000Y-120285000D01*
X127472000Y-122285000D02*
X123572000Y-122285000D01*
X127472000Y-120285000D02*
X127472000Y-122285000D01*
X131909000Y-63595000D02*
X131909000Y-64095000D01*
X132159000Y-63845000D02*
X131659000Y-63845000D01*
X131419000Y-66600563D02*
X130354563Y-67665000D01*
X131419000Y-64209437D02*
X130354563Y-63145000D01*
X131419000Y-64209437D02*
X131419000Y-64345000D01*
X131419000Y-66600563D02*
X131419000Y-66465000D01*
X130354563Y-67665000D02*
X126899000Y-67665000D01*
X130354563Y-63145000D02*
X126899000Y-63145000D01*
X126899000Y-63145000D02*
X126899000Y-64345000D01*
X126899000Y-67665000D02*
X126899000Y-66465000D01*
X126773221Y-51814000D02*
X127098779Y-51814000D01*
X126773221Y-52834000D02*
X127098779Y-52834000D01*
X123733779Y-116842000D02*
X123408221Y-116842000D01*
X123733779Y-115822000D02*
X123408221Y-115822000D01*
X130520221Y-75436000D02*
X130845779Y-75436000D01*
X130520221Y-76456000D02*
X130845779Y-76456000D01*
X134457221Y-75436000D02*
X134782779Y-75436000D01*
X134457221Y-76456000D02*
X134782779Y-76456000D01*
X123606779Y-62486000D02*
X123281221Y-62486000D01*
X123606779Y-61466000D02*
X123281221Y-61466000D01*
X123733779Y-96395000D02*
X123408221Y-96395000D01*
X123733779Y-95375000D02*
X123408221Y-95375000D01*
X134782779Y-88267000D02*
X134457221Y-88267000D01*
X134782779Y-87247000D02*
X134457221Y-87247000D01*
X130591779Y-105666000D02*
X130266221Y-105666000D01*
X130591779Y-104646000D02*
X130266221Y-104646000D01*
X128665500Y-133874500D02*
X128665500Y-133249500D01*
X128353000Y-133562000D02*
X128978000Y-133562000D01*
X129218000Y-130181437D02*
X130282437Y-129117000D01*
X129218000Y-133572563D02*
X130282437Y-134637000D01*
X129218000Y-133572563D02*
X129218000Y-132937000D01*
X129218000Y-130181437D02*
X129218000Y-130817000D01*
X130282437Y-129117000D02*
X134738000Y-129117000D01*
X130282437Y-134637000D02*
X134738000Y-134637000D01*
X134738000Y-134637000D02*
X134738000Y-132937000D01*
X134738000Y-129117000D02*
X134738000Y-130817000D01*
X118810500Y-133925500D02*
X118810500Y-133300500D01*
X118498000Y-133613000D02*
X119123000Y-133613000D01*
X119363000Y-130232437D02*
X120427437Y-129168000D01*
X119363000Y-133623563D02*
X120427437Y-134688000D01*
X119363000Y-133623563D02*
X119363000Y-132988000D01*
X119363000Y-130232437D02*
X119363000Y-130868000D01*
X120427437Y-129168000D02*
X124883000Y-129168000D01*
X120427437Y-134688000D02*
X124883000Y-134688000D01*
X124883000Y-134688000D02*
X124883000Y-132988000D01*
X124883000Y-129168000D02*
X124883000Y-130868000D01*
X119281221Y-64387000D02*
X119606779Y-64387000D01*
X119281221Y-65407000D02*
X119606779Y-65407000D01*
X130591779Y-119636000D02*
X130266221Y-119636000D01*
X130591779Y-118616000D02*
X130266221Y-118616000D01*
D10*
X130595666Y-120942380D02*
X130929000Y-120466190D01*
X131167095Y-120942380D02*
X131167095Y-119942380D01*
X130786142Y-119942380D01*
X130690904Y-119990000D01*
X130643285Y-120037619D01*
X130595666Y-120132857D01*
X130595666Y-120275714D01*
X130643285Y-120370952D01*
X130690904Y-120418571D01*
X130786142Y-120466190D01*
X131167095Y-120466190D01*
X130119476Y-120942380D02*
X129929000Y-120942380D01*
X129833761Y-120894761D01*
X129786142Y-120847142D01*
X129690904Y-120704285D01*
X129643285Y-120513809D01*
X129643285Y-120132857D01*
X129690904Y-120037619D01*
X129738523Y-119990000D01*
X129833761Y-119942380D01*
X130024238Y-119942380D01*
X130119476Y-119990000D01*
X130167095Y-120037619D01*
X130214714Y-120132857D01*
X130214714Y-120370952D01*
X130167095Y-120466190D01*
X130119476Y-120513809D01*
X130024238Y-120561428D01*
X129833761Y-120561428D01*
X129738523Y-120513809D01*
X129690904Y-120466190D01*
X129643285Y-120370952D01*
X134238904Y-90257380D02*
X134238904Y-91066904D01*
X134191285Y-91162142D01*
X134143666Y-91209761D01*
X134048428Y-91257380D01*
X133857952Y-91257380D01*
X133762714Y-91209761D01*
X133715095Y-91162142D01*
X133667476Y-91066904D01*
X133667476Y-90257380D01*
X133238904Y-90352619D02*
X133191285Y-90305000D01*
X133096047Y-90257380D01*
X132857952Y-90257380D01*
X132762714Y-90305000D01*
X132715095Y-90352619D01*
X132667476Y-90447857D01*
X132667476Y-90543095D01*
X132715095Y-90685952D01*
X133286523Y-91257380D01*
X132667476Y-91257380D01*
X119506904Y-109815380D02*
X119506904Y-110624904D01*
X119459285Y-110720142D01*
X119411666Y-110767761D01*
X119316428Y-110815380D01*
X119125952Y-110815380D01*
X119030714Y-110767761D01*
X118983095Y-110720142D01*
X118935476Y-110624904D01*
X118935476Y-109815380D01*
X117935476Y-110815380D02*
X118506904Y-110815380D01*
X118221190Y-110815380D02*
X118221190Y-109815380D01*
X118316428Y-109958238D01*
X118411666Y-110053476D01*
X118506904Y-110101095D01*
X124213857Y-100476342D02*
X124261476Y-100523961D01*
X124404333Y-100571580D01*
X124499571Y-100571580D01*
X124642428Y-100523961D01*
X124737666Y-100428723D01*
X124785285Y-100333485D01*
X124832904Y-100143009D01*
X124832904Y-100000152D01*
X124785285Y-99809676D01*
X124737666Y-99714438D01*
X124642428Y-99619200D01*
X124499571Y-99571580D01*
X124404333Y-99571580D01*
X124261476Y-99619200D01*
X124213857Y-99666819D01*
X123261476Y-100571580D02*
X123832904Y-100571580D01*
X123547190Y-100571580D02*
X123547190Y-99571580D01*
X123642428Y-99714438D01*
X123737666Y-99809676D01*
X123832904Y-99857295D01*
X122356714Y-99571580D02*
X122832904Y-99571580D01*
X122880523Y-100047771D01*
X122832904Y-100000152D01*
X122737666Y-99952533D01*
X122499571Y-99952533D01*
X122404333Y-100000152D01*
X122356714Y-100047771D01*
X122309095Y-100143009D01*
X122309095Y-100381104D01*
X122356714Y-100476342D01*
X122404333Y-100523961D01*
X122499571Y-100571580D01*
X122737666Y-100571580D01*
X122832904Y-100523961D01*
X122880523Y-100476342D01*
X120149857Y-115259142D02*
X120197476Y-115306761D01*
X120340333Y-115354380D01*
X120435571Y-115354380D01*
X120578428Y-115306761D01*
X120673666Y-115211523D01*
X120721285Y-115116285D01*
X120768904Y-114925809D01*
X120768904Y-114782952D01*
X120721285Y-114592476D01*
X120673666Y-114497238D01*
X120578428Y-114402000D01*
X120435571Y-114354380D01*
X120340333Y-114354380D01*
X120197476Y-114402000D01*
X120149857Y-114449619D01*
X119197476Y-115354380D02*
X119768904Y-115354380D01*
X119483190Y-115354380D02*
X119483190Y-114354380D01*
X119578428Y-114497238D01*
X119673666Y-114592476D01*
X119768904Y-114640095D01*
X118340333Y-114687714D02*
X118340333Y-115354380D01*
X118578428Y-114306761D02*
X118816523Y-115021047D01*
X118197476Y-115021047D01*
X127333333Y-137882380D02*
X127333333Y-138596666D01*
X127380952Y-138739523D01*
X127476190Y-138834761D01*
X127619047Y-138882380D01*
X127714285Y-138882380D01*
X126952380Y-137882380D02*
X126333333Y-137882380D01*
X126666666Y-138263333D01*
X126523809Y-138263333D01*
X126428571Y-138310952D01*
X126380952Y-138358571D01*
X126333333Y-138453809D01*
X126333333Y-138691904D01*
X126380952Y-138787142D01*
X126428571Y-138834761D01*
X126523809Y-138882380D01*
X126809523Y-138882380D01*
X126904761Y-138834761D01*
X126952380Y-138787142D01*
X120022857Y-49728380D02*
X120356190Y-49252190D01*
X120594285Y-49728380D02*
X120594285Y-48728380D01*
X120213333Y-48728380D01*
X120118095Y-48776000D01*
X120070476Y-48823619D01*
X120022857Y-48918857D01*
X120022857Y-49061714D01*
X120070476Y-49156952D01*
X120118095Y-49204571D01*
X120213333Y-49252190D01*
X120594285Y-49252190D01*
X119689523Y-48728380D02*
X119070476Y-48728380D01*
X119403809Y-49109333D01*
X119260952Y-49109333D01*
X119165714Y-49156952D01*
X119118095Y-49204571D01*
X119070476Y-49299809D01*
X119070476Y-49537904D01*
X119118095Y-49633142D01*
X119165714Y-49680761D01*
X119260952Y-49728380D01*
X119546666Y-49728380D01*
X119641904Y-49680761D01*
X119689523Y-49633142D01*
X118689523Y-48823619D02*
X118641904Y-48776000D01*
X118546666Y-48728380D01*
X118308571Y-48728380D01*
X118213333Y-48776000D01*
X118165714Y-48823619D01*
X118118095Y-48918857D01*
X118118095Y-49014095D01*
X118165714Y-49156952D01*
X118737142Y-49728380D01*
X118118095Y-49728380D01*
X120022857Y-52522380D02*
X120356190Y-52046190D01*
X120594285Y-52522380D02*
X120594285Y-51522380D01*
X120213333Y-51522380D01*
X120118095Y-51570000D01*
X120070476Y-51617619D01*
X120022857Y-51712857D01*
X120022857Y-51855714D01*
X120070476Y-51950952D01*
X120118095Y-51998571D01*
X120213333Y-52046190D01*
X120594285Y-52046190D01*
X119689523Y-51522380D02*
X119070476Y-51522380D01*
X119403809Y-51903333D01*
X119260952Y-51903333D01*
X119165714Y-51950952D01*
X119118095Y-51998571D01*
X119070476Y-52093809D01*
X119070476Y-52331904D01*
X119118095Y-52427142D01*
X119165714Y-52474761D01*
X119260952Y-52522380D01*
X119546666Y-52522380D01*
X119641904Y-52474761D01*
X119689523Y-52427142D01*
X118118095Y-52522380D02*
X118689523Y-52522380D01*
X118403809Y-52522380D02*
X118403809Y-51522380D01*
X118499047Y-51665238D01*
X118594285Y-51760476D01*
X118689523Y-51808095D01*
X120276857Y-118214380D02*
X120610190Y-117738190D01*
X120848285Y-118214380D02*
X120848285Y-117214380D01*
X120467333Y-117214380D01*
X120372095Y-117262000D01*
X120324476Y-117309619D01*
X120276857Y-117404857D01*
X120276857Y-117547714D01*
X120324476Y-117642952D01*
X120372095Y-117690571D01*
X120467333Y-117738190D01*
X120848285Y-117738190D01*
X119943523Y-117214380D02*
X119324476Y-117214380D01*
X119657809Y-117595333D01*
X119514952Y-117595333D01*
X119419714Y-117642952D01*
X119372095Y-117690571D01*
X119324476Y-117785809D01*
X119324476Y-118023904D01*
X119372095Y-118119142D01*
X119419714Y-118166761D01*
X119514952Y-118214380D01*
X119800666Y-118214380D01*
X119895904Y-118166761D01*
X119943523Y-118119142D01*
X118705428Y-117214380D02*
X118610190Y-117214380D01*
X118514952Y-117262000D01*
X118467333Y-117309619D01*
X118419714Y-117404857D01*
X118372095Y-117595333D01*
X118372095Y-117833428D01*
X118419714Y-118023904D01*
X118467333Y-118119142D01*
X118514952Y-118166761D01*
X118610190Y-118214380D01*
X118705428Y-118214380D01*
X118800666Y-118166761D01*
X118848285Y-118119142D01*
X118895904Y-118023904D01*
X118943523Y-117833428D01*
X118943523Y-117595333D01*
X118895904Y-117404857D01*
X118848285Y-117309619D01*
X118800666Y-117262000D01*
X118705428Y-117214380D01*
X131198857Y-81064380D02*
X131532190Y-80588190D01*
X131770285Y-81064380D02*
X131770285Y-80064380D01*
X131389333Y-80064380D01*
X131294095Y-80112000D01*
X131246476Y-80159619D01*
X131198857Y-80254857D01*
X131198857Y-80397714D01*
X131246476Y-80492952D01*
X131294095Y-80540571D01*
X131389333Y-80588190D01*
X131770285Y-80588190D01*
X130817904Y-80159619D02*
X130770285Y-80112000D01*
X130675047Y-80064380D01*
X130436952Y-80064380D01*
X130341714Y-80112000D01*
X130294095Y-80159619D01*
X130246476Y-80254857D01*
X130246476Y-80350095D01*
X130294095Y-80492952D01*
X130865523Y-81064380D01*
X130246476Y-81064380D01*
X129770285Y-81064380D02*
X129579809Y-81064380D01*
X129484571Y-81016761D01*
X129436952Y-80969142D01*
X129341714Y-80826285D01*
X129294095Y-80635809D01*
X129294095Y-80254857D01*
X129341714Y-80159619D01*
X129389333Y-80112000D01*
X129484571Y-80064380D01*
X129675047Y-80064380D01*
X129770285Y-80112000D01*
X129817904Y-80159619D01*
X129865523Y-80254857D01*
X129865523Y-80492952D01*
X129817904Y-80588190D01*
X129770285Y-80635809D01*
X129675047Y-80683428D01*
X129484571Y-80683428D01*
X129389333Y-80635809D01*
X129341714Y-80588190D01*
X129294095Y-80492952D01*
X135262857Y-49728380D02*
X135596190Y-49252190D01*
X135834285Y-49728380D02*
X135834285Y-48728380D01*
X135453333Y-48728380D01*
X135358095Y-48776000D01*
X135310476Y-48823619D01*
X135262857Y-48918857D01*
X135262857Y-49061714D01*
X135310476Y-49156952D01*
X135358095Y-49204571D01*
X135453333Y-49252190D01*
X135834285Y-49252190D01*
X134881904Y-48823619D02*
X134834285Y-48776000D01*
X134739047Y-48728380D01*
X134500952Y-48728380D01*
X134405714Y-48776000D01*
X134358095Y-48823619D01*
X134310476Y-48918857D01*
X134310476Y-49014095D01*
X134358095Y-49156952D01*
X134929523Y-49728380D01*
X134310476Y-49728380D01*
X133739047Y-49156952D02*
X133834285Y-49109333D01*
X133881904Y-49061714D01*
X133929523Y-48966476D01*
X133929523Y-48918857D01*
X133881904Y-48823619D01*
X133834285Y-48776000D01*
X133739047Y-48728380D01*
X133548571Y-48728380D01*
X133453333Y-48776000D01*
X133405714Y-48823619D01*
X133358095Y-48918857D01*
X133358095Y-48966476D01*
X133405714Y-49061714D01*
X133453333Y-49109333D01*
X133548571Y-49156952D01*
X133739047Y-49156952D01*
X133834285Y-49204571D01*
X133881904Y-49252190D01*
X133929523Y-49347428D01*
X133929523Y-49537904D01*
X133881904Y-49633142D01*
X133834285Y-49680761D01*
X133739047Y-49728380D01*
X133548571Y-49728380D01*
X133453333Y-49680761D01*
X133405714Y-49633142D01*
X133358095Y-49537904D01*
X133358095Y-49347428D01*
X133405714Y-49252190D01*
X133453333Y-49204571D01*
X133548571Y-49156952D01*
X131198857Y-83858380D02*
X131532190Y-83382190D01*
X131770285Y-83858380D02*
X131770285Y-82858380D01*
X131389333Y-82858380D01*
X131294095Y-82906000D01*
X131246476Y-82953619D01*
X131198857Y-83048857D01*
X131198857Y-83191714D01*
X131246476Y-83286952D01*
X131294095Y-83334571D01*
X131389333Y-83382190D01*
X131770285Y-83382190D01*
X130817904Y-82953619D02*
X130770285Y-82906000D01*
X130675047Y-82858380D01*
X130436952Y-82858380D01*
X130341714Y-82906000D01*
X130294095Y-82953619D01*
X130246476Y-83048857D01*
X130246476Y-83144095D01*
X130294095Y-83286952D01*
X130865523Y-83858380D01*
X130246476Y-83858380D01*
X129913142Y-82858380D02*
X129246476Y-82858380D01*
X129675047Y-83858380D01*
X135262857Y-52387780D02*
X135596190Y-51911590D01*
X135834285Y-52387780D02*
X135834285Y-51387780D01*
X135453333Y-51387780D01*
X135358095Y-51435400D01*
X135310476Y-51483019D01*
X135262857Y-51578257D01*
X135262857Y-51721114D01*
X135310476Y-51816352D01*
X135358095Y-51863971D01*
X135453333Y-51911590D01*
X135834285Y-51911590D01*
X134881904Y-51483019D02*
X134834285Y-51435400D01*
X134739047Y-51387780D01*
X134500952Y-51387780D01*
X134405714Y-51435400D01*
X134358095Y-51483019D01*
X134310476Y-51578257D01*
X134310476Y-51673495D01*
X134358095Y-51816352D01*
X134929523Y-52387780D01*
X134310476Y-52387780D01*
X133453333Y-51387780D02*
X133643809Y-51387780D01*
X133739047Y-51435400D01*
X133786666Y-51483019D01*
X133881904Y-51625876D01*
X133929523Y-51816352D01*
X133929523Y-52197304D01*
X133881904Y-52292542D01*
X133834285Y-52340161D01*
X133739047Y-52387780D01*
X133548571Y-52387780D01*
X133453333Y-52340161D01*
X133405714Y-52292542D01*
X133358095Y-52197304D01*
X133358095Y-51959209D01*
X133405714Y-51863971D01*
X133453333Y-51816352D01*
X133548571Y-51768733D01*
X133739047Y-51768733D01*
X133834285Y-51816352D01*
X133881904Y-51863971D01*
X133929523Y-51959209D01*
X131198857Y-78336380D02*
X131532190Y-77860190D01*
X131770285Y-78336380D02*
X131770285Y-77336380D01*
X131389333Y-77336380D01*
X131294095Y-77384000D01*
X131246476Y-77431619D01*
X131198857Y-77526857D01*
X131198857Y-77669714D01*
X131246476Y-77764952D01*
X131294095Y-77812571D01*
X131389333Y-77860190D01*
X131770285Y-77860190D01*
X130817904Y-77431619D02*
X130770285Y-77384000D01*
X130675047Y-77336380D01*
X130436952Y-77336380D01*
X130341714Y-77384000D01*
X130294095Y-77431619D01*
X130246476Y-77526857D01*
X130246476Y-77622095D01*
X130294095Y-77764952D01*
X130865523Y-78336380D01*
X130246476Y-78336380D01*
X129341714Y-77336380D02*
X129817904Y-77336380D01*
X129865523Y-77812571D01*
X129817904Y-77764952D01*
X129722666Y-77717333D01*
X129484571Y-77717333D01*
X129389333Y-77764952D01*
X129341714Y-77812571D01*
X129294095Y-77907809D01*
X129294095Y-78145904D01*
X129341714Y-78241142D01*
X129389333Y-78288761D01*
X129484571Y-78336380D01*
X129722666Y-78336380D01*
X129817904Y-78288761D01*
X129865523Y-78241142D01*
X131325857Y-72240380D02*
X131659190Y-71764190D01*
X131897285Y-72240380D02*
X131897285Y-71240380D01*
X131516333Y-71240380D01*
X131421095Y-71288000D01*
X131373476Y-71335619D01*
X131325857Y-71430857D01*
X131325857Y-71573714D01*
X131373476Y-71668952D01*
X131421095Y-71716571D01*
X131516333Y-71764190D01*
X131897285Y-71764190D01*
X130944904Y-71335619D02*
X130897285Y-71288000D01*
X130802047Y-71240380D01*
X130563952Y-71240380D01*
X130468714Y-71288000D01*
X130421095Y-71335619D01*
X130373476Y-71430857D01*
X130373476Y-71526095D01*
X130421095Y-71668952D01*
X130992523Y-72240380D01*
X130373476Y-72240380D01*
X129516333Y-71573714D02*
X129516333Y-72240380D01*
X129754428Y-71192761D02*
X129992523Y-71907047D01*
X129373476Y-71907047D01*
X131071857Y-115420380D02*
X131405190Y-114944190D01*
X131643285Y-115420380D02*
X131643285Y-114420380D01*
X131262333Y-114420380D01*
X131167095Y-114468000D01*
X131119476Y-114515619D01*
X131071857Y-114610857D01*
X131071857Y-114753714D01*
X131119476Y-114848952D01*
X131167095Y-114896571D01*
X131262333Y-114944190D01*
X131643285Y-114944190D01*
X130690904Y-114515619D02*
X130643285Y-114468000D01*
X130548047Y-114420380D01*
X130309952Y-114420380D01*
X130214714Y-114468000D01*
X130167095Y-114515619D01*
X130119476Y-114610857D01*
X130119476Y-114706095D01*
X130167095Y-114848952D01*
X130738523Y-115420380D01*
X130119476Y-115420380D01*
X129786142Y-114420380D02*
X129167095Y-114420380D01*
X129500428Y-114801333D01*
X129357571Y-114801333D01*
X129262333Y-114848952D01*
X129214714Y-114896571D01*
X129167095Y-114991809D01*
X129167095Y-115229904D01*
X129214714Y-115325142D01*
X129262333Y-115372761D01*
X129357571Y-115420380D01*
X129643285Y-115420380D01*
X129738523Y-115372761D01*
X129786142Y-115325142D01*
X131071857Y-112626380D02*
X131405190Y-112150190D01*
X131643285Y-112626380D02*
X131643285Y-111626380D01*
X131262333Y-111626380D01*
X131167095Y-111674000D01*
X131119476Y-111721619D01*
X131071857Y-111816857D01*
X131071857Y-111959714D01*
X131119476Y-112054952D01*
X131167095Y-112102571D01*
X131262333Y-112150190D01*
X131643285Y-112150190D01*
X130690904Y-111721619D02*
X130643285Y-111674000D01*
X130548047Y-111626380D01*
X130309952Y-111626380D01*
X130214714Y-111674000D01*
X130167095Y-111721619D01*
X130119476Y-111816857D01*
X130119476Y-111912095D01*
X130167095Y-112054952D01*
X130738523Y-112626380D01*
X130119476Y-112626380D01*
X129738523Y-111721619D02*
X129690904Y-111674000D01*
X129595666Y-111626380D01*
X129357571Y-111626380D01*
X129262333Y-111674000D01*
X129214714Y-111721619D01*
X129167095Y-111816857D01*
X129167095Y-111912095D01*
X129214714Y-112054952D01*
X129786142Y-112626380D01*
X129167095Y-112626380D01*
X135262857Y-72207380D02*
X135596190Y-71731190D01*
X135834285Y-72207380D02*
X135834285Y-71207380D01*
X135453333Y-71207380D01*
X135358095Y-71255000D01*
X135310476Y-71302619D01*
X135262857Y-71397857D01*
X135262857Y-71540714D01*
X135310476Y-71635952D01*
X135358095Y-71683571D01*
X135453333Y-71731190D01*
X135834285Y-71731190D01*
X134881904Y-71302619D02*
X134834285Y-71255000D01*
X134739047Y-71207380D01*
X134500952Y-71207380D01*
X134405714Y-71255000D01*
X134358095Y-71302619D01*
X134310476Y-71397857D01*
X134310476Y-71493095D01*
X134358095Y-71635952D01*
X134929523Y-72207380D01*
X134310476Y-72207380D01*
X133358095Y-72207380D02*
X133929523Y-72207380D01*
X133643809Y-72207380D02*
X133643809Y-71207380D01*
X133739047Y-71350238D01*
X133834285Y-71445476D01*
X133929523Y-71493095D01*
X131198857Y-95796380D02*
X131532190Y-95320190D01*
X131770285Y-95796380D02*
X131770285Y-94796380D01*
X131389333Y-94796380D01*
X131294095Y-94844000D01*
X131246476Y-94891619D01*
X131198857Y-94986857D01*
X131198857Y-95129714D01*
X131246476Y-95224952D01*
X131294095Y-95272571D01*
X131389333Y-95320190D01*
X131770285Y-95320190D01*
X130817904Y-94891619D02*
X130770285Y-94844000D01*
X130675047Y-94796380D01*
X130436952Y-94796380D01*
X130341714Y-94844000D01*
X130294095Y-94891619D01*
X130246476Y-94986857D01*
X130246476Y-95082095D01*
X130294095Y-95224952D01*
X130865523Y-95796380D01*
X130246476Y-95796380D01*
X129627428Y-94796380D02*
X129532190Y-94796380D01*
X129436952Y-94844000D01*
X129389333Y-94891619D01*
X129341714Y-94986857D01*
X129294095Y-95177333D01*
X129294095Y-95415428D01*
X129341714Y-95605904D01*
X129389333Y-95701142D01*
X129436952Y-95748761D01*
X129532190Y-95796380D01*
X129627428Y-95796380D01*
X129722666Y-95748761D01*
X129770285Y-95701142D01*
X129817904Y-95605904D01*
X129865523Y-95415428D01*
X129865523Y-95177333D01*
X129817904Y-94986857D01*
X129770285Y-94891619D01*
X129722666Y-94844000D01*
X129627428Y-94796380D01*
X131325857Y-69253380D02*
X131659190Y-68777190D01*
X131897285Y-69253380D02*
X131897285Y-68253380D01*
X131516333Y-68253380D01*
X131421095Y-68301000D01*
X131373476Y-68348619D01*
X131325857Y-68443857D01*
X131325857Y-68586714D01*
X131373476Y-68681952D01*
X131421095Y-68729571D01*
X131516333Y-68777190D01*
X131897285Y-68777190D01*
X130373476Y-69253380D02*
X130944904Y-69253380D01*
X130659190Y-69253380D02*
X130659190Y-68253380D01*
X130754428Y-68396238D01*
X130849666Y-68491476D01*
X130944904Y-68539095D01*
X129897285Y-69253380D02*
X129706809Y-69253380D01*
X129611571Y-69205761D01*
X129563952Y-69158142D01*
X129468714Y-69015285D01*
X129421095Y-68824809D01*
X129421095Y-68443857D01*
X129468714Y-68348619D01*
X129516333Y-68301000D01*
X129611571Y-68253380D01*
X129802047Y-68253380D01*
X129897285Y-68301000D01*
X129944904Y-68348619D01*
X129992523Y-68443857D01*
X129992523Y-68681952D01*
X129944904Y-68777190D01*
X129897285Y-68824809D01*
X129802047Y-68872428D01*
X129611571Y-68872428D01*
X129516333Y-68824809D01*
X129468714Y-68777190D01*
X129421095Y-68681952D01*
X124086857Y-63919380D02*
X124420190Y-63443190D01*
X124658285Y-63919380D02*
X124658285Y-62919380D01*
X124277333Y-62919380D01*
X124182095Y-62967000D01*
X124134476Y-63014619D01*
X124086857Y-63109857D01*
X124086857Y-63252714D01*
X124134476Y-63347952D01*
X124182095Y-63395571D01*
X124277333Y-63443190D01*
X124658285Y-63443190D01*
X123134476Y-63919380D02*
X123705904Y-63919380D01*
X123420190Y-63919380D02*
X123420190Y-62919380D01*
X123515428Y-63062238D01*
X123610666Y-63157476D01*
X123705904Y-63205095D01*
X122563047Y-63347952D02*
X122658285Y-63300333D01*
X122705904Y-63252714D01*
X122753523Y-63157476D01*
X122753523Y-63109857D01*
X122705904Y-63014619D01*
X122658285Y-62967000D01*
X122563047Y-62919380D01*
X122372571Y-62919380D01*
X122277333Y-62967000D01*
X122229714Y-63014619D01*
X122182095Y-63109857D01*
X122182095Y-63157476D01*
X122229714Y-63252714D01*
X122277333Y-63300333D01*
X122372571Y-63347952D01*
X122563047Y-63347952D01*
X122658285Y-63395571D01*
X122705904Y-63443190D01*
X122753523Y-63538428D01*
X122753523Y-63728904D01*
X122705904Y-63824142D01*
X122658285Y-63871761D01*
X122563047Y-63919380D01*
X122372571Y-63919380D01*
X122277333Y-63871761D01*
X122229714Y-63824142D01*
X122182095Y-63728904D01*
X122182095Y-63538428D01*
X122229714Y-63443190D01*
X122277333Y-63395571D01*
X122372571Y-63347952D01*
X131198857Y-98656380D02*
X131532190Y-98180190D01*
X131770285Y-98656380D02*
X131770285Y-97656380D01*
X131389333Y-97656380D01*
X131294095Y-97704000D01*
X131246476Y-97751619D01*
X131198857Y-97846857D01*
X131198857Y-97989714D01*
X131246476Y-98084952D01*
X131294095Y-98132571D01*
X131389333Y-98180190D01*
X131770285Y-98180190D01*
X130246476Y-98656380D02*
X130817904Y-98656380D01*
X130532190Y-98656380D02*
X130532190Y-97656380D01*
X130627428Y-97799238D01*
X130722666Y-97894476D01*
X130817904Y-97942095D01*
X129913142Y-97656380D02*
X129246476Y-97656380D01*
X129675047Y-98656380D01*
X131134857Y-101384380D02*
X131468190Y-100908190D01*
X131706285Y-101384380D02*
X131706285Y-100384380D01*
X131325333Y-100384380D01*
X131230095Y-100432000D01*
X131182476Y-100479619D01*
X131134857Y-100574857D01*
X131134857Y-100717714D01*
X131182476Y-100812952D01*
X131230095Y-100860571D01*
X131325333Y-100908190D01*
X131706285Y-100908190D01*
X130182476Y-101384380D02*
X130753904Y-101384380D01*
X130468190Y-101384380D02*
X130468190Y-100384380D01*
X130563428Y-100527238D01*
X130658666Y-100622476D01*
X130753904Y-100670095D01*
X129325333Y-100384380D02*
X129515809Y-100384380D01*
X129611047Y-100432000D01*
X129658666Y-100479619D01*
X129753904Y-100622476D01*
X129801523Y-100812952D01*
X129801523Y-101193904D01*
X129753904Y-101289142D01*
X129706285Y-101336761D01*
X129611047Y-101384380D01*
X129420571Y-101384380D01*
X129325333Y-101336761D01*
X129277714Y-101289142D01*
X129230095Y-101193904D01*
X129230095Y-100955809D01*
X129277714Y-100860571D01*
X129325333Y-100812952D01*
X129420571Y-100765333D01*
X129611047Y-100765333D01*
X129706285Y-100812952D01*
X129753904Y-100860571D01*
X129801523Y-100955809D01*
X124086857Y-58237380D02*
X124420190Y-57761190D01*
X124658285Y-58237380D02*
X124658285Y-57237380D01*
X124277333Y-57237380D01*
X124182095Y-57285000D01*
X124134476Y-57332619D01*
X124086857Y-57427857D01*
X124086857Y-57570714D01*
X124134476Y-57665952D01*
X124182095Y-57713571D01*
X124277333Y-57761190D01*
X124658285Y-57761190D01*
X123134476Y-58237380D02*
X123705904Y-58237380D01*
X123420190Y-58237380D02*
X123420190Y-57237380D01*
X123515428Y-57380238D01*
X123610666Y-57475476D01*
X123705904Y-57523095D01*
X122229714Y-57237380D02*
X122705904Y-57237380D01*
X122753523Y-57713571D01*
X122705904Y-57665952D01*
X122610666Y-57618333D01*
X122372571Y-57618333D01*
X122277333Y-57665952D01*
X122229714Y-57713571D01*
X122182095Y-57808809D01*
X122182095Y-58046904D01*
X122229714Y-58142142D01*
X122277333Y-58189761D01*
X122372571Y-58237380D01*
X122610666Y-58237380D01*
X122705904Y-58189761D01*
X122753523Y-58142142D01*
X131071857Y-109832380D02*
X131405190Y-109356190D01*
X131643285Y-109832380D02*
X131643285Y-108832380D01*
X131262333Y-108832380D01*
X131167095Y-108880000D01*
X131119476Y-108927619D01*
X131071857Y-109022857D01*
X131071857Y-109165714D01*
X131119476Y-109260952D01*
X131167095Y-109308571D01*
X131262333Y-109356190D01*
X131643285Y-109356190D01*
X130119476Y-109832380D02*
X130690904Y-109832380D01*
X130405190Y-109832380D02*
X130405190Y-108832380D01*
X130500428Y-108975238D01*
X130595666Y-109070476D01*
X130690904Y-109118095D01*
X129262333Y-109165714D02*
X129262333Y-109832380D01*
X129500428Y-108784761D02*
X129738523Y-109499047D01*
X129119476Y-109499047D01*
X131071857Y-107038380D02*
X131405190Y-106562190D01*
X131643285Y-107038380D02*
X131643285Y-106038380D01*
X131262333Y-106038380D01*
X131167095Y-106086000D01*
X131119476Y-106133619D01*
X131071857Y-106228857D01*
X131071857Y-106371714D01*
X131119476Y-106466952D01*
X131167095Y-106514571D01*
X131262333Y-106562190D01*
X131643285Y-106562190D01*
X130119476Y-107038380D02*
X130690904Y-107038380D01*
X130405190Y-107038380D02*
X130405190Y-106038380D01*
X130500428Y-106181238D01*
X130595666Y-106276476D01*
X130690904Y-106324095D01*
X129786142Y-106038380D02*
X129167095Y-106038380D01*
X129500428Y-106419333D01*
X129357571Y-106419333D01*
X129262333Y-106466952D01*
X129214714Y-106514571D01*
X129167095Y-106609809D01*
X129167095Y-106847904D01*
X129214714Y-106943142D01*
X129262333Y-106990761D01*
X129357571Y-107038380D01*
X129643285Y-107038380D01*
X129738523Y-106990761D01*
X129786142Y-106943142D01*
X120086857Y-61158380D02*
X120420190Y-60682190D01*
X120658285Y-61158380D02*
X120658285Y-60158380D01*
X120277333Y-60158380D01*
X120182095Y-60206000D01*
X120134476Y-60253619D01*
X120086857Y-60348857D01*
X120086857Y-60491714D01*
X120134476Y-60586952D01*
X120182095Y-60634571D01*
X120277333Y-60682190D01*
X120658285Y-60682190D01*
X119134476Y-61158380D02*
X119705904Y-61158380D01*
X119420190Y-61158380D02*
X119420190Y-60158380D01*
X119515428Y-60301238D01*
X119610666Y-60396476D01*
X119705904Y-60444095D01*
X118753523Y-60253619D02*
X118705904Y-60206000D01*
X118610666Y-60158380D01*
X118372571Y-60158380D01*
X118277333Y-60206000D01*
X118229714Y-60253619D01*
X118182095Y-60348857D01*
X118182095Y-60444095D01*
X118229714Y-60586952D01*
X118801142Y-61158380D01*
X118182095Y-61158380D01*
X120149857Y-103482380D02*
X120483190Y-103006190D01*
X120721285Y-103482380D02*
X120721285Y-102482380D01*
X120340333Y-102482380D01*
X120245095Y-102530000D01*
X120197476Y-102577619D01*
X120149857Y-102672857D01*
X120149857Y-102815714D01*
X120197476Y-102910952D01*
X120245095Y-102958571D01*
X120340333Y-103006190D01*
X120721285Y-103006190D01*
X119197476Y-103482380D02*
X119768904Y-103482380D01*
X119483190Y-103482380D02*
X119483190Y-102482380D01*
X119578428Y-102625238D01*
X119673666Y-102720476D01*
X119768904Y-102768095D01*
X118245095Y-103482380D02*
X118816523Y-103482380D01*
X118530809Y-103482380D02*
X118530809Y-102482380D01*
X118626047Y-102625238D01*
X118721285Y-102720476D01*
X118816523Y-102768095D01*
X135135857Y-121008380D02*
X135469190Y-120532190D01*
X135707285Y-121008380D02*
X135707285Y-120008380D01*
X135326333Y-120008380D01*
X135231095Y-120056000D01*
X135183476Y-120103619D01*
X135135857Y-120198857D01*
X135135857Y-120341714D01*
X135183476Y-120436952D01*
X135231095Y-120484571D01*
X135326333Y-120532190D01*
X135707285Y-120532190D01*
X134183476Y-121008380D02*
X134754904Y-121008380D01*
X134469190Y-121008380D02*
X134469190Y-120008380D01*
X134564428Y-120151238D01*
X134659666Y-120246476D01*
X134754904Y-120294095D01*
X133564428Y-120008380D02*
X133469190Y-120008380D01*
X133373952Y-120056000D01*
X133326333Y-120103619D01*
X133278714Y-120198857D01*
X133231095Y-120389333D01*
X133231095Y-120627428D01*
X133278714Y-120817904D01*
X133326333Y-120913142D01*
X133373952Y-120960761D01*
X133469190Y-121008380D01*
X133564428Y-121008380D01*
X133659666Y-120960761D01*
X133707285Y-120913142D01*
X133754904Y-120817904D01*
X133802523Y-120627428D01*
X133802523Y-120389333D01*
X133754904Y-120198857D01*
X133707285Y-120103619D01*
X133659666Y-120056000D01*
X133564428Y-120008380D01*
X119546666Y-76558380D02*
X119880000Y-76082190D01*
X120118095Y-76558380D02*
X120118095Y-75558380D01*
X119737142Y-75558380D01*
X119641904Y-75606000D01*
X119594285Y-75653619D01*
X119546666Y-75748857D01*
X119546666Y-75891714D01*
X119594285Y-75986952D01*
X119641904Y-76034571D01*
X119737142Y-76082190D01*
X120118095Y-76082190D01*
X118975238Y-75986952D02*
X119070476Y-75939333D01*
X119118095Y-75891714D01*
X119165714Y-75796476D01*
X119165714Y-75748857D01*
X119118095Y-75653619D01*
X119070476Y-75606000D01*
X118975238Y-75558380D01*
X118784761Y-75558380D01*
X118689523Y-75606000D01*
X118641904Y-75653619D01*
X118594285Y-75748857D01*
X118594285Y-75796476D01*
X118641904Y-75891714D01*
X118689523Y-75939333D01*
X118784761Y-75986952D01*
X118975238Y-75986952D01*
X119070476Y-76034571D01*
X119118095Y-76082190D01*
X119165714Y-76177428D01*
X119165714Y-76367904D01*
X119118095Y-76463142D01*
X119070476Y-76510761D01*
X118975238Y-76558380D01*
X118784761Y-76558380D01*
X118689523Y-76510761D01*
X118641904Y-76463142D01*
X118594285Y-76367904D01*
X118594285Y-76177428D01*
X118641904Y-76082190D01*
X118689523Y-76034571D01*
X118784761Y-75986952D01*
X123610666Y-76558380D02*
X123944000Y-76082190D01*
X124182095Y-76558380D02*
X124182095Y-75558380D01*
X123801142Y-75558380D01*
X123705904Y-75606000D01*
X123658285Y-75653619D01*
X123610666Y-75748857D01*
X123610666Y-75891714D01*
X123658285Y-75986952D01*
X123705904Y-76034571D01*
X123801142Y-76082190D01*
X124182095Y-76082190D01*
X123277333Y-75558380D02*
X122610666Y-75558380D01*
X123039238Y-76558380D01*
X134659666Y-118214380D02*
X134993000Y-117738190D01*
X135231095Y-118214380D02*
X135231095Y-117214380D01*
X134850142Y-117214380D01*
X134754904Y-117262000D01*
X134707285Y-117309619D01*
X134659666Y-117404857D01*
X134659666Y-117547714D01*
X134707285Y-117642952D01*
X134754904Y-117690571D01*
X134850142Y-117738190D01*
X135231095Y-117738190D01*
X133802523Y-117214380D02*
X133993000Y-117214380D01*
X134088238Y-117262000D01*
X134135857Y-117309619D01*
X134231095Y-117452476D01*
X134278714Y-117642952D01*
X134278714Y-118023904D01*
X134231095Y-118119142D01*
X134183476Y-118166761D01*
X134088238Y-118214380D01*
X133897761Y-118214380D01*
X133802523Y-118166761D01*
X133754904Y-118119142D01*
X133707285Y-118023904D01*
X133707285Y-117785809D01*
X133754904Y-117690571D01*
X133802523Y-117642952D01*
X133897761Y-117595333D01*
X134088238Y-117595333D01*
X134183476Y-117642952D01*
X134231095Y-117690571D01*
X134278714Y-117785809D01*
X119673666Y-100688380D02*
X120007000Y-100212190D01*
X120245095Y-100688380D02*
X120245095Y-99688380D01*
X119864142Y-99688380D01*
X119768904Y-99736000D01*
X119721285Y-99783619D01*
X119673666Y-99878857D01*
X119673666Y-100021714D01*
X119721285Y-100116952D01*
X119768904Y-100164571D01*
X119864142Y-100212190D01*
X120245095Y-100212190D01*
X118768904Y-99688380D02*
X119245095Y-99688380D01*
X119292714Y-100164571D01*
X119245095Y-100116952D01*
X119149857Y-100069333D01*
X118911761Y-100069333D01*
X118816523Y-100116952D01*
X118768904Y-100164571D01*
X118721285Y-100259809D01*
X118721285Y-100497904D01*
X118768904Y-100593142D01*
X118816523Y-100640761D01*
X118911761Y-100688380D01*
X119149857Y-100688380D01*
X119245095Y-100640761D01*
X119292714Y-100593142D01*
X123737666Y-103482380D02*
X124071000Y-103006190D01*
X124309095Y-103482380D02*
X124309095Y-102482380D01*
X123928142Y-102482380D01*
X123832904Y-102530000D01*
X123785285Y-102577619D01*
X123737666Y-102672857D01*
X123737666Y-102815714D01*
X123785285Y-102910952D01*
X123832904Y-102958571D01*
X123928142Y-103006190D01*
X124309095Y-103006190D01*
X122880523Y-102815714D02*
X122880523Y-103482380D01*
X123118619Y-102434761D02*
X123356714Y-103149047D01*
X122737666Y-103149047D01*
X123737666Y-97828380D02*
X124071000Y-97352190D01*
X124309095Y-97828380D02*
X124309095Y-96828380D01*
X123928142Y-96828380D01*
X123832904Y-96876000D01*
X123785285Y-96923619D01*
X123737666Y-97018857D01*
X123737666Y-97161714D01*
X123785285Y-97256952D01*
X123832904Y-97304571D01*
X123928142Y-97352190D01*
X124309095Y-97352190D01*
X123404333Y-96828380D02*
X122785285Y-96828380D01*
X123118619Y-97209333D01*
X122975761Y-97209333D01*
X122880523Y-97256952D01*
X122832904Y-97304571D01*
X122785285Y-97399809D01*
X122785285Y-97637904D01*
X122832904Y-97733142D01*
X122880523Y-97780761D01*
X122975761Y-97828380D01*
X123261476Y-97828380D01*
X123356714Y-97780761D01*
X123404333Y-97733142D01*
X119673666Y-95100380D02*
X120007000Y-94624190D01*
X120245095Y-95100380D02*
X120245095Y-94100380D01*
X119864142Y-94100380D01*
X119768904Y-94148000D01*
X119721285Y-94195619D01*
X119673666Y-94290857D01*
X119673666Y-94433714D01*
X119721285Y-94528952D01*
X119768904Y-94576571D01*
X119864142Y-94624190D01*
X120245095Y-94624190D01*
X119292714Y-94195619D02*
X119245095Y-94148000D01*
X119149857Y-94100380D01*
X118911761Y-94100380D01*
X118816523Y-94148000D01*
X118768904Y-94195619D01*
X118721285Y-94290857D01*
X118721285Y-94386095D01*
X118768904Y-94528952D01*
X119340333Y-95100380D01*
X118721285Y-95100380D01*
X119673666Y-97894380D02*
X120007000Y-97418190D01*
X120245095Y-97894380D02*
X120245095Y-96894380D01*
X119864142Y-96894380D01*
X119768904Y-96942000D01*
X119721285Y-96989619D01*
X119673666Y-97084857D01*
X119673666Y-97227714D01*
X119721285Y-97322952D01*
X119768904Y-97370571D01*
X119864142Y-97418190D01*
X120245095Y-97418190D01*
X118721285Y-97894380D02*
X119292714Y-97894380D01*
X119007000Y-97894380D02*
X119007000Y-96894380D01*
X119102238Y-97037238D01*
X119197476Y-97132476D01*
X119292714Y-97180095D01*
X119602238Y-55284619D02*
X119697476Y-55237000D01*
X119792714Y-55141761D01*
X119935571Y-54998904D01*
X120030809Y-54951285D01*
X120126047Y-54951285D01*
X120078428Y-55189380D02*
X120173666Y-55141761D01*
X120268904Y-55046523D01*
X120316523Y-54856047D01*
X120316523Y-54522714D01*
X120268904Y-54332238D01*
X120173666Y-54237000D01*
X120078428Y-54189380D01*
X119887952Y-54189380D01*
X119792714Y-54237000D01*
X119697476Y-54332238D01*
X119649857Y-54522714D01*
X119649857Y-54856047D01*
X119697476Y-55046523D01*
X119792714Y-55141761D01*
X119887952Y-55189380D01*
X120078428Y-55189380D01*
X119316523Y-54189380D02*
X118649857Y-54189380D01*
X119078428Y-55189380D01*
X134461238Y-55284619D02*
X134556476Y-55237000D01*
X134651714Y-55141761D01*
X134794571Y-54998904D01*
X134889809Y-54951285D01*
X134985047Y-54951285D01*
X134937428Y-55189380D02*
X135032666Y-55141761D01*
X135127904Y-55046523D01*
X135175523Y-54856047D01*
X135175523Y-54522714D01*
X135127904Y-54332238D01*
X135032666Y-54237000D01*
X134937428Y-54189380D01*
X134746952Y-54189380D01*
X134651714Y-54237000D01*
X134556476Y-54332238D01*
X134508857Y-54522714D01*
X134508857Y-54856047D01*
X134556476Y-55046523D01*
X134651714Y-55141761D01*
X134746952Y-55189380D01*
X134937428Y-55189380D01*
X133651714Y-54189380D02*
X133842190Y-54189380D01*
X133937428Y-54237000D01*
X133985047Y-54284619D01*
X134080285Y-54427476D01*
X134127904Y-54617952D01*
X134127904Y-54998904D01*
X134080285Y-55094142D01*
X134032666Y-55141761D01*
X133937428Y-55189380D01*
X133746952Y-55189380D01*
X133651714Y-55141761D01*
X133604095Y-55094142D01*
X133556476Y-54998904D01*
X133556476Y-54760809D01*
X133604095Y-54665571D01*
X133651714Y-54617952D01*
X133746952Y-54570333D01*
X133937428Y-54570333D01*
X134032666Y-54617952D01*
X134080285Y-54665571D01*
X134127904Y-54760809D01*
X126460238Y-79287619D02*
X126555476Y-79240000D01*
X126650714Y-79144761D01*
X126793571Y-79001904D01*
X126888809Y-78954285D01*
X126984047Y-78954285D01*
X126936428Y-79192380D02*
X127031666Y-79144761D01*
X127126904Y-79049523D01*
X127174523Y-78859047D01*
X127174523Y-78525714D01*
X127126904Y-78335238D01*
X127031666Y-78240000D01*
X126936428Y-78192380D01*
X126745952Y-78192380D01*
X126650714Y-78240000D01*
X126555476Y-78335238D01*
X126507857Y-78525714D01*
X126507857Y-78859047D01*
X126555476Y-79049523D01*
X126650714Y-79144761D01*
X126745952Y-79192380D01*
X126936428Y-79192380D01*
X125603095Y-78192380D02*
X126079285Y-78192380D01*
X126126904Y-78668571D01*
X126079285Y-78620952D01*
X125984047Y-78573333D01*
X125745952Y-78573333D01*
X125650714Y-78620952D01*
X125603095Y-78668571D01*
X125555476Y-78763809D01*
X125555476Y-79001904D01*
X125603095Y-79097142D01*
X125650714Y-79144761D01*
X125745952Y-79192380D01*
X125984047Y-79192380D01*
X126079285Y-79144761D01*
X126126904Y-79097142D01*
X119729238Y-66968619D02*
X119824476Y-66921000D01*
X119919714Y-66825761D01*
X120062571Y-66682904D01*
X120157809Y-66635285D01*
X120253047Y-66635285D01*
X120205428Y-66873380D02*
X120300666Y-66825761D01*
X120395904Y-66730523D01*
X120443523Y-66540047D01*
X120443523Y-66206714D01*
X120395904Y-66016238D01*
X120300666Y-65921000D01*
X120205428Y-65873380D01*
X120014952Y-65873380D01*
X119919714Y-65921000D01*
X119824476Y-66016238D01*
X119776857Y-66206714D01*
X119776857Y-66540047D01*
X119824476Y-66730523D01*
X119919714Y-66825761D01*
X120014952Y-66873380D01*
X120205428Y-66873380D01*
X118919714Y-66206714D02*
X118919714Y-66873380D01*
X119157809Y-65825761D02*
X119395904Y-66540047D01*
X118776857Y-66540047D01*
X126460238Y-110148619D02*
X126555476Y-110101000D01*
X126650714Y-110005761D01*
X126793571Y-109862904D01*
X126888809Y-109815285D01*
X126984047Y-109815285D01*
X126936428Y-110053380D02*
X127031666Y-110005761D01*
X127126904Y-109910523D01*
X127174523Y-109720047D01*
X127174523Y-109386714D01*
X127126904Y-109196238D01*
X127031666Y-109101000D01*
X126936428Y-109053380D01*
X126745952Y-109053380D01*
X126650714Y-109101000D01*
X126555476Y-109196238D01*
X126507857Y-109386714D01*
X126507857Y-109720047D01*
X126555476Y-109910523D01*
X126650714Y-110005761D01*
X126745952Y-110053380D01*
X126936428Y-110053380D01*
X126174523Y-109053380D02*
X125555476Y-109053380D01*
X125888809Y-109434333D01*
X125745952Y-109434333D01*
X125650714Y-109481952D01*
X125603095Y-109529571D01*
X125555476Y-109624809D01*
X125555476Y-109862904D01*
X125603095Y-109958142D01*
X125650714Y-110005761D01*
X125745952Y-110053380D01*
X126031666Y-110053380D01*
X126126904Y-110005761D01*
X126174523Y-109958142D01*
X126587238Y-123864619D02*
X126682476Y-123817000D01*
X126777714Y-123721761D01*
X126920571Y-123578904D01*
X127015809Y-123531285D01*
X127111047Y-123531285D01*
X127063428Y-123769380D02*
X127158666Y-123721761D01*
X127253904Y-123626523D01*
X127301523Y-123436047D01*
X127301523Y-123102714D01*
X127253904Y-122912238D01*
X127158666Y-122817000D01*
X127063428Y-122769380D01*
X126872952Y-122769380D01*
X126777714Y-122817000D01*
X126682476Y-122912238D01*
X126634857Y-123102714D01*
X126634857Y-123436047D01*
X126682476Y-123626523D01*
X126777714Y-123721761D01*
X126872952Y-123769380D01*
X127063428Y-123769380D01*
X126253904Y-122864619D02*
X126206285Y-122817000D01*
X126111047Y-122769380D01*
X125872952Y-122769380D01*
X125777714Y-122817000D01*
X125730095Y-122864619D01*
X125682476Y-122959857D01*
X125682476Y-123055095D01*
X125730095Y-123197952D01*
X126301523Y-123769380D01*
X125682476Y-123769380D01*
X119729238Y-71667619D02*
X119824476Y-71620000D01*
X119919714Y-71524761D01*
X120062571Y-71381904D01*
X120157809Y-71334285D01*
X120253047Y-71334285D01*
X120205428Y-71572380D02*
X120300666Y-71524761D01*
X120395904Y-71429523D01*
X120443523Y-71239047D01*
X120443523Y-70905714D01*
X120395904Y-70715238D01*
X120300666Y-70620000D01*
X120205428Y-70572380D01*
X120014952Y-70572380D01*
X119919714Y-70620000D01*
X119824476Y-70715238D01*
X119776857Y-70905714D01*
X119776857Y-71239047D01*
X119824476Y-71429523D01*
X119919714Y-71524761D01*
X120014952Y-71572380D01*
X120205428Y-71572380D01*
X118824476Y-71572380D02*
X119395904Y-71572380D01*
X119110190Y-71572380D02*
X119110190Y-70572380D01*
X119205428Y-70715238D01*
X119300666Y-70810476D01*
X119395904Y-70858095D01*
X135707333Y-135666571D02*
X136040666Y-135666571D01*
X136040666Y-136190380D02*
X136040666Y-135190380D01*
X135564476Y-135190380D01*
X134850190Y-135666571D02*
X134707333Y-135714190D01*
X134659714Y-135761809D01*
X134612095Y-135857047D01*
X134612095Y-135999904D01*
X134659714Y-136095142D01*
X134707333Y-136142761D01*
X134802571Y-136190380D01*
X135183523Y-136190380D01*
X135183523Y-135190380D01*
X134850190Y-135190380D01*
X134754952Y-135238000D01*
X134707333Y-135285619D01*
X134659714Y-135380857D01*
X134659714Y-135476095D01*
X134707333Y-135571333D01*
X134754952Y-135618952D01*
X134850190Y-135666571D01*
X135183523Y-135666571D01*
X134231142Y-135285619D02*
X134183523Y-135238000D01*
X134088285Y-135190380D01*
X133850190Y-135190380D01*
X133754952Y-135238000D01*
X133707333Y-135285619D01*
X133659714Y-135380857D01*
X133659714Y-135476095D01*
X133707333Y-135618952D01*
X134278761Y-136190380D01*
X133659714Y-136190380D01*
X119799333Y-135564571D02*
X120132666Y-135564571D01*
X120132666Y-136088380D02*
X120132666Y-135088380D01*
X119656476Y-135088380D01*
X118942190Y-135564571D02*
X118799333Y-135612190D01*
X118751714Y-135659809D01*
X118704095Y-135755047D01*
X118704095Y-135897904D01*
X118751714Y-135993142D01*
X118799333Y-136040761D01*
X118894571Y-136088380D01*
X119275523Y-136088380D01*
X119275523Y-135088380D01*
X118942190Y-135088380D01*
X118846952Y-135136000D01*
X118799333Y-135183619D01*
X118751714Y-135278857D01*
X118751714Y-135374095D01*
X118799333Y-135469333D01*
X118846952Y-135516952D01*
X118942190Y-135564571D01*
X119275523Y-135564571D01*
X117751714Y-136088380D02*
X118323142Y-136088380D01*
X118037428Y-136088380D02*
X118037428Y-135088380D01*
X118132666Y-135231238D01*
X118227904Y-135326476D01*
X118323142Y-135374095D01*
X135231095Y-101417380D02*
X135231095Y-100417380D01*
X134993000Y-100417380D01*
X134850142Y-100465000D01*
X134754904Y-100560238D01*
X134707285Y-100655476D01*
X134659666Y-100845952D01*
X134659666Y-100988809D01*
X134707285Y-101179285D01*
X134754904Y-101274523D01*
X134850142Y-101369761D01*
X134993000Y-101417380D01*
X135231095Y-101417380D01*
X134326333Y-100417380D02*
X133707285Y-100417380D01*
X134040619Y-100798333D01*
X133897761Y-100798333D01*
X133802523Y-100845952D01*
X133754904Y-100893571D01*
X133707285Y-100988809D01*
X133707285Y-101226904D01*
X133754904Y-101322142D01*
X133802523Y-101369761D01*
X133897761Y-101417380D01*
X134183476Y-101417380D01*
X134278714Y-101369761D01*
X134326333Y-101322142D01*
X124563095Y-68651380D02*
X124563095Y-67651380D01*
X124325000Y-67651380D01*
X124182142Y-67699000D01*
X124086904Y-67794238D01*
X124039285Y-67889476D01*
X123991666Y-68079952D01*
X123991666Y-68222809D01*
X124039285Y-68413285D01*
X124086904Y-68508523D01*
X124182142Y-68603761D01*
X124325000Y-68651380D01*
X124563095Y-68651380D01*
X123610714Y-67746619D02*
X123563095Y-67699000D01*
X123467857Y-67651380D01*
X123229761Y-67651380D01*
X123134523Y-67699000D01*
X123086904Y-67746619D01*
X123039285Y-67841857D01*
X123039285Y-67937095D01*
X123086904Y-68079952D01*
X123658333Y-68651380D01*
X123039285Y-68651380D01*
X125960095Y-119737380D02*
X125960095Y-118737380D01*
X125722000Y-118737380D01*
X125579142Y-118785000D01*
X125483904Y-118880238D01*
X125436285Y-118975476D01*
X125388666Y-119165952D01*
X125388666Y-119308809D01*
X125436285Y-119499285D01*
X125483904Y-119594523D01*
X125579142Y-119689761D01*
X125722000Y-119737380D01*
X125960095Y-119737380D01*
X124436285Y-119737380D02*
X125007714Y-119737380D01*
X124722000Y-119737380D02*
X124722000Y-118737380D01*
X124817238Y-118880238D01*
X124912476Y-118975476D01*
X125007714Y-119023095D01*
X129801857Y-62562142D02*
X129849476Y-62609761D01*
X129992333Y-62657380D01*
X130087571Y-62657380D01*
X130230428Y-62609761D01*
X130325666Y-62514523D01*
X130373285Y-62419285D01*
X130420904Y-62228809D01*
X130420904Y-62085952D01*
X130373285Y-61895476D01*
X130325666Y-61800238D01*
X130230428Y-61705000D01*
X130087571Y-61657380D01*
X129992333Y-61657380D01*
X129849476Y-61705000D01*
X129801857Y-61752619D01*
X128849476Y-62657380D02*
X129420904Y-62657380D01*
X129135190Y-62657380D02*
X129135190Y-61657380D01*
X129230428Y-61800238D01*
X129325666Y-61895476D01*
X129420904Y-61943095D01*
X128516142Y-61657380D02*
X127897095Y-61657380D01*
X128230428Y-62038333D01*
X128087571Y-62038333D01*
X127992333Y-62085952D01*
X127944714Y-62133571D01*
X127897095Y-62228809D01*
X127897095Y-62466904D01*
X127944714Y-62562142D01*
X127992333Y-62609761D01*
X128087571Y-62657380D01*
X128373285Y-62657380D01*
X128468523Y-62609761D01*
X128516142Y-62562142D01*
X127578857Y-51411142D02*
X127626476Y-51458761D01*
X127769333Y-51506380D01*
X127864571Y-51506380D01*
X128007428Y-51458761D01*
X128102666Y-51363523D01*
X128150285Y-51268285D01*
X128197904Y-51077809D01*
X128197904Y-50934952D01*
X128150285Y-50744476D01*
X128102666Y-50649238D01*
X128007428Y-50554000D01*
X127864571Y-50506380D01*
X127769333Y-50506380D01*
X127626476Y-50554000D01*
X127578857Y-50601619D01*
X126626476Y-51506380D02*
X127197904Y-51506380D01*
X126912190Y-51506380D02*
X126912190Y-50506380D01*
X127007428Y-50649238D01*
X127102666Y-50744476D01*
X127197904Y-50792095D01*
X126245523Y-50601619D02*
X126197904Y-50554000D01*
X126102666Y-50506380D01*
X125864571Y-50506380D01*
X125769333Y-50554000D01*
X125721714Y-50601619D01*
X125674095Y-50696857D01*
X125674095Y-50792095D01*
X125721714Y-50934952D01*
X126293142Y-51506380D01*
X125674095Y-51506380D01*
X124213857Y-115259142D02*
X124261476Y-115306761D01*
X124404333Y-115354380D01*
X124499571Y-115354380D01*
X124642428Y-115306761D01*
X124737666Y-115211523D01*
X124785285Y-115116285D01*
X124832904Y-114925809D01*
X124832904Y-114782952D01*
X124785285Y-114592476D01*
X124737666Y-114497238D01*
X124642428Y-114402000D01*
X124499571Y-114354380D01*
X124404333Y-114354380D01*
X124261476Y-114402000D01*
X124213857Y-114449619D01*
X123261476Y-115354380D02*
X123832904Y-115354380D01*
X123547190Y-115354380D02*
X123547190Y-114354380D01*
X123642428Y-114497238D01*
X123737666Y-114592476D01*
X123832904Y-114640095D01*
X122309095Y-115354380D02*
X122880523Y-115354380D01*
X122594809Y-115354380D02*
X122594809Y-114354380D01*
X122690047Y-114497238D01*
X122785285Y-114592476D01*
X122880523Y-114640095D01*
X131325857Y-74939142D02*
X131373476Y-74986761D01*
X131516333Y-75034380D01*
X131611571Y-75034380D01*
X131754428Y-74986761D01*
X131849666Y-74891523D01*
X131897285Y-74796285D01*
X131944904Y-74605809D01*
X131944904Y-74462952D01*
X131897285Y-74272476D01*
X131849666Y-74177238D01*
X131754428Y-74082000D01*
X131611571Y-74034380D01*
X131516333Y-74034380D01*
X131373476Y-74082000D01*
X131325857Y-74129619D01*
X130373476Y-75034380D02*
X130944904Y-75034380D01*
X130659190Y-75034380D02*
X130659190Y-74034380D01*
X130754428Y-74177238D01*
X130849666Y-74272476D01*
X130944904Y-74320095D01*
X129754428Y-74034380D02*
X129659190Y-74034380D01*
X129563952Y-74082000D01*
X129516333Y-74129619D01*
X129468714Y-74224857D01*
X129421095Y-74415333D01*
X129421095Y-74653428D01*
X129468714Y-74843904D01*
X129516333Y-74939142D01*
X129563952Y-74986761D01*
X129659190Y-75034380D01*
X129754428Y-75034380D01*
X129849666Y-74986761D01*
X129897285Y-74939142D01*
X129944904Y-74843904D01*
X129992523Y-74653428D01*
X129992523Y-74415333D01*
X129944904Y-74224857D01*
X129897285Y-74129619D01*
X129849666Y-74082000D01*
X129754428Y-74034380D01*
X134786666Y-74906142D02*
X134834285Y-74953761D01*
X134977142Y-75001380D01*
X135072380Y-75001380D01*
X135215238Y-74953761D01*
X135310476Y-74858523D01*
X135358095Y-74763285D01*
X135405714Y-74572809D01*
X135405714Y-74429952D01*
X135358095Y-74239476D01*
X135310476Y-74144238D01*
X135215238Y-74049000D01*
X135072380Y-74001380D01*
X134977142Y-74001380D01*
X134834285Y-74049000D01*
X134786666Y-74096619D01*
X134310476Y-75001380D02*
X134120000Y-75001380D01*
X134024761Y-74953761D01*
X133977142Y-74906142D01*
X133881904Y-74763285D01*
X133834285Y-74572809D01*
X133834285Y-74191857D01*
X133881904Y-74096619D01*
X133929523Y-74049000D01*
X134024761Y-74001380D01*
X134215238Y-74001380D01*
X134310476Y-74049000D01*
X134358095Y-74096619D01*
X134405714Y-74191857D01*
X134405714Y-74429952D01*
X134358095Y-74525190D01*
X134310476Y-74572809D01*
X134215238Y-74620428D01*
X134024761Y-74620428D01*
X133929523Y-74572809D01*
X133881904Y-74525190D01*
X133834285Y-74429952D01*
X123610666Y-60903142D02*
X123658285Y-60950761D01*
X123801142Y-60998380D01*
X123896380Y-60998380D01*
X124039238Y-60950761D01*
X124134476Y-60855523D01*
X124182095Y-60760285D01*
X124229714Y-60569809D01*
X124229714Y-60426952D01*
X124182095Y-60236476D01*
X124134476Y-60141238D01*
X124039238Y-60046000D01*
X123896380Y-59998380D01*
X123801142Y-59998380D01*
X123658285Y-60046000D01*
X123610666Y-60093619D01*
X123039238Y-60426952D02*
X123134476Y-60379333D01*
X123182095Y-60331714D01*
X123229714Y-60236476D01*
X123229714Y-60188857D01*
X123182095Y-60093619D01*
X123134476Y-60046000D01*
X123039238Y-59998380D01*
X122848761Y-59998380D01*
X122753523Y-60046000D01*
X122705904Y-60093619D01*
X122658285Y-60188857D01*
X122658285Y-60236476D01*
X122705904Y-60331714D01*
X122753523Y-60379333D01*
X122848761Y-60426952D01*
X123039238Y-60426952D01*
X123134476Y-60474571D01*
X123182095Y-60522190D01*
X123229714Y-60617428D01*
X123229714Y-60807904D01*
X123182095Y-60903142D01*
X123134476Y-60950761D01*
X123039238Y-60998380D01*
X122848761Y-60998380D01*
X122753523Y-60950761D01*
X122705904Y-60903142D01*
X122658285Y-60807904D01*
X122658285Y-60617428D01*
X122705904Y-60522190D01*
X122753523Y-60474571D01*
X122848761Y-60426952D01*
X123737666Y-94972142D02*
X123785285Y-95019761D01*
X123928142Y-95067380D01*
X124023380Y-95067380D01*
X124166238Y-95019761D01*
X124261476Y-94924523D01*
X124309095Y-94829285D01*
X124356714Y-94638809D01*
X124356714Y-94495952D01*
X124309095Y-94305476D01*
X124261476Y-94210238D01*
X124166238Y-94115000D01*
X124023380Y-94067380D01*
X123928142Y-94067380D01*
X123785285Y-94115000D01*
X123737666Y-94162619D01*
X123404333Y-94067380D02*
X122737666Y-94067380D01*
X123166238Y-95067380D01*
X134786666Y-86684142D02*
X134834285Y-86731761D01*
X134977142Y-86779380D01*
X135072380Y-86779380D01*
X135215238Y-86731761D01*
X135310476Y-86636523D01*
X135358095Y-86541285D01*
X135405714Y-86350809D01*
X135405714Y-86207952D01*
X135358095Y-86017476D01*
X135310476Y-85922238D01*
X135215238Y-85827000D01*
X135072380Y-85779380D01*
X134977142Y-85779380D01*
X134834285Y-85827000D01*
X134786666Y-85874619D01*
X133929523Y-85779380D02*
X134120000Y-85779380D01*
X134215238Y-85827000D01*
X134262857Y-85874619D01*
X134358095Y-86017476D01*
X134405714Y-86207952D01*
X134405714Y-86588904D01*
X134358095Y-86684142D01*
X134310476Y-86731761D01*
X134215238Y-86779380D01*
X134024761Y-86779380D01*
X133929523Y-86731761D01*
X133881904Y-86684142D01*
X133834285Y-86588904D01*
X133834285Y-86350809D01*
X133881904Y-86255571D01*
X133929523Y-86207952D01*
X134024761Y-86160333D01*
X134215238Y-86160333D01*
X134310476Y-86207952D01*
X134358095Y-86255571D01*
X134405714Y-86350809D01*
X130595666Y-104083142D02*
X130643285Y-104130761D01*
X130786142Y-104178380D01*
X130881380Y-104178380D01*
X131024238Y-104130761D01*
X131119476Y-104035523D01*
X131167095Y-103940285D01*
X131214714Y-103749809D01*
X131214714Y-103606952D01*
X131167095Y-103416476D01*
X131119476Y-103321238D01*
X131024238Y-103226000D01*
X130881380Y-103178380D01*
X130786142Y-103178380D01*
X130643285Y-103226000D01*
X130595666Y-103273619D01*
X129690904Y-103178380D02*
X130167095Y-103178380D01*
X130214714Y-103654571D01*
X130167095Y-103606952D01*
X130071857Y-103559333D01*
X129833761Y-103559333D01*
X129738523Y-103606952D01*
X129690904Y-103654571D01*
X129643285Y-103749809D01*
X129643285Y-103987904D01*
X129690904Y-104083142D01*
X129738523Y-104130761D01*
X129833761Y-104178380D01*
X130071857Y-104178380D01*
X130167095Y-104130761D01*
X130214714Y-104083142D01*
X132144666Y-128695142D02*
X132192285Y-128742761D01*
X132335142Y-128790380D01*
X132430380Y-128790380D01*
X132573238Y-128742761D01*
X132668476Y-128647523D01*
X132716095Y-128552285D01*
X132763714Y-128361809D01*
X132763714Y-128218952D01*
X132716095Y-128028476D01*
X132668476Y-127933238D01*
X132573238Y-127838000D01*
X132430380Y-127790380D01*
X132335142Y-127790380D01*
X132192285Y-127838000D01*
X132144666Y-127885619D01*
X131287523Y-128123714D02*
X131287523Y-128790380D01*
X131525619Y-127742761D02*
X131763714Y-128457047D01*
X131144666Y-128457047D01*
X122289666Y-128746142D02*
X122337285Y-128793761D01*
X122480142Y-128841380D01*
X122575380Y-128841380D01*
X122718238Y-128793761D01*
X122813476Y-128698523D01*
X122861095Y-128603285D01*
X122908714Y-128412809D01*
X122908714Y-128269952D01*
X122861095Y-128079476D01*
X122813476Y-127984238D01*
X122718238Y-127889000D01*
X122575380Y-127841380D01*
X122480142Y-127841380D01*
X122337285Y-127889000D01*
X122289666Y-127936619D01*
X121956333Y-127841380D02*
X121337285Y-127841380D01*
X121670619Y-128222333D01*
X121527761Y-128222333D01*
X121432523Y-128269952D01*
X121384904Y-128317571D01*
X121337285Y-128412809D01*
X121337285Y-128650904D01*
X121384904Y-128746142D01*
X121432523Y-128793761D01*
X121527761Y-128841380D01*
X121813476Y-128841380D01*
X121908714Y-128793761D01*
X121956333Y-128746142D01*
X119610666Y-63857142D02*
X119658285Y-63904761D01*
X119801142Y-63952380D01*
X119896380Y-63952380D01*
X120039238Y-63904761D01*
X120134476Y-63809523D01*
X120182095Y-63714285D01*
X120229714Y-63523809D01*
X120229714Y-63380952D01*
X120182095Y-63190476D01*
X120134476Y-63095238D01*
X120039238Y-63000000D01*
X119896380Y-62952380D01*
X119801142Y-62952380D01*
X119658285Y-63000000D01*
X119610666Y-63047619D01*
X119229714Y-63047619D02*
X119182095Y-63000000D01*
X119086857Y-62952380D01*
X118848761Y-62952380D01*
X118753523Y-63000000D01*
X118705904Y-63047619D01*
X118658285Y-63142857D01*
X118658285Y-63238095D01*
X118705904Y-63380952D01*
X119277333Y-63952380D01*
X118658285Y-63952380D01*
X130595666Y-118053142D02*
X130643285Y-118100761D01*
X130786142Y-118148380D01*
X130881380Y-118148380D01*
X131024238Y-118100761D01*
X131119476Y-118005523D01*
X131167095Y-117910285D01*
X131214714Y-117719809D01*
X131214714Y-117576952D01*
X131167095Y-117386476D01*
X131119476Y-117291238D01*
X131024238Y-117196000D01*
X130881380Y-117148380D01*
X130786142Y-117148380D01*
X130643285Y-117196000D01*
X130595666Y-117243619D01*
X129643285Y-118148380D02*
X130214714Y-118148380D01*
X129929000Y-118148380D02*
X129929000Y-117148380D01*
X130024238Y-117291238D01*
X130119476Y-117386476D01*
X130214714Y-117434095D01*
M02*
