G04 #@! TF.GenerationSoftware,KiCad,Pcbnew,(5.1.5)-3*
G04 #@! TF.CreationDate,2020-07-12T13:51:54+08:00*
G04 #@! TF.ProjectId,Kick-808,4b69636b-2d38-4303-982e-6b696361645f,rev?*
G04 #@! TF.SameCoordinates,Original*
G04 #@! TF.FileFunction,Soldermask,Top*
G04 #@! TF.FilePolarity,Negative*
%FSLAX46Y46*%
G04 Gerber Fmt 4.6, Leading zero omitted, Abs format (unit mm)*
G04 Created by KiCad (PCBNEW (5.1.5)-3) date 2020-07-12 13:51:54*
%MOMM*%
%LPD*%
G04 APERTURE LIST*
%ADD10C,0.100000*%
G04 APERTURE END LIST*
D10*
G36*
X130546822Y-148521313D02*
G01*
X130707241Y-148569976D01*
X130855077Y-148648995D01*
X130967024Y-148740868D01*
X130984659Y-148755341D01*
X131091004Y-148884922D01*
X131091005Y-148884924D01*
X131170024Y-149032758D01*
X131218687Y-149193177D01*
X131231000Y-149318196D01*
X131231000Y-150401803D01*
X131218687Y-150526823D01*
X131170024Y-150687242D01*
X131144456Y-150735076D01*
X131091004Y-150835078D01*
X130984659Y-150964659D01*
X130855078Y-151071004D01*
X130855076Y-151071005D01*
X130707242Y-151150024D01*
X130546823Y-151198687D01*
X130380000Y-151215117D01*
X130213178Y-151198687D01*
X130052759Y-151150024D01*
X129904925Y-151071005D01*
X129904923Y-151071004D01*
X129775342Y-150964659D01*
X129668997Y-150835078D01*
X129615545Y-150735076D01*
X129589977Y-150687242D01*
X129541314Y-150526823D01*
X129529001Y-150401804D01*
X129529000Y-149318197D01*
X129541313Y-149193178D01*
X129589976Y-149032759D01*
X129668995Y-148884923D01*
X129775341Y-148755341D01*
X129792978Y-148740867D01*
X129904922Y-148648996D01*
X129920310Y-148640771D01*
X130052758Y-148569976D01*
X130213177Y-148521313D01*
X130380000Y-148504883D01*
X130546822Y-148521313D01*
G37*
G36*
X122237022Y-148520590D02*
G01*
X122337681Y-148551125D01*
X122388012Y-148566392D01*
X122490761Y-148621313D01*
X122527164Y-148640771D01*
X122649133Y-148740867D01*
X122661011Y-148755341D01*
X122749229Y-148862835D01*
X122823608Y-149001987D01*
X122832942Y-149032758D01*
X122869410Y-149152977D01*
X122881000Y-149270655D01*
X122881000Y-150449345D01*
X122869410Y-150567023D01*
X122838875Y-150667682D01*
X122823608Y-150718013D01*
X122749229Y-150857165D01*
X122649133Y-150979133D01*
X122527165Y-151079229D01*
X122388013Y-151153608D01*
X122337682Y-151168875D01*
X122237023Y-151199410D01*
X122080000Y-151214875D01*
X121922978Y-151199410D01*
X121822319Y-151168875D01*
X121771988Y-151153608D01*
X121632836Y-151079229D01*
X121510868Y-150979133D01*
X121410772Y-150857165D01*
X121336393Y-150718013D01*
X121321126Y-150667682D01*
X121290591Y-150567023D01*
X121279001Y-150449345D01*
X121279000Y-149270656D01*
X121290590Y-149152978D01*
X121336392Y-149001989D01*
X121336392Y-149001988D01*
X121410771Y-148862836D01*
X121416922Y-148855341D01*
X121510867Y-148740867D01*
X121632835Y-148640771D01*
X121669238Y-148621313D01*
X121771987Y-148566392D01*
X121822318Y-148551125D01*
X121922977Y-148520590D01*
X122080000Y-148505125D01*
X122237022Y-148520590D01*
G37*
G36*
X133646822Y-148621313D02*
G01*
X133807241Y-148669976D01*
X133955077Y-148748995D01*
X134084659Y-148855341D01*
X134191004Y-148984922D01*
X134191005Y-148984924D01*
X134270024Y-149132758D01*
X134318687Y-149293177D01*
X134331000Y-149418196D01*
X134331000Y-150301803D01*
X134318687Y-150426822D01*
X134270024Y-150587242D01*
X134216574Y-150687239D01*
X134191004Y-150735078D01*
X134084659Y-150864659D01*
X133955078Y-150971004D01*
X133955076Y-150971005D01*
X133807242Y-151050024D01*
X133646823Y-151098687D01*
X133480000Y-151115117D01*
X133313178Y-151098687D01*
X133152759Y-151050024D01*
X133004925Y-150971005D01*
X133004923Y-150971004D01*
X132875342Y-150864659D01*
X132768997Y-150735078D01*
X132743427Y-150687239D01*
X132689977Y-150587242D01*
X132641314Y-150426823D01*
X132629000Y-150301803D01*
X132629000Y-149418197D01*
X132641313Y-149293178D01*
X132689976Y-149132759D01*
X132768995Y-148984923D01*
X132875341Y-148855341D01*
X132997191Y-148755341D01*
X133004922Y-148748996D01*
X133020130Y-148740867D01*
X133152758Y-148669976D01*
X133313177Y-148621313D01*
X133480000Y-148604883D01*
X133646822Y-148621313D01*
G37*
G36*
X130546822Y-136519313D02*
G01*
X130707241Y-136567976D01*
X130855077Y-136646995D01*
X130967024Y-136738868D01*
X130984659Y-136753341D01*
X131091004Y-136882922D01*
X131091005Y-136882924D01*
X131170024Y-137030758D01*
X131218687Y-137191177D01*
X131231000Y-137316196D01*
X131231000Y-138399803D01*
X131218687Y-138524823D01*
X131170024Y-138685242D01*
X131144456Y-138733076D01*
X131091004Y-138833078D01*
X130984659Y-138962659D01*
X130855078Y-139069004D01*
X130855076Y-139069005D01*
X130707242Y-139148024D01*
X130546823Y-139196687D01*
X130380000Y-139213117D01*
X130213178Y-139196687D01*
X130052759Y-139148024D01*
X129904925Y-139069005D01*
X129904923Y-139069004D01*
X129775342Y-138962659D01*
X129668997Y-138833078D01*
X129615545Y-138733076D01*
X129589977Y-138685242D01*
X129541314Y-138524823D01*
X129529001Y-138399804D01*
X129529000Y-137316197D01*
X129541313Y-137191178D01*
X129589976Y-137030759D01*
X129668995Y-136882923D01*
X129775341Y-136753341D01*
X129792978Y-136738867D01*
X129904922Y-136646996D01*
X129920310Y-136638771D01*
X130052758Y-136567976D01*
X130213177Y-136519313D01*
X130380000Y-136502883D01*
X130546822Y-136519313D01*
G37*
G36*
X122237022Y-136518590D02*
G01*
X122337681Y-136549125D01*
X122388012Y-136564392D01*
X122490761Y-136619313D01*
X122527164Y-136638771D01*
X122649133Y-136738867D01*
X122661011Y-136753341D01*
X122749229Y-136860835D01*
X122823608Y-136999987D01*
X122832942Y-137030758D01*
X122869410Y-137150977D01*
X122881000Y-137268655D01*
X122881000Y-138447345D01*
X122869410Y-138565023D01*
X122838875Y-138665682D01*
X122823608Y-138716013D01*
X122749229Y-138855165D01*
X122649133Y-138977133D01*
X122527165Y-139077229D01*
X122388013Y-139151608D01*
X122337682Y-139166875D01*
X122237023Y-139197410D01*
X122080000Y-139212875D01*
X121922978Y-139197410D01*
X121822319Y-139166875D01*
X121771988Y-139151608D01*
X121632836Y-139077229D01*
X121510868Y-138977133D01*
X121410772Y-138855165D01*
X121336393Y-138716013D01*
X121321126Y-138665682D01*
X121290591Y-138565023D01*
X121279001Y-138447345D01*
X121279000Y-137268656D01*
X121290590Y-137150978D01*
X121336392Y-136999989D01*
X121336392Y-136999988D01*
X121410771Y-136860836D01*
X121416922Y-136853341D01*
X121510867Y-136738867D01*
X121632835Y-136638771D01*
X121669238Y-136619313D01*
X121771987Y-136564392D01*
X121822318Y-136549125D01*
X121922977Y-136518590D01*
X122080000Y-136503125D01*
X122237022Y-136518590D01*
G37*
G36*
X133646822Y-136619313D02*
G01*
X133807241Y-136667976D01*
X133955077Y-136746995D01*
X134084659Y-136853341D01*
X134191004Y-136982922D01*
X134191005Y-136982924D01*
X134270024Y-137130758D01*
X134318687Y-137291177D01*
X134331000Y-137416196D01*
X134331000Y-138299803D01*
X134318687Y-138424822D01*
X134270024Y-138585242D01*
X134216574Y-138685239D01*
X134191004Y-138733078D01*
X134084659Y-138862659D01*
X133955078Y-138969004D01*
X133955076Y-138969005D01*
X133807242Y-139048024D01*
X133646823Y-139096687D01*
X133480000Y-139113117D01*
X133313178Y-139096687D01*
X133152759Y-139048024D01*
X133004925Y-138969005D01*
X133004923Y-138969004D01*
X132875342Y-138862659D01*
X132768997Y-138733078D01*
X132743427Y-138685239D01*
X132689977Y-138585242D01*
X132641314Y-138424823D01*
X132629000Y-138299803D01*
X132629000Y-137416197D01*
X132641313Y-137291178D01*
X132689976Y-137130759D01*
X132768995Y-136982923D01*
X132875341Y-136853341D01*
X132997191Y-136753341D01*
X133004922Y-136746996D01*
X133020130Y-136738867D01*
X133152758Y-136667976D01*
X133313177Y-136619313D01*
X133480000Y-136602883D01*
X133646822Y-136619313D01*
G37*
G36*
X130546822Y-124518313D02*
G01*
X130707241Y-124566976D01*
X130855077Y-124645995D01*
X130967024Y-124737868D01*
X130984659Y-124752341D01*
X131091004Y-124881922D01*
X131091005Y-124881924D01*
X131170024Y-125029758D01*
X131218687Y-125190177D01*
X131231000Y-125315196D01*
X131231000Y-126398803D01*
X131218687Y-126523823D01*
X131170024Y-126684242D01*
X131144456Y-126732076D01*
X131091004Y-126832078D01*
X130984659Y-126961659D01*
X130855078Y-127068004D01*
X130855076Y-127068005D01*
X130707242Y-127147024D01*
X130546823Y-127195687D01*
X130380000Y-127212117D01*
X130213178Y-127195687D01*
X130052759Y-127147024D01*
X129904925Y-127068005D01*
X129904923Y-127068004D01*
X129775342Y-126961659D01*
X129668997Y-126832078D01*
X129615545Y-126732076D01*
X129589977Y-126684242D01*
X129541314Y-126523823D01*
X129529001Y-126398804D01*
X129529000Y-125315197D01*
X129541313Y-125190178D01*
X129589976Y-125029759D01*
X129668995Y-124881923D01*
X129775341Y-124752341D01*
X129792978Y-124737867D01*
X129904922Y-124645996D01*
X129920310Y-124637771D01*
X130052758Y-124566976D01*
X130213177Y-124518313D01*
X130380000Y-124501883D01*
X130546822Y-124518313D01*
G37*
G36*
X122237022Y-124517590D02*
G01*
X122337681Y-124548125D01*
X122388012Y-124563392D01*
X122490761Y-124618313D01*
X122527164Y-124637771D01*
X122649133Y-124737867D01*
X122661011Y-124752341D01*
X122749229Y-124859835D01*
X122823608Y-124998987D01*
X122832942Y-125029758D01*
X122869410Y-125149977D01*
X122881000Y-125267655D01*
X122881000Y-126446345D01*
X122869410Y-126564023D01*
X122838875Y-126664682D01*
X122823608Y-126715013D01*
X122749229Y-126854165D01*
X122649133Y-126976133D01*
X122527165Y-127076229D01*
X122388013Y-127150608D01*
X122337682Y-127165875D01*
X122237023Y-127196410D01*
X122080000Y-127211875D01*
X121922978Y-127196410D01*
X121822319Y-127165875D01*
X121771988Y-127150608D01*
X121632836Y-127076229D01*
X121510868Y-126976133D01*
X121410772Y-126854165D01*
X121336393Y-126715013D01*
X121321126Y-126664682D01*
X121290591Y-126564023D01*
X121279001Y-126446345D01*
X121279000Y-125267656D01*
X121290590Y-125149978D01*
X121336392Y-124998989D01*
X121336392Y-124998988D01*
X121410771Y-124859836D01*
X121416922Y-124852341D01*
X121510867Y-124737867D01*
X121632835Y-124637771D01*
X121669238Y-124618313D01*
X121771987Y-124563392D01*
X121822318Y-124548125D01*
X121922977Y-124517590D01*
X122080000Y-124502125D01*
X122237022Y-124517590D01*
G37*
G36*
X133646822Y-124618313D02*
G01*
X133807241Y-124666976D01*
X133955077Y-124745995D01*
X134084659Y-124852341D01*
X134191004Y-124981922D01*
X134191005Y-124981924D01*
X134270024Y-125129758D01*
X134318687Y-125290177D01*
X134331000Y-125415196D01*
X134331000Y-126298803D01*
X134318687Y-126423822D01*
X134270024Y-126584242D01*
X134216574Y-126684239D01*
X134191004Y-126732078D01*
X134084659Y-126861659D01*
X133955078Y-126968004D01*
X133955076Y-126968005D01*
X133807242Y-127047024D01*
X133646823Y-127095687D01*
X133480000Y-127112117D01*
X133313178Y-127095687D01*
X133152759Y-127047024D01*
X133004925Y-126968005D01*
X133004923Y-126968004D01*
X132875342Y-126861659D01*
X132768997Y-126732078D01*
X132743427Y-126684239D01*
X132689977Y-126584242D01*
X132641314Y-126423823D01*
X132629000Y-126298803D01*
X132629000Y-125415197D01*
X132641313Y-125290178D01*
X132689976Y-125129759D01*
X132768995Y-124981923D01*
X132875341Y-124852341D01*
X132997191Y-124752341D01*
X133004922Y-124745996D01*
X133020130Y-124737867D01*
X133152758Y-124666976D01*
X133313177Y-124618313D01*
X133480000Y-124601883D01*
X133646822Y-124618313D01*
G37*
G36*
X127098634Y-115152654D02*
G01*
X127315599Y-115218470D01*
X127315601Y-115218471D01*
X127515553Y-115325347D01*
X127515555Y-115325348D01*
X127515554Y-115325348D01*
X127690818Y-115469182D01*
X127755652Y-115548183D01*
X127834653Y-115644445D01*
X127941529Y-115844398D01*
X128007346Y-116061366D01*
X128024000Y-116230455D01*
X128024000Y-117143544D01*
X128007346Y-117312634D01*
X127941529Y-117529602D01*
X127834653Y-117729555D01*
X127690818Y-117904818D01*
X127515555Y-118048653D01*
X127315602Y-118155529D01*
X127315600Y-118155530D01*
X127098635Y-118221346D01*
X126873000Y-118243569D01*
X126647366Y-118221346D01*
X126430401Y-118155530D01*
X126430399Y-118155529D01*
X126230446Y-118048653D01*
X126055183Y-117904818D01*
X125911347Y-117729554D01*
X125804471Y-117529602D01*
X125738654Y-117312634D01*
X125722000Y-117143545D01*
X125722000Y-116230456D01*
X125738654Y-116061367D01*
X125738654Y-116061366D01*
X125804470Y-115844401D01*
X125911348Y-115644446D01*
X126055182Y-115469182D01*
X126134183Y-115404348D01*
X126230445Y-115325347D01*
X126430398Y-115218471D01*
X126430400Y-115218470D01*
X126647365Y-115152654D01*
X126873000Y-115130431D01*
X127098634Y-115152654D01*
G37*
G36*
X134650405Y-113472546D02*
G01*
X134823476Y-113544234D01*
X134823477Y-113544235D01*
X134979237Y-113648310D01*
X135111700Y-113780773D01*
X135111701Y-113780775D01*
X135215776Y-113936534D01*
X135287464Y-114109605D01*
X135324010Y-114293333D01*
X135324010Y-114480667D01*
X135287464Y-114664395D01*
X135215776Y-114837466D01*
X135215775Y-114837467D01*
X135111700Y-114993227D01*
X134979237Y-115125690D01*
X134938882Y-115152654D01*
X134823476Y-115229766D01*
X134650405Y-115301454D01*
X134466677Y-115338000D01*
X134279343Y-115338000D01*
X134095615Y-115301454D01*
X133922544Y-115229766D01*
X133807138Y-115152654D01*
X133766783Y-115125690D01*
X133634320Y-114993227D01*
X133530245Y-114837467D01*
X133530244Y-114837466D01*
X133458556Y-114664395D01*
X133422010Y-114480667D01*
X133422010Y-114293333D01*
X133458556Y-114109605D01*
X133530244Y-113936534D01*
X133634319Y-113780775D01*
X133634320Y-113780773D01*
X133766783Y-113648310D01*
X133922543Y-113544235D01*
X133922544Y-113544234D01*
X134095615Y-113472546D01*
X134279343Y-113436000D01*
X134466677Y-113436000D01*
X134650405Y-113472546D01*
G37*
G36*
X134650405Y-110932546D02*
G01*
X134823476Y-111004234D01*
X134823477Y-111004235D01*
X134979237Y-111108310D01*
X135111700Y-111240773D01*
X135111701Y-111240775D01*
X135215776Y-111396534D01*
X135287464Y-111569605D01*
X135324010Y-111753333D01*
X135324010Y-111940667D01*
X135287464Y-112124395D01*
X135215776Y-112297466D01*
X135215775Y-112297467D01*
X135111700Y-112453227D01*
X134979237Y-112585690D01*
X134900828Y-112638081D01*
X134823476Y-112689766D01*
X134650405Y-112761454D01*
X134466677Y-112798000D01*
X134279343Y-112798000D01*
X134095615Y-112761454D01*
X133922544Y-112689766D01*
X133845192Y-112638081D01*
X133766783Y-112585690D01*
X133634320Y-112453227D01*
X133530245Y-112297467D01*
X133530244Y-112297466D01*
X133458556Y-112124395D01*
X133422010Y-111940667D01*
X133422010Y-111753333D01*
X133458556Y-111569605D01*
X133530244Y-111396534D01*
X133634319Y-111240775D01*
X133634320Y-111240773D01*
X133766783Y-111108310D01*
X133922543Y-111004235D01*
X133922544Y-111004234D01*
X134095615Y-110932546D01*
X134279343Y-110896000D01*
X134466677Y-110896000D01*
X134650405Y-110932546D01*
G37*
G36*
X134650405Y-108472546D02*
G01*
X134823476Y-108544234D01*
X134900828Y-108595919D01*
X134979237Y-108648310D01*
X135111700Y-108780773D01*
X135111701Y-108780775D01*
X135215776Y-108936534D01*
X135287464Y-109109605D01*
X135324010Y-109293333D01*
X135324010Y-109480667D01*
X135287464Y-109664395D01*
X135215776Y-109837466D01*
X135215775Y-109837467D01*
X135111700Y-109993227D01*
X134979237Y-110125690D01*
X134900828Y-110178081D01*
X134823476Y-110229766D01*
X134650405Y-110301454D01*
X134466677Y-110338000D01*
X134279343Y-110338000D01*
X134095615Y-110301454D01*
X133922544Y-110229766D01*
X133845192Y-110178081D01*
X133766783Y-110125690D01*
X133634320Y-109993227D01*
X133530245Y-109837467D01*
X133530244Y-109837466D01*
X133458556Y-109664395D01*
X133422010Y-109480667D01*
X133422010Y-109293333D01*
X133458556Y-109109605D01*
X133530244Y-108936534D01*
X133634319Y-108780775D01*
X133634320Y-108780773D01*
X133766783Y-108648310D01*
X133845192Y-108595919D01*
X133922544Y-108544234D01*
X134095615Y-108472546D01*
X134279343Y-108436000D01*
X134466677Y-108436000D01*
X134650405Y-108472546D01*
G37*
G36*
X127098634Y-105552654D02*
G01*
X127315599Y-105618470D01*
X127315601Y-105618471D01*
X127515553Y-105725347D01*
X127515555Y-105725348D01*
X127515554Y-105725348D01*
X127690818Y-105869182D01*
X127755652Y-105948183D01*
X127834653Y-106044445D01*
X127941529Y-106244398D01*
X128007346Y-106461366D01*
X128024000Y-106630455D01*
X128024000Y-107543544D01*
X128007346Y-107712634D01*
X127941529Y-107929602D01*
X127834653Y-108129555D01*
X127690818Y-108304818D01*
X127515555Y-108448653D01*
X127315602Y-108555529D01*
X127315600Y-108555530D01*
X127098635Y-108621346D01*
X126873000Y-108643569D01*
X126647366Y-108621346D01*
X126430401Y-108555530D01*
X126430399Y-108555529D01*
X126230446Y-108448653D01*
X126055183Y-108304818D01*
X125911347Y-108129554D01*
X125804471Y-107929602D01*
X125738654Y-107712634D01*
X125722000Y-107543545D01*
X125722000Y-106630456D01*
X125738654Y-106461367D01*
X125738654Y-106461366D01*
X125804470Y-106244401D01*
X125911348Y-106044446D01*
X126055182Y-105869182D01*
X126134183Y-105804348D01*
X126230445Y-105725347D01*
X126430398Y-105618471D01*
X126430400Y-105618470D01*
X126647365Y-105552654D01*
X126873000Y-105530431D01*
X127098634Y-105552654D01*
G37*
G36*
X127098634Y-99658654D02*
G01*
X127315599Y-99724470D01*
X127315601Y-99724471D01*
X127515553Y-99831347D01*
X127515555Y-99831348D01*
X127515554Y-99831348D01*
X127690818Y-99975182D01*
X127755652Y-100054183D01*
X127834653Y-100150445D01*
X127941529Y-100350398D01*
X128007346Y-100567366D01*
X128024000Y-100736455D01*
X128024000Y-101649544D01*
X128007346Y-101818634D01*
X127941529Y-102035602D01*
X127834653Y-102235555D01*
X127690818Y-102410818D01*
X127515555Y-102554653D01*
X127315602Y-102661529D01*
X127315600Y-102661530D01*
X127098635Y-102727346D01*
X126873000Y-102749569D01*
X126647366Y-102727346D01*
X126430401Y-102661530D01*
X126430399Y-102661529D01*
X126230446Y-102554653D01*
X126055183Y-102410818D01*
X125911347Y-102235554D01*
X125804471Y-102035602D01*
X125738654Y-101818634D01*
X125722000Y-101649545D01*
X125722000Y-100736456D01*
X125738654Y-100567367D01*
X125738654Y-100567366D01*
X125804470Y-100350401D01*
X125911348Y-100150446D01*
X126055182Y-99975182D01*
X126134183Y-99910348D01*
X126230445Y-99831347D01*
X126430398Y-99724471D01*
X126430400Y-99724470D01*
X126647365Y-99658654D01*
X126873000Y-99636431D01*
X127098634Y-99658654D01*
G37*
G36*
X134650405Y-97978546D02*
G01*
X134823476Y-98050234D01*
X134823477Y-98050235D01*
X134979237Y-98154310D01*
X135111700Y-98286773D01*
X135111701Y-98286775D01*
X135215776Y-98442534D01*
X135287464Y-98615605D01*
X135324010Y-98799333D01*
X135324010Y-98986667D01*
X135287464Y-99170395D01*
X135215776Y-99343466D01*
X135215775Y-99343467D01*
X135111700Y-99499227D01*
X134979237Y-99631690D01*
X134938882Y-99658654D01*
X134823476Y-99735766D01*
X134650405Y-99807454D01*
X134466677Y-99844000D01*
X134279343Y-99844000D01*
X134095615Y-99807454D01*
X133922544Y-99735766D01*
X133807138Y-99658654D01*
X133766783Y-99631690D01*
X133634320Y-99499227D01*
X133530245Y-99343467D01*
X133530244Y-99343466D01*
X133458556Y-99170395D01*
X133422010Y-98986667D01*
X133422010Y-98799333D01*
X133458556Y-98615605D01*
X133530244Y-98442534D01*
X133634319Y-98286775D01*
X133634320Y-98286773D01*
X133766783Y-98154310D01*
X133922543Y-98050235D01*
X133922544Y-98050234D01*
X134095615Y-97978546D01*
X134279343Y-97942000D01*
X134466677Y-97942000D01*
X134650405Y-97978546D01*
G37*
G36*
X134650405Y-95438546D02*
G01*
X134823476Y-95510234D01*
X134823477Y-95510235D01*
X134979237Y-95614310D01*
X135111700Y-95746773D01*
X135111701Y-95746775D01*
X135215776Y-95902534D01*
X135287464Y-96075605D01*
X135324010Y-96259333D01*
X135324010Y-96446667D01*
X135287464Y-96630395D01*
X135215776Y-96803466D01*
X135215775Y-96803467D01*
X135111700Y-96959227D01*
X134979237Y-97091690D01*
X134900828Y-97144081D01*
X134823476Y-97195766D01*
X134650405Y-97267454D01*
X134466677Y-97304000D01*
X134279343Y-97304000D01*
X134095615Y-97267454D01*
X133922544Y-97195766D01*
X133845192Y-97144081D01*
X133766783Y-97091690D01*
X133634320Y-96959227D01*
X133530245Y-96803467D01*
X133530244Y-96803466D01*
X133458556Y-96630395D01*
X133422010Y-96446667D01*
X133422010Y-96259333D01*
X133458556Y-96075605D01*
X133530244Y-95902534D01*
X133634319Y-95746775D01*
X133634320Y-95746773D01*
X133766783Y-95614310D01*
X133922543Y-95510235D01*
X133922544Y-95510234D01*
X134095615Y-95438546D01*
X134279343Y-95402000D01*
X134466677Y-95402000D01*
X134650405Y-95438546D01*
G37*
G36*
X134650405Y-92978546D02*
G01*
X134823476Y-93050234D01*
X134900828Y-93101919D01*
X134979237Y-93154310D01*
X135111700Y-93286773D01*
X135111701Y-93286775D01*
X135215776Y-93442534D01*
X135287464Y-93615605D01*
X135324010Y-93799333D01*
X135324010Y-93986667D01*
X135287464Y-94170395D01*
X135215776Y-94343466D01*
X135215775Y-94343467D01*
X135111700Y-94499227D01*
X134979237Y-94631690D01*
X134900828Y-94684081D01*
X134823476Y-94735766D01*
X134650405Y-94807454D01*
X134466677Y-94844000D01*
X134279343Y-94844000D01*
X134095615Y-94807454D01*
X133922544Y-94735766D01*
X133845192Y-94684081D01*
X133766783Y-94631690D01*
X133634320Y-94499227D01*
X133530245Y-94343467D01*
X133530244Y-94343466D01*
X133458556Y-94170395D01*
X133422010Y-93986667D01*
X133422010Y-93799333D01*
X133458556Y-93615605D01*
X133530244Y-93442534D01*
X133634319Y-93286775D01*
X133634320Y-93286773D01*
X133766783Y-93154310D01*
X133845192Y-93101919D01*
X133922544Y-93050234D01*
X134095615Y-92978546D01*
X134279343Y-92942000D01*
X134466677Y-92942000D01*
X134650405Y-92978546D01*
G37*
G36*
X127098634Y-90058654D02*
G01*
X127315599Y-90124470D01*
X127315601Y-90124471D01*
X127515553Y-90231347D01*
X127515555Y-90231348D01*
X127515554Y-90231348D01*
X127690818Y-90375182D01*
X127755652Y-90454183D01*
X127834653Y-90550445D01*
X127941529Y-90750398D01*
X128007346Y-90967366D01*
X128024000Y-91136455D01*
X128024000Y-92049544D01*
X128007346Y-92218634D01*
X127941529Y-92435602D01*
X127834653Y-92635555D01*
X127690818Y-92810818D01*
X127515555Y-92954653D01*
X127315602Y-93061529D01*
X127315600Y-93061530D01*
X127098635Y-93127346D01*
X126873000Y-93149569D01*
X126647366Y-93127346D01*
X126430401Y-93061530D01*
X126430399Y-93061529D01*
X126230446Y-92954653D01*
X126055183Y-92810818D01*
X125911347Y-92635554D01*
X125804471Y-92435602D01*
X125738654Y-92218634D01*
X125722000Y-92049545D01*
X125722000Y-91136456D01*
X125738654Y-90967367D01*
X125738654Y-90967366D01*
X125804470Y-90750401D01*
X125911348Y-90550446D01*
X126055182Y-90375182D01*
X126134183Y-90310348D01*
X126230445Y-90231347D01*
X126430398Y-90124471D01*
X126430400Y-90124470D01*
X126647365Y-90058654D01*
X126873000Y-90036431D01*
X127098634Y-90058654D01*
G37*
G36*
X127098634Y-84101154D02*
G01*
X127315599Y-84166970D01*
X127315601Y-84166971D01*
X127515553Y-84273847D01*
X127515555Y-84273848D01*
X127515554Y-84273848D01*
X127690818Y-84417682D01*
X127755652Y-84496683D01*
X127834653Y-84592945D01*
X127941529Y-84792898D01*
X128007346Y-85009866D01*
X128024000Y-85178955D01*
X128024000Y-86092044D01*
X128007346Y-86261134D01*
X127941529Y-86478102D01*
X127834653Y-86678055D01*
X127690818Y-86853318D01*
X127515555Y-86997153D01*
X127315602Y-87104029D01*
X127315600Y-87104030D01*
X127098635Y-87169846D01*
X126873000Y-87192069D01*
X126647366Y-87169846D01*
X126430401Y-87104030D01*
X126430399Y-87104029D01*
X126230446Y-86997153D01*
X126055183Y-86853318D01*
X125911347Y-86678054D01*
X125804471Y-86478102D01*
X125738654Y-86261134D01*
X125722000Y-86092045D01*
X125722000Y-85178956D01*
X125738654Y-85009867D01*
X125738654Y-85009866D01*
X125804470Y-84792901D01*
X125911348Y-84592946D01*
X126055182Y-84417682D01*
X126134183Y-84352848D01*
X126230445Y-84273847D01*
X126430398Y-84166971D01*
X126430400Y-84166970D01*
X126647365Y-84101154D01*
X126873000Y-84078931D01*
X127098634Y-84101154D01*
G37*
G36*
X134650405Y-82421046D02*
G01*
X134823476Y-82492734D01*
X134823477Y-82492735D01*
X134979237Y-82596810D01*
X135111700Y-82729273D01*
X135111701Y-82729275D01*
X135215776Y-82885034D01*
X135287464Y-83058105D01*
X135324010Y-83241833D01*
X135324010Y-83429167D01*
X135287464Y-83612895D01*
X135215776Y-83785966D01*
X135215775Y-83785967D01*
X135111700Y-83941727D01*
X134979237Y-84074190D01*
X134938882Y-84101154D01*
X134823476Y-84178266D01*
X134650405Y-84249954D01*
X134466677Y-84286500D01*
X134279343Y-84286500D01*
X134095615Y-84249954D01*
X133922544Y-84178266D01*
X133807138Y-84101154D01*
X133766783Y-84074190D01*
X133634320Y-83941727D01*
X133530245Y-83785967D01*
X133530244Y-83785966D01*
X133458556Y-83612895D01*
X133422010Y-83429167D01*
X133422010Y-83241833D01*
X133458556Y-83058105D01*
X133530244Y-82885034D01*
X133634319Y-82729275D01*
X133634320Y-82729273D01*
X133766783Y-82596810D01*
X133922543Y-82492735D01*
X133922544Y-82492734D01*
X134095615Y-82421046D01*
X134279343Y-82384500D01*
X134466677Y-82384500D01*
X134650405Y-82421046D01*
G37*
G36*
X134650405Y-79881046D02*
G01*
X134823476Y-79952734D01*
X134823477Y-79952735D01*
X134979237Y-80056810D01*
X135111700Y-80189273D01*
X135111701Y-80189275D01*
X135215776Y-80345034D01*
X135287464Y-80518105D01*
X135324010Y-80701833D01*
X135324010Y-80889167D01*
X135287464Y-81072895D01*
X135215776Y-81245966D01*
X135215775Y-81245967D01*
X135111700Y-81401727D01*
X134979237Y-81534190D01*
X134900828Y-81586581D01*
X134823476Y-81638266D01*
X134650405Y-81709954D01*
X134466677Y-81746500D01*
X134279343Y-81746500D01*
X134095615Y-81709954D01*
X133922544Y-81638266D01*
X133845192Y-81586581D01*
X133766783Y-81534190D01*
X133634320Y-81401727D01*
X133530245Y-81245967D01*
X133530244Y-81245966D01*
X133458556Y-81072895D01*
X133422010Y-80889167D01*
X133422010Y-80701833D01*
X133458556Y-80518105D01*
X133530244Y-80345034D01*
X133634319Y-80189275D01*
X133634320Y-80189273D01*
X133766783Y-80056810D01*
X133922543Y-79952735D01*
X133922544Y-79952734D01*
X134095615Y-79881046D01*
X134279343Y-79844500D01*
X134466677Y-79844500D01*
X134650405Y-79881046D01*
G37*
G36*
X134650405Y-77421046D02*
G01*
X134823476Y-77492734D01*
X134900828Y-77544419D01*
X134979237Y-77596810D01*
X135111700Y-77729273D01*
X135111701Y-77729275D01*
X135215776Y-77885034D01*
X135287464Y-78058105D01*
X135324010Y-78241833D01*
X135324010Y-78429167D01*
X135287464Y-78612895D01*
X135215776Y-78785966D01*
X135215775Y-78785967D01*
X135111700Y-78941727D01*
X134979237Y-79074190D01*
X134900828Y-79126581D01*
X134823476Y-79178266D01*
X134650405Y-79249954D01*
X134466677Y-79286500D01*
X134279343Y-79286500D01*
X134095615Y-79249954D01*
X133922544Y-79178266D01*
X133845192Y-79126581D01*
X133766783Y-79074190D01*
X133634320Y-78941727D01*
X133530245Y-78785967D01*
X133530244Y-78785966D01*
X133458556Y-78612895D01*
X133422010Y-78429167D01*
X133422010Y-78241833D01*
X133458556Y-78058105D01*
X133530244Y-77885034D01*
X133634319Y-77729275D01*
X133634320Y-77729273D01*
X133766783Y-77596810D01*
X133845192Y-77544419D01*
X133922544Y-77492734D01*
X134095615Y-77421046D01*
X134279343Y-77384500D01*
X134466677Y-77384500D01*
X134650405Y-77421046D01*
G37*
G36*
X127098634Y-74501154D02*
G01*
X127315599Y-74566970D01*
X127315601Y-74566971D01*
X127515553Y-74673847D01*
X127515555Y-74673848D01*
X127515554Y-74673848D01*
X127690818Y-74817682D01*
X127755652Y-74896683D01*
X127834653Y-74992945D01*
X127941529Y-75192898D01*
X128007346Y-75409866D01*
X128024000Y-75578955D01*
X128024000Y-76492044D01*
X128007346Y-76661134D01*
X127941529Y-76878102D01*
X127834653Y-77078055D01*
X127690818Y-77253318D01*
X127515555Y-77397153D01*
X127315602Y-77504029D01*
X127315600Y-77504030D01*
X127098635Y-77569846D01*
X126873000Y-77592069D01*
X126647366Y-77569846D01*
X126430401Y-77504030D01*
X126430399Y-77504029D01*
X126230446Y-77397153D01*
X126055183Y-77253318D01*
X125911347Y-77078054D01*
X125804471Y-76878102D01*
X125738654Y-76661134D01*
X125722000Y-76492045D01*
X125722000Y-75578956D01*
X125738654Y-75409867D01*
X125738654Y-75409866D01*
X125804470Y-75192901D01*
X125911348Y-74992946D01*
X126055182Y-74817682D01*
X126134183Y-74752848D01*
X126230445Y-74673847D01*
X126430398Y-74566971D01*
X126430400Y-74566970D01*
X126647365Y-74501154D01*
X126873000Y-74478931D01*
X127098634Y-74501154D01*
G37*
G36*
X127098634Y-68670654D02*
G01*
X127315599Y-68736470D01*
X127315601Y-68736471D01*
X127515553Y-68843347D01*
X127515555Y-68843348D01*
X127515554Y-68843348D01*
X127690818Y-68987182D01*
X127755652Y-69066183D01*
X127834653Y-69162445D01*
X127941529Y-69362398D01*
X128007346Y-69579366D01*
X128024000Y-69748455D01*
X128024000Y-70661544D01*
X128007346Y-70830634D01*
X127941529Y-71047602D01*
X127834653Y-71247555D01*
X127690818Y-71422818D01*
X127515555Y-71566653D01*
X127315602Y-71673529D01*
X127315600Y-71673530D01*
X127098635Y-71739346D01*
X126873000Y-71761569D01*
X126647366Y-71739346D01*
X126430401Y-71673530D01*
X126430399Y-71673529D01*
X126230446Y-71566653D01*
X126055183Y-71422818D01*
X125911347Y-71247554D01*
X125804471Y-71047602D01*
X125738654Y-70830634D01*
X125722000Y-70661545D01*
X125722000Y-69748456D01*
X125738654Y-69579367D01*
X125738654Y-69579366D01*
X125804470Y-69362401D01*
X125911348Y-69162446D01*
X126055182Y-68987182D01*
X126134183Y-68922348D01*
X126230445Y-68843347D01*
X126430398Y-68736471D01*
X126430400Y-68736470D01*
X126647365Y-68670654D01*
X126873000Y-68648431D01*
X127098634Y-68670654D01*
G37*
G36*
X134650405Y-66990546D02*
G01*
X134823476Y-67062234D01*
X134823477Y-67062235D01*
X134979237Y-67166310D01*
X135111700Y-67298773D01*
X135111701Y-67298775D01*
X135215776Y-67454534D01*
X135287464Y-67627605D01*
X135324010Y-67811333D01*
X135324010Y-67998667D01*
X135287464Y-68182395D01*
X135215776Y-68355466D01*
X135215775Y-68355467D01*
X135111700Y-68511227D01*
X134979237Y-68643690D01*
X134938882Y-68670654D01*
X134823476Y-68747766D01*
X134650405Y-68819454D01*
X134466677Y-68856000D01*
X134279343Y-68856000D01*
X134095615Y-68819454D01*
X133922544Y-68747766D01*
X133807138Y-68670654D01*
X133766783Y-68643690D01*
X133634320Y-68511227D01*
X133530245Y-68355467D01*
X133530244Y-68355466D01*
X133458556Y-68182395D01*
X133422010Y-67998667D01*
X133422010Y-67811333D01*
X133458556Y-67627605D01*
X133530244Y-67454534D01*
X133634319Y-67298775D01*
X133634320Y-67298773D01*
X133766783Y-67166310D01*
X133922543Y-67062235D01*
X133922544Y-67062234D01*
X134095615Y-66990546D01*
X134279343Y-66954000D01*
X134466677Y-66954000D01*
X134650405Y-66990546D01*
G37*
G36*
X134650405Y-64450546D02*
G01*
X134823476Y-64522234D01*
X134823477Y-64522235D01*
X134979237Y-64626310D01*
X135111700Y-64758773D01*
X135111701Y-64758775D01*
X135215776Y-64914534D01*
X135287464Y-65087605D01*
X135324010Y-65271333D01*
X135324010Y-65458667D01*
X135287464Y-65642395D01*
X135215776Y-65815466D01*
X135215775Y-65815467D01*
X135111700Y-65971227D01*
X134979237Y-66103690D01*
X134900828Y-66156081D01*
X134823476Y-66207766D01*
X134650405Y-66279454D01*
X134466677Y-66316000D01*
X134279343Y-66316000D01*
X134095615Y-66279454D01*
X133922544Y-66207766D01*
X133845192Y-66156081D01*
X133766783Y-66103690D01*
X133634320Y-65971227D01*
X133530245Y-65815467D01*
X133530244Y-65815466D01*
X133458556Y-65642395D01*
X133422010Y-65458667D01*
X133422010Y-65271333D01*
X133458556Y-65087605D01*
X133530244Y-64914534D01*
X133634319Y-64758775D01*
X133634320Y-64758773D01*
X133766783Y-64626310D01*
X133922543Y-64522235D01*
X133922544Y-64522234D01*
X134095615Y-64450546D01*
X134279343Y-64414000D01*
X134466677Y-64414000D01*
X134650405Y-64450546D01*
G37*
G36*
X134650405Y-61990546D02*
G01*
X134823476Y-62062234D01*
X134900828Y-62113919D01*
X134979237Y-62166310D01*
X135111700Y-62298773D01*
X135111701Y-62298775D01*
X135215776Y-62454534D01*
X135287464Y-62627605D01*
X135324010Y-62811333D01*
X135324010Y-62998667D01*
X135287464Y-63182395D01*
X135215776Y-63355466D01*
X135215775Y-63355467D01*
X135111700Y-63511227D01*
X134979237Y-63643690D01*
X134900828Y-63696081D01*
X134823476Y-63747766D01*
X134650405Y-63819454D01*
X134466677Y-63856000D01*
X134279343Y-63856000D01*
X134095615Y-63819454D01*
X133922544Y-63747766D01*
X133845192Y-63696081D01*
X133766783Y-63643690D01*
X133634320Y-63511227D01*
X133530245Y-63355467D01*
X133530244Y-63355466D01*
X133458556Y-63182395D01*
X133422010Y-62998667D01*
X133422010Y-62811333D01*
X133458556Y-62627605D01*
X133530244Y-62454534D01*
X133634319Y-62298775D01*
X133634320Y-62298773D01*
X133766783Y-62166310D01*
X133845192Y-62113919D01*
X133922544Y-62062234D01*
X134095615Y-61990546D01*
X134279343Y-61954000D01*
X134466677Y-61954000D01*
X134650405Y-61990546D01*
G37*
G36*
X127098634Y-59070654D02*
G01*
X127315599Y-59136470D01*
X127315601Y-59136471D01*
X127515553Y-59243347D01*
X127515555Y-59243348D01*
X127515554Y-59243348D01*
X127690818Y-59387182D01*
X127755652Y-59466183D01*
X127834653Y-59562445D01*
X127941529Y-59762398D01*
X128007346Y-59979366D01*
X128024000Y-60148455D01*
X128024000Y-61061544D01*
X128007346Y-61230634D01*
X127941529Y-61447602D01*
X127834653Y-61647555D01*
X127690818Y-61822818D01*
X127515555Y-61966653D01*
X127315602Y-62073529D01*
X127315600Y-62073530D01*
X127098635Y-62139346D01*
X126873000Y-62161569D01*
X126647366Y-62139346D01*
X126430401Y-62073530D01*
X126430399Y-62073529D01*
X126230446Y-61966653D01*
X126055183Y-61822818D01*
X125911347Y-61647554D01*
X125804471Y-61447602D01*
X125738654Y-61230634D01*
X125722000Y-61061545D01*
X125722000Y-60148456D01*
X125738654Y-59979367D01*
X125738654Y-59979366D01*
X125804470Y-59762401D01*
X125911348Y-59562446D01*
X126055182Y-59387182D01*
X126134183Y-59322348D01*
X126230445Y-59243347D01*
X126430398Y-59136471D01*
X126430400Y-59136470D01*
X126647365Y-59070654D01*
X126873000Y-59048431D01*
X127098634Y-59070654D01*
G37*
G36*
X127749000Y-56121500D02*
G01*
X126123000Y-56121500D01*
X126123000Y-54495500D01*
X127749000Y-54495500D01*
X127749000Y-56121500D01*
G37*
G36*
X130567564Y-53590889D02*
G01*
X130758833Y-53670115D01*
X130758835Y-53670116D01*
X130930973Y-53785135D01*
X131077365Y-53931527D01*
X131192385Y-54103667D01*
X131271611Y-54294936D01*
X131312000Y-54497984D01*
X131312000Y-54705016D01*
X131271611Y-54908064D01*
X131192385Y-55099333D01*
X131192384Y-55099335D01*
X131077365Y-55271473D01*
X130930973Y-55417865D01*
X130758835Y-55532884D01*
X130758834Y-55532885D01*
X130758833Y-55532885D01*
X130567564Y-55612111D01*
X130364516Y-55652500D01*
X130157484Y-55652500D01*
X129954436Y-55612111D01*
X129763167Y-55532885D01*
X129763166Y-55532885D01*
X129763165Y-55532884D01*
X129591027Y-55417865D01*
X129444635Y-55271473D01*
X129329616Y-55099335D01*
X129329615Y-55099333D01*
X129250389Y-54908064D01*
X129210000Y-54705016D01*
X129210000Y-54497984D01*
X129250389Y-54294936D01*
X129329615Y-54103667D01*
X129444635Y-53931527D01*
X129591027Y-53785135D01*
X129763165Y-53670116D01*
X129763167Y-53670115D01*
X129954436Y-53590889D01*
X130157484Y-53550500D01*
X130364516Y-53550500D01*
X130567564Y-53590889D01*
G37*
G36*
X124067564Y-53590889D02*
G01*
X124258833Y-53670115D01*
X124258835Y-53670116D01*
X124430973Y-53785135D01*
X124577365Y-53931527D01*
X124692385Y-54103667D01*
X124771611Y-54294936D01*
X124812000Y-54497984D01*
X124812000Y-54705016D01*
X124771611Y-54908064D01*
X124692385Y-55099333D01*
X124692384Y-55099335D01*
X124577365Y-55271473D01*
X124430973Y-55417865D01*
X124258835Y-55532884D01*
X124258834Y-55532885D01*
X124258833Y-55532885D01*
X124067564Y-55612111D01*
X123864516Y-55652500D01*
X123657484Y-55652500D01*
X123454436Y-55612111D01*
X123263167Y-55532885D01*
X123263166Y-55532885D01*
X123263165Y-55532884D01*
X123091027Y-55417865D01*
X122944635Y-55271473D01*
X122829616Y-55099335D01*
X122829615Y-55099333D01*
X122750389Y-54908064D01*
X122710000Y-54705016D01*
X122710000Y-54497984D01*
X122750389Y-54294936D01*
X122829615Y-54103667D01*
X122944635Y-53931527D01*
X123091027Y-53785135D01*
X123263165Y-53670116D01*
X123263167Y-53670115D01*
X123454436Y-53590889D01*
X123657484Y-53550500D01*
X123864516Y-53550500D01*
X124067564Y-53590889D01*
G37*
G36*
X124067564Y-49090889D02*
G01*
X124258833Y-49170115D01*
X124258835Y-49170116D01*
X124392495Y-49259425D01*
X124430973Y-49285135D01*
X124577365Y-49431527D01*
X124692385Y-49603667D01*
X124771611Y-49794936D01*
X124812000Y-49997984D01*
X124812000Y-50205016D01*
X124771611Y-50408064D01*
X124692385Y-50599333D01*
X124692384Y-50599335D01*
X124577365Y-50771473D01*
X124430973Y-50917865D01*
X124258835Y-51032884D01*
X124258834Y-51032885D01*
X124258833Y-51032885D01*
X124067564Y-51112111D01*
X123864516Y-51152500D01*
X123657484Y-51152500D01*
X123454436Y-51112111D01*
X123263167Y-51032885D01*
X123263166Y-51032885D01*
X123263165Y-51032884D01*
X123091027Y-50917865D01*
X122944635Y-50771473D01*
X122829616Y-50599335D01*
X122829615Y-50599333D01*
X122750389Y-50408064D01*
X122710000Y-50205016D01*
X122710000Y-49997984D01*
X122750389Y-49794936D01*
X122829615Y-49603667D01*
X122944635Y-49431527D01*
X123091027Y-49285135D01*
X123129505Y-49259425D01*
X123263165Y-49170116D01*
X123263167Y-49170115D01*
X123454436Y-49090889D01*
X123657484Y-49050500D01*
X123864516Y-49050500D01*
X124067564Y-49090889D01*
G37*
G36*
X130567564Y-49090889D02*
G01*
X130758833Y-49170115D01*
X130758835Y-49170116D01*
X130892495Y-49259425D01*
X130930973Y-49285135D01*
X131077365Y-49431527D01*
X131192385Y-49603667D01*
X131271611Y-49794936D01*
X131312000Y-49997984D01*
X131312000Y-50205016D01*
X131271611Y-50408064D01*
X131192385Y-50599333D01*
X131192384Y-50599335D01*
X131077365Y-50771473D01*
X130930973Y-50917865D01*
X130758835Y-51032884D01*
X130758834Y-51032885D01*
X130758833Y-51032885D01*
X130567564Y-51112111D01*
X130364516Y-51152500D01*
X130157484Y-51152500D01*
X129954436Y-51112111D01*
X129763167Y-51032885D01*
X129763166Y-51032885D01*
X129763165Y-51032884D01*
X129591027Y-50917865D01*
X129444635Y-50771473D01*
X129329616Y-50599335D01*
X129329615Y-50599333D01*
X129250389Y-50408064D01*
X129210000Y-50205016D01*
X129210000Y-49997984D01*
X129250389Y-49794936D01*
X129329615Y-49603667D01*
X129444635Y-49431527D01*
X129591027Y-49285135D01*
X129629505Y-49259425D01*
X129763165Y-49170116D01*
X129763167Y-49170115D01*
X129954436Y-49090889D01*
X130157484Y-49050500D01*
X130364516Y-49050500D01*
X130567564Y-49090889D01*
G37*
G36*
X127173142Y-48557742D02*
G01*
X127321101Y-48619029D01*
X127454255Y-48707999D01*
X127567501Y-48821245D01*
X127656471Y-48954399D01*
X127717758Y-49102358D01*
X127749000Y-49259425D01*
X127749000Y-49419575D01*
X127717758Y-49576642D01*
X127656471Y-49724601D01*
X127567501Y-49857755D01*
X127454255Y-49971001D01*
X127321101Y-50059971D01*
X127173142Y-50121258D01*
X127016075Y-50152500D01*
X126855925Y-50152500D01*
X126698858Y-50121258D01*
X126550899Y-50059971D01*
X126417745Y-49971001D01*
X126304499Y-49857755D01*
X126215529Y-49724601D01*
X126154242Y-49576642D01*
X126123000Y-49419575D01*
X126123000Y-49259425D01*
X126154242Y-49102358D01*
X126215529Y-48954399D01*
X126304499Y-48821245D01*
X126417745Y-48707999D01*
X126550899Y-48619029D01*
X126698858Y-48557742D01*
X126855925Y-48526500D01*
X127016075Y-48526500D01*
X127173142Y-48557742D01*
G37*
M02*
