G04 #@! TF.GenerationSoftware,KiCad,Pcbnew,(5.1.5)-3*
G04 #@! TF.CreationDate,2020-07-12T13:51:54+08:00*
G04 #@! TF.ProjectId,Kick-808,4b69636b-2d38-4303-982e-6b696361645f,rev?*
G04 #@! TF.SameCoordinates,Original*
G04 #@! TF.FileFunction,Copper,L1,Top*
G04 #@! TF.FilePolarity,Positive*
%FSLAX46Y46*%
G04 Gerber Fmt 4.6, Leading zero omitted, Abs format (unit mm)*
G04 Created by KiCad (PCBNEW (5.1.5)-3) date 2020-07-12 13:51:54*
%MOMM*%
%LPD*%
G04 APERTURE LIST*
%ADD10O,1.500000X2.600000*%
%ADD11O,1.600000X2.400000*%
%ADD12O,1.600000X2.600000*%
%ADD13O,2.200000X3.000000*%
%ADD14C,1.800000*%
%ADD15R,1.524000X1.524000*%
%ADD16C,1.524000*%
%ADD17C,2.000000*%
%ADD18C,1.000000*%
%ADD19C,0.800000*%
%ADD20C,1.270000*%
%ADD21C,0.254000*%
%ADD22C,0.250000*%
G04 APERTURE END LIST*
D10*
X122080000Y-125857000D03*
D11*
X133480000Y-125857000D03*
D12*
X130380000Y-125857000D03*
D13*
X126873000Y-107087000D03*
D14*
X134373010Y-114387000D03*
X134373010Y-111847000D03*
X134373010Y-109387000D03*
D13*
X126873000Y-116687000D03*
D15*
X126936000Y-55308500D03*
D16*
X126936000Y-49339500D03*
D17*
X130261000Y-50101500D03*
X130261000Y-54601500D03*
X123761000Y-50101500D03*
X123761000Y-54601500D03*
D10*
X122080000Y-149860000D03*
D11*
X133480000Y-149860000D03*
D12*
X130380000Y-149860000D03*
D13*
X126873000Y-91593000D03*
D14*
X134373010Y-98893000D03*
X134373010Y-96353000D03*
X134373010Y-93893000D03*
D13*
X126873000Y-101193000D03*
X126873000Y-76035500D03*
D14*
X134373010Y-83335500D03*
X134373010Y-80795500D03*
X134373010Y-78335500D03*
D13*
X126873000Y-85635500D03*
X126873000Y-60605000D03*
D14*
X134373010Y-67905000D03*
X134373010Y-65365000D03*
X134373010Y-62905000D03*
D13*
X126873000Y-70205000D03*
D10*
X122080000Y-137858000D03*
D11*
X133480000Y-137858000D03*
D12*
X130380000Y-137858000D03*
D18*
X118364000Y-129568000D03*
D19*
X118364000Y-115112800D03*
X118414800Y-114147600D03*
X118364000Y-100076000D03*
X118313200Y-87376000D03*
X118364000Y-88544400D03*
X118364000Y-61010800D03*
X118364000Y-60045600D03*
X118364000Y-49326800D03*
D18*
X118364000Y-127762000D03*
X135636000Y-129540000D03*
X135636000Y-127762000D03*
D19*
X130962400Y-91795600D03*
X130048000Y-91795600D03*
X126339600Y-96875600D03*
X120345200Y-78587600D03*
X130490300Y-80267200D03*
X133146800Y-90779600D03*
X130657600Y-74777600D03*
X128727200Y-73202800D03*
X128727200Y-117551200D03*
X127711200Y-119634000D03*
X119989600Y-109067600D03*
X128879600Y-80721200D03*
X121513600Y-98755200D03*
X132842000Y-103987600D03*
X121513600Y-100177600D03*
X124104400Y-119126000D03*
X122834400Y-56642000D03*
X123748800Y-71170800D03*
X131876800Y-129844800D03*
X127000000Y-129794000D03*
X120700800Y-122936000D03*
X127000000Y-134924800D03*
X130454400Y-60604400D03*
X133807200Y-70764400D03*
X119481600Y-144526000D03*
X120548400Y-66395600D03*
X132080000Y-52781200D03*
X123139200Y-75133200D03*
X122834400Y-92456000D03*
X121208800Y-92506800D03*
X121412000Y-80619600D03*
D20*
X118364000Y-115112800D02*
X118364000Y-100076000D01*
X118364000Y-100076000D02*
X118364000Y-60045600D01*
X118364000Y-60045600D02*
X118364000Y-49285000D01*
X118364000Y-114198400D02*
X118414800Y-114147600D01*
X118364000Y-129568000D02*
X118364000Y-114198400D01*
X135636000Y-129540000D02*
X135636000Y-127762000D01*
X135636000Y-118218000D02*
X135636000Y-127762000D01*
X132638000Y-115220000D02*
X135636000Y-118218000D01*
X132638000Y-108408000D02*
X132638000Y-115220000D01*
X135725000Y-105321000D02*
X132638000Y-108408000D01*
X132638009Y-99725801D02*
X135426608Y-102514400D01*
X130048000Y-91795600D02*
X131622800Y-91795600D01*
X135432800Y-102514400D02*
X135725000Y-102806600D01*
X132638009Y-92810809D02*
X132638009Y-99725801D01*
X135426608Y-102514400D02*
X135432800Y-102514400D01*
X131622800Y-91795600D02*
X132638009Y-92810809D01*
X135725000Y-102806600D02*
X135725000Y-105321000D01*
D21*
X125773915Y-96875600D02*
X126339600Y-96875600D01*
X124501638Y-96875600D02*
X125773915Y-96875600D01*
X120243600Y-92617562D02*
X124501638Y-96875600D01*
X120192800Y-79305685D02*
X120192800Y-82804000D01*
X120345200Y-79153285D02*
X120192800Y-79305685D01*
X120345200Y-78587600D02*
X120345200Y-79153285D01*
X120192800Y-82804000D02*
X120243600Y-92617562D01*
D22*
X133148009Y-81687609D02*
X131727600Y-80267200D01*
X131727600Y-80267200D02*
X130490300Y-80267200D01*
X133146800Y-90728800D02*
X133756400Y-90119200D01*
X133148009Y-83923501D02*
X133148009Y-81687609D01*
X133146800Y-90779600D02*
X133146800Y-90728800D01*
X133756400Y-90119200D02*
X133756400Y-84531892D01*
X133756400Y-84531892D02*
X133148009Y-83923501D01*
X134373000Y-111847000D02*
X134373000Y-114387000D01*
D21*
X130657600Y-74777600D02*
X129082800Y-73202800D01*
X129082800Y-73202800D02*
X128727200Y-73202800D01*
X127711200Y-118567200D02*
X127711200Y-119634000D01*
X128727200Y-117551200D02*
X127711200Y-118567200D01*
X119532400Y-135310400D02*
X122080000Y-137858000D01*
X119837200Y-109067600D02*
X119532400Y-109372400D01*
X119989600Y-109067600D02*
X119837200Y-109067600D01*
X119532400Y-109372400D02*
X119532400Y-135310400D01*
D22*
X134373000Y-62905000D02*
X134373000Y-65365000D01*
X134373000Y-83335500D02*
X134373000Y-93893000D01*
X133373500Y-80795500D02*
X134373000Y-80795500D01*
X132076100Y-79498100D02*
X133373500Y-80795500D01*
X128879600Y-80721200D02*
X130151600Y-79498100D01*
X130151600Y-79498100D02*
X132076100Y-79498100D01*
X125327300Y-53035200D02*
X123761000Y-54601500D01*
X130261000Y-54601500D02*
X128694700Y-53035200D01*
X128694700Y-53035200D02*
X125327300Y-53035200D01*
X120586500Y-50101500D02*
X123761000Y-50101500D01*
X119430800Y-96672400D02*
X119430800Y-59754741D01*
X121513600Y-98755200D02*
X119430800Y-96672400D01*
X119430800Y-59754741D02*
X119324010Y-59647951D01*
X119324010Y-51363990D02*
X120586500Y-50101500D01*
X119324010Y-59647951D02*
X119324010Y-51363990D01*
D21*
G36*
X125539000Y-49201908D02*
G01*
X125539000Y-49477092D01*
X125592686Y-49746990D01*
X125697995Y-50001227D01*
X125850880Y-50230035D01*
X126045465Y-50424620D01*
X126274273Y-50577505D01*
X126528510Y-50682814D01*
X126798408Y-50736500D01*
X127073592Y-50736500D01*
X127343490Y-50682814D01*
X127597727Y-50577505D01*
X127826535Y-50424620D01*
X128021120Y-50230035D01*
X128174005Y-50001227D01*
X128279314Y-49746990D01*
X128333000Y-49477092D01*
X128333000Y-49201908D01*
X128309745Y-49084999D01*
X128973807Y-49084999D01*
X128812082Y-49327037D01*
X128688832Y-49624588D01*
X128626000Y-49940467D01*
X128626000Y-50262533D01*
X128688832Y-50578412D01*
X128812082Y-50875963D01*
X128991013Y-51143752D01*
X129218748Y-51371487D01*
X129486537Y-51550418D01*
X129784088Y-51673668D01*
X130099967Y-51736500D01*
X130422033Y-51736500D01*
X130737912Y-51673668D01*
X131035463Y-51550418D01*
X131303252Y-51371487D01*
X131530987Y-51143752D01*
X131709918Y-50875963D01*
X131833168Y-50578412D01*
X131896000Y-50262533D01*
X131896000Y-49940467D01*
X131833168Y-49624588D01*
X131709918Y-49327037D01*
X131548193Y-49084999D01*
X135925000Y-49084999D01*
X135925000Y-101216742D01*
X135005907Y-100297648D01*
X135024209Y-100291222D01*
X135173802Y-100211261D01*
X135257485Y-99957080D01*
X134373010Y-99072605D01*
X134358868Y-99086748D01*
X134179263Y-98907143D01*
X134193405Y-98893000D01*
X134552615Y-98893000D01*
X135437090Y-99777475D01*
X135691271Y-99693792D01*
X135822168Y-99421225D01*
X135897375Y-99128358D01*
X135914001Y-98826447D01*
X135871407Y-98527093D01*
X135771232Y-98241801D01*
X135691271Y-98092208D01*
X135437090Y-98008525D01*
X134552615Y-98893000D01*
X134193405Y-98893000D01*
X134179263Y-98878858D01*
X134358868Y-98699253D01*
X134373010Y-98713395D01*
X135257485Y-97828920D01*
X135189691Y-97623000D01*
X135257485Y-97417080D01*
X134373010Y-96532605D01*
X134358868Y-96546748D01*
X134179263Y-96367143D01*
X134193405Y-96353000D01*
X134552615Y-96353000D01*
X135437090Y-97237475D01*
X135691271Y-97153792D01*
X135822168Y-96881225D01*
X135897375Y-96588358D01*
X135914001Y-96286447D01*
X135871407Y-95987093D01*
X135771232Y-95701801D01*
X135691271Y-95552208D01*
X135437090Y-95468525D01*
X134552615Y-96353000D01*
X134193405Y-96353000D01*
X134179263Y-96338858D01*
X134358868Y-96159253D01*
X134373010Y-96173395D01*
X135257485Y-95288920D01*
X135219494Y-95173526D01*
X135351515Y-95085312D01*
X135565322Y-94871505D01*
X135733309Y-94620095D01*
X135849021Y-94340743D01*
X135908010Y-94044184D01*
X135908010Y-93741816D01*
X135849021Y-93445257D01*
X135733309Y-93165905D01*
X135565322Y-92914495D01*
X135351515Y-92700688D01*
X135133000Y-92554681D01*
X135133000Y-84673819D01*
X135351515Y-84527812D01*
X135565322Y-84314005D01*
X135733309Y-84062595D01*
X135849021Y-83783243D01*
X135908010Y-83486684D01*
X135908010Y-83184316D01*
X135849021Y-82887757D01*
X135733309Y-82608405D01*
X135565322Y-82356995D01*
X135351515Y-82143188D01*
X135235247Y-82065500D01*
X135351515Y-81987812D01*
X135565322Y-81774005D01*
X135733309Y-81522595D01*
X135849021Y-81243243D01*
X135908010Y-80946684D01*
X135908010Y-80644316D01*
X135849021Y-80347757D01*
X135733309Y-80068405D01*
X135565322Y-79816995D01*
X135351515Y-79603188D01*
X135295111Y-79565500D01*
X135351515Y-79527812D01*
X135565322Y-79314005D01*
X135733309Y-79062595D01*
X135849021Y-78783243D01*
X135908010Y-78486684D01*
X135908010Y-78184316D01*
X135849021Y-77887757D01*
X135733309Y-77608405D01*
X135565322Y-77356995D01*
X135351515Y-77143188D01*
X135100105Y-76975201D01*
X134820753Y-76859489D01*
X134524194Y-76800500D01*
X134221826Y-76800500D01*
X133925267Y-76859489D01*
X133645915Y-76975201D01*
X133394505Y-77143188D01*
X133180698Y-77356995D01*
X133012711Y-77608405D01*
X132896999Y-77887757D01*
X132838010Y-78184316D01*
X132838010Y-78486684D01*
X132896999Y-78783243D01*
X133012711Y-79062595D01*
X133180698Y-79314005D01*
X133394505Y-79527812D01*
X133450909Y-79565500D01*
X133394505Y-79603188D01*
X133325247Y-79672446D01*
X132639904Y-78987103D01*
X132616101Y-78958099D01*
X132500376Y-78863126D01*
X132368347Y-78792554D01*
X132225086Y-78749097D01*
X132113433Y-78738100D01*
X132113422Y-78738100D01*
X132076100Y-78734424D01*
X132038778Y-78738100D01*
X130196398Y-78738100D01*
X130166564Y-78734570D01*
X130121735Y-78738100D01*
X130114267Y-78738100D01*
X130084493Y-78741033D01*
X130017319Y-78746322D01*
X130010092Y-78748360D01*
X130002614Y-78749097D01*
X129938102Y-78768666D01*
X129873234Y-78786963D01*
X129866541Y-78790373D01*
X129859353Y-78792554D01*
X129799894Y-78824336D01*
X129739847Y-78854935D01*
X129733949Y-78859585D01*
X129727324Y-78863126D01*
X129675233Y-78905876D01*
X129651742Y-78924396D01*
X129646358Y-78929573D01*
X129611599Y-78958099D01*
X129592541Y-78981321D01*
X128859481Y-79686200D01*
X128777661Y-79686200D01*
X128577702Y-79725974D01*
X128389344Y-79803995D01*
X128219826Y-79917263D01*
X128075663Y-80061426D01*
X127962395Y-80230944D01*
X127884374Y-80419302D01*
X127844600Y-80619261D01*
X127844600Y-80823139D01*
X127884374Y-81023098D01*
X127962395Y-81211456D01*
X128075663Y-81380974D01*
X128219826Y-81525137D01*
X128389344Y-81638405D01*
X128577702Y-81716426D01*
X128777661Y-81756200D01*
X128981539Y-81756200D01*
X129181498Y-81716426D01*
X129369856Y-81638405D01*
X129539374Y-81525137D01*
X129683537Y-81380974D01*
X129796805Y-81211456D01*
X129849638Y-81083907D01*
X130000044Y-81184405D01*
X130188402Y-81262426D01*
X130388361Y-81302200D01*
X130592239Y-81302200D01*
X130792198Y-81262426D01*
X130980556Y-81184405D01*
X131150074Y-81071137D01*
X131194011Y-81027200D01*
X131412799Y-81027200D01*
X132388010Y-82002412D01*
X132388009Y-83886178D01*
X132384333Y-83923501D01*
X132388009Y-83960823D01*
X132388009Y-83960833D01*
X132399006Y-84072486D01*
X132442463Y-84215747D01*
X132513035Y-84347777D01*
X132541865Y-84382906D01*
X132608008Y-84463502D01*
X132637011Y-84487304D01*
X132996401Y-84846695D01*
X132996400Y-89754239D01*
X132844902Y-89784374D01*
X132656544Y-89862395D01*
X132487026Y-89975663D01*
X132342863Y-90119826D01*
X132229595Y-90289344D01*
X132151574Y-90477702D01*
X132122717Y-90622775D01*
X132111159Y-90616597D01*
X131871763Y-90543977D01*
X131685180Y-90525600D01*
X131685173Y-90525600D01*
X131622800Y-90519457D01*
X131560427Y-90525600D01*
X129985620Y-90525600D01*
X129799037Y-90543977D01*
X129559641Y-90616597D01*
X129339012Y-90734525D01*
X129145630Y-90893230D01*
X128986925Y-91086612D01*
X128868997Y-91307241D01*
X128796377Y-91546637D01*
X128771856Y-91795600D01*
X128796377Y-92044563D01*
X128868997Y-92283959D01*
X128986925Y-92504588D01*
X129145630Y-92697970D01*
X129339012Y-92856675D01*
X129559641Y-92974603D01*
X129799037Y-93047223D01*
X129985620Y-93065600D01*
X131096750Y-93065600D01*
X131368009Y-93336860D01*
X131368010Y-99663418D01*
X131361866Y-99725801D01*
X131386386Y-99974764D01*
X131436019Y-100138379D01*
X131459007Y-100214160D01*
X131576935Y-100434789D01*
X131735640Y-100628171D01*
X131784095Y-100667937D01*
X134455000Y-103338843D01*
X134455001Y-104794948D01*
X131784091Y-107465859D01*
X131735630Y-107505630D01*
X131576925Y-107699013D01*
X131458997Y-107919642D01*
X131386377Y-108159038D01*
X131368000Y-108345621D01*
X131368000Y-108345627D01*
X131361857Y-108408000D01*
X131368000Y-108470373D01*
X131368001Y-115157617D01*
X131361857Y-115220000D01*
X131386377Y-115468963D01*
X131458998Y-115708359D01*
X131576926Y-115928988D01*
X131735631Y-116122370D01*
X131784086Y-116162137D01*
X134366000Y-118744051D01*
X134366001Y-124325951D01*
X134171646Y-124193285D01*
X133911818Y-124082633D01*
X133829039Y-124065096D01*
X133607000Y-124187085D01*
X133607000Y-125730000D01*
X133627000Y-125730000D01*
X133627000Y-125984000D01*
X133607000Y-125984000D01*
X133607000Y-127526915D01*
X133829039Y-127648904D01*
X133911818Y-127631367D01*
X134171646Y-127520715D01*
X134366001Y-127388049D01*
X134366001Y-127699610D01*
X134366000Y-127699620D01*
X134366000Y-129602379D01*
X134384377Y-129788962D01*
X134456997Y-130028358D01*
X134574925Y-130248987D01*
X134733630Y-130442370D01*
X134927012Y-130601075D01*
X135147641Y-130719003D01*
X135387037Y-130791623D01*
X135636000Y-130816144D01*
X135884962Y-130791623D01*
X135925001Y-130779477D01*
X135925001Y-154115000D01*
X118075000Y-154115000D01*
X118075000Y-149241964D01*
X120695000Y-149241964D01*
X120695000Y-150478037D01*
X120715040Y-150681507D01*
X120794236Y-150942581D01*
X120922843Y-151183188D01*
X121095920Y-151394081D01*
X121306813Y-151567157D01*
X121547420Y-151695764D01*
X121808494Y-151774960D01*
X122080000Y-151801701D01*
X122351507Y-151774960D01*
X122612581Y-151695764D01*
X122853188Y-151567157D01*
X123064081Y-151394081D01*
X123237157Y-151183188D01*
X123365764Y-150942581D01*
X123444960Y-150681507D01*
X123465000Y-150478037D01*
X123465000Y-149842013D01*
X125045755Y-149842013D01*
X125096555Y-150248413D01*
X125102091Y-150272822D01*
X125254491Y-150730022D01*
X125259215Y-150742098D01*
X125271630Y-150763678D01*
X125525630Y-151119278D01*
X125546323Y-151141887D01*
X125901923Y-151446687D01*
X125927778Y-151463853D01*
X126334178Y-151667053D01*
X126360172Y-151676669D01*
X126766572Y-151778269D01*
X126797374Y-151782061D01*
X127051374Y-151782061D01*
X127067126Y-151781080D01*
X127473526Y-151730280D01*
X127504941Y-151722178D01*
X128012941Y-151518978D01*
X128026481Y-151512612D01*
X128047077Y-151498625D01*
X128351877Y-151244625D01*
X128372174Y-151223261D01*
X128676974Y-150816861D01*
X128692105Y-150790689D01*
X128844505Y-150435089D01*
X128852308Y-150409968D01*
X128945000Y-149946508D01*
X128945000Y-150430492D01*
X128965764Y-150641309D01*
X129047818Y-150911808D01*
X129181068Y-151161101D01*
X129360393Y-151379608D01*
X129578900Y-151558932D01*
X129828193Y-151692182D01*
X130098692Y-151774236D01*
X130380000Y-151801943D01*
X130661309Y-151774236D01*
X130931808Y-151692182D01*
X131181101Y-151558932D01*
X131399608Y-151379608D01*
X131578932Y-151161101D01*
X131712182Y-150911808D01*
X131794236Y-150641309D01*
X131815000Y-150430492D01*
X131815000Y-149987000D01*
X132045000Y-149987000D01*
X132045000Y-150387000D01*
X132097350Y-150664514D01*
X132202834Y-150926483D01*
X132357399Y-151162839D01*
X132555105Y-151364500D01*
X132788354Y-151523715D01*
X133048182Y-151634367D01*
X133130961Y-151651904D01*
X133353000Y-151529915D01*
X133353000Y-149987000D01*
X133607000Y-149987000D01*
X133607000Y-151529915D01*
X133829039Y-151651904D01*
X133911818Y-151634367D01*
X134171646Y-151523715D01*
X134404895Y-151364500D01*
X134602601Y-151162839D01*
X134757166Y-150926483D01*
X134862650Y-150664514D01*
X134915000Y-150387000D01*
X134915000Y-149987000D01*
X133607000Y-149987000D01*
X133353000Y-149987000D01*
X132045000Y-149987000D01*
X131815000Y-149987000D01*
X131815000Y-149333000D01*
X132045000Y-149333000D01*
X132045000Y-149733000D01*
X133353000Y-149733000D01*
X133353000Y-148190085D01*
X133607000Y-148190085D01*
X133607000Y-149733000D01*
X134915000Y-149733000D01*
X134915000Y-149333000D01*
X134862650Y-149055486D01*
X134757166Y-148793517D01*
X134602601Y-148557161D01*
X134404895Y-148355500D01*
X134171646Y-148196285D01*
X133911818Y-148085633D01*
X133829039Y-148068096D01*
X133607000Y-148190085D01*
X133353000Y-148190085D01*
X133130961Y-148068096D01*
X133048182Y-148085633D01*
X132788354Y-148196285D01*
X132555105Y-148355500D01*
X132357399Y-148557161D01*
X132202834Y-148793517D01*
X132097350Y-149055486D01*
X132045000Y-149333000D01*
X131815000Y-149333000D01*
X131815000Y-149289508D01*
X131794236Y-149078691D01*
X131712182Y-148808192D01*
X131578932Y-148558899D01*
X131399607Y-148340392D01*
X131181100Y-148161068D01*
X130931807Y-148027818D01*
X130661308Y-147945764D01*
X130380000Y-147918057D01*
X130098691Y-147945764D01*
X129828192Y-148027818D01*
X129578899Y-148161068D01*
X129360392Y-148340393D01*
X129181068Y-148558900D01*
X129047818Y-148808193D01*
X128965764Y-149078692D01*
X128945000Y-149289509D01*
X128945000Y-149778165D01*
X128904593Y-149454909D01*
X128897488Y-149426068D01*
X128745088Y-149019668D01*
X128731844Y-148993814D01*
X128528644Y-148689014D01*
X128512777Y-148669658D01*
X128309577Y-148466458D01*
X128299110Y-148457091D01*
X128045110Y-148253891D01*
X128028784Y-148242794D01*
X127673184Y-148039594D01*
X127661381Y-148033642D01*
X127637724Y-148025885D01*
X127180524Y-147924285D01*
X127152974Y-147921261D01*
X127000574Y-147921261D01*
X126984822Y-147922242D01*
X126578422Y-147973042D01*
X126549581Y-147980147D01*
X126143181Y-148132547D01*
X126117327Y-148145791D01*
X125812527Y-148348991D01*
X125793171Y-148364858D01*
X125437571Y-148720458D01*
X125417107Y-148747251D01*
X125213907Y-149102851D01*
X125203691Y-149125700D01*
X125102091Y-149430500D01*
X125096850Y-149452700D01*
X125046050Y-149808300D01*
X125045755Y-149842013D01*
X123465000Y-149842013D01*
X123465000Y-149241963D01*
X123444960Y-149038493D01*
X123365764Y-148777419D01*
X123237157Y-148536812D01*
X123064080Y-148325919D01*
X122853187Y-148152843D01*
X122612580Y-148024236D01*
X122351506Y-147945040D01*
X122080000Y-147918299D01*
X121808493Y-147945040D01*
X121547419Y-148024236D01*
X121306812Y-148152843D01*
X121095919Y-148325920D01*
X120922843Y-148536813D01*
X120794236Y-148777420D01*
X120715040Y-149038494D01*
X120695000Y-149241964D01*
X118075000Y-149241964D01*
X118075000Y-130807478D01*
X118115037Y-130819623D01*
X118364000Y-130844144D01*
X118612962Y-130819623D01*
X118770401Y-130771864D01*
X118770401Y-135272967D01*
X118766714Y-135310400D01*
X118781427Y-135459778D01*
X118824999Y-135603415D01*
X118895755Y-135735792D01*
X118967121Y-135822751D01*
X118990979Y-135851822D01*
X119020049Y-135875679D01*
X120695000Y-137550631D01*
X120695000Y-138476037D01*
X120715040Y-138679507D01*
X120794236Y-138940581D01*
X120922843Y-139181188D01*
X121095920Y-139392081D01*
X121306813Y-139565157D01*
X121547420Y-139693764D01*
X121808494Y-139772960D01*
X122080000Y-139799701D01*
X122351507Y-139772960D01*
X122612581Y-139693764D01*
X122853188Y-139565157D01*
X123064081Y-139392081D01*
X123237157Y-139181188D01*
X123365764Y-138940581D01*
X123444960Y-138679507D01*
X123465000Y-138476037D01*
X123465000Y-137836152D01*
X125045181Y-137836152D01*
X125095981Y-138242552D01*
X125101517Y-138266961D01*
X125253917Y-138724161D01*
X125258641Y-138736237D01*
X125271056Y-138757817D01*
X125525056Y-139113417D01*
X125545749Y-139136026D01*
X125901349Y-139440826D01*
X125927204Y-139457992D01*
X126333604Y-139661192D01*
X126359598Y-139670808D01*
X126765998Y-139772408D01*
X126796800Y-139776200D01*
X127050800Y-139776200D01*
X127066552Y-139775219D01*
X127472952Y-139724419D01*
X127504367Y-139716317D01*
X128012367Y-139513117D01*
X128025907Y-139506751D01*
X128046503Y-139492764D01*
X128351303Y-139238764D01*
X128371600Y-139217400D01*
X128676400Y-138811000D01*
X128691531Y-138784828D01*
X128843931Y-138429228D01*
X128851734Y-138404107D01*
X128945000Y-137937777D01*
X128945000Y-138428492D01*
X128965764Y-138639309D01*
X129047818Y-138909808D01*
X129181068Y-139159101D01*
X129360393Y-139377608D01*
X129578900Y-139556932D01*
X129828193Y-139690182D01*
X130098692Y-139772236D01*
X130380000Y-139799943D01*
X130661309Y-139772236D01*
X130931808Y-139690182D01*
X131181101Y-139556932D01*
X131399608Y-139377608D01*
X131578932Y-139159101D01*
X131712182Y-138909808D01*
X131794236Y-138639309D01*
X131815000Y-138428492D01*
X131815000Y-137985000D01*
X132045000Y-137985000D01*
X132045000Y-138385000D01*
X132097350Y-138662514D01*
X132202834Y-138924483D01*
X132357399Y-139160839D01*
X132555105Y-139362500D01*
X132788354Y-139521715D01*
X133048182Y-139632367D01*
X133130961Y-139649904D01*
X133353000Y-139527915D01*
X133353000Y-137985000D01*
X133607000Y-137985000D01*
X133607000Y-139527915D01*
X133829039Y-139649904D01*
X133911818Y-139632367D01*
X134171646Y-139521715D01*
X134404895Y-139362500D01*
X134602601Y-139160839D01*
X134757166Y-138924483D01*
X134862650Y-138662514D01*
X134915000Y-138385000D01*
X134915000Y-137985000D01*
X133607000Y-137985000D01*
X133353000Y-137985000D01*
X132045000Y-137985000D01*
X131815000Y-137985000D01*
X131815000Y-137331000D01*
X132045000Y-137331000D01*
X132045000Y-137731000D01*
X133353000Y-137731000D01*
X133353000Y-136188085D01*
X133607000Y-136188085D01*
X133607000Y-137731000D01*
X134915000Y-137731000D01*
X134915000Y-137331000D01*
X134862650Y-137053486D01*
X134757166Y-136791517D01*
X134602601Y-136555161D01*
X134404895Y-136353500D01*
X134171646Y-136194285D01*
X133911818Y-136083633D01*
X133829039Y-136066096D01*
X133607000Y-136188085D01*
X133353000Y-136188085D01*
X133130961Y-136066096D01*
X133048182Y-136083633D01*
X132788354Y-136194285D01*
X132555105Y-136353500D01*
X132357399Y-136555161D01*
X132202834Y-136791517D01*
X132097350Y-137053486D01*
X132045000Y-137331000D01*
X131815000Y-137331000D01*
X131815000Y-137287508D01*
X131794236Y-137076691D01*
X131712182Y-136806192D01*
X131578932Y-136556899D01*
X131399607Y-136338392D01*
X131181100Y-136159068D01*
X130931807Y-136025818D01*
X130661308Y-135943764D01*
X130380000Y-135916057D01*
X130098691Y-135943764D01*
X129828192Y-136025818D01*
X129578899Y-136159068D01*
X129360392Y-136338393D01*
X129181068Y-136556900D01*
X129047818Y-136806193D01*
X128965764Y-137076692D01*
X128945000Y-137287509D01*
X128945000Y-137776896D01*
X128904019Y-137449048D01*
X128896914Y-137420207D01*
X128744514Y-137013807D01*
X128731270Y-136987953D01*
X128528070Y-136683153D01*
X128512203Y-136663797D01*
X128309003Y-136460597D01*
X128298536Y-136451230D01*
X128044536Y-136248030D01*
X128028210Y-136236933D01*
X127672610Y-136033733D01*
X127660807Y-136027781D01*
X127637150Y-136020024D01*
X127179950Y-135918424D01*
X127152400Y-135915400D01*
X127000000Y-135915400D01*
X126984248Y-135916381D01*
X126577848Y-135967181D01*
X126549007Y-135974286D01*
X126142607Y-136126686D01*
X126116753Y-136139930D01*
X125811953Y-136343130D01*
X125792597Y-136358997D01*
X125436997Y-136714597D01*
X125416533Y-136741390D01*
X125213333Y-137096990D01*
X125203117Y-137119839D01*
X125101517Y-137424639D01*
X125096276Y-137446839D01*
X125045476Y-137802439D01*
X125045181Y-137836152D01*
X123465000Y-137836152D01*
X123465000Y-137239963D01*
X123444960Y-137036493D01*
X123365764Y-136775419D01*
X123237157Y-136534812D01*
X123064080Y-136323919D01*
X122853187Y-136150843D01*
X122612580Y-136022236D01*
X122351506Y-135943040D01*
X122080000Y-135916299D01*
X121808493Y-135943040D01*
X121547419Y-136022236D01*
X121400432Y-136100802D01*
X120294400Y-134994770D01*
X120294400Y-125238964D01*
X120695000Y-125238964D01*
X120695000Y-126475037D01*
X120715040Y-126678507D01*
X120794236Y-126939581D01*
X120922843Y-127180188D01*
X121095920Y-127391081D01*
X121306813Y-127564157D01*
X121547420Y-127692764D01*
X121808494Y-127771960D01*
X122080000Y-127798701D01*
X122351507Y-127771960D01*
X122612581Y-127692764D01*
X122853188Y-127564157D01*
X123064081Y-127391081D01*
X123237157Y-127180188D01*
X123365764Y-126939581D01*
X123444960Y-126678507D01*
X123465000Y-126475037D01*
X123465000Y-125847352D01*
X125045181Y-125847352D01*
X125095981Y-126253752D01*
X125101517Y-126278161D01*
X125253917Y-126735361D01*
X125258641Y-126747437D01*
X125271056Y-126769017D01*
X125525056Y-127124617D01*
X125545749Y-127147226D01*
X125901349Y-127452026D01*
X125927204Y-127469192D01*
X126333604Y-127672392D01*
X126359598Y-127682008D01*
X126765998Y-127783608D01*
X126796800Y-127787400D01*
X127050800Y-127787400D01*
X127066552Y-127786419D01*
X127472952Y-127735619D01*
X127504367Y-127727517D01*
X128012367Y-127524317D01*
X128025907Y-127517951D01*
X128046503Y-127503964D01*
X128351303Y-127249964D01*
X128371600Y-127228600D01*
X128676400Y-126822200D01*
X128691531Y-126796028D01*
X128843931Y-126440428D01*
X128851734Y-126415307D01*
X128945000Y-125948977D01*
X128945000Y-126427492D01*
X128965764Y-126638309D01*
X129047818Y-126908808D01*
X129181068Y-127158101D01*
X129360393Y-127376608D01*
X129578900Y-127555932D01*
X129828193Y-127689182D01*
X130098692Y-127771236D01*
X130380000Y-127798943D01*
X130661309Y-127771236D01*
X130931808Y-127689182D01*
X131181101Y-127555932D01*
X131399608Y-127376608D01*
X131578932Y-127158101D01*
X131712182Y-126908808D01*
X131794236Y-126638309D01*
X131815000Y-126427492D01*
X131815000Y-125984000D01*
X132045000Y-125984000D01*
X132045000Y-126384000D01*
X132097350Y-126661514D01*
X132202834Y-126923483D01*
X132357399Y-127159839D01*
X132555105Y-127361500D01*
X132788354Y-127520715D01*
X133048182Y-127631367D01*
X133130961Y-127648904D01*
X133353000Y-127526915D01*
X133353000Y-125984000D01*
X132045000Y-125984000D01*
X131815000Y-125984000D01*
X131815000Y-125330000D01*
X132045000Y-125330000D01*
X132045000Y-125730000D01*
X133353000Y-125730000D01*
X133353000Y-124187085D01*
X133130961Y-124065096D01*
X133048182Y-124082633D01*
X132788354Y-124193285D01*
X132555105Y-124352500D01*
X132357399Y-124554161D01*
X132202834Y-124790517D01*
X132097350Y-125052486D01*
X132045000Y-125330000D01*
X131815000Y-125330000D01*
X131815000Y-125286508D01*
X131794236Y-125075691D01*
X131712182Y-124805192D01*
X131578932Y-124555899D01*
X131399607Y-124337392D01*
X131181100Y-124158068D01*
X130931807Y-124024818D01*
X130661308Y-123942764D01*
X130380000Y-123915057D01*
X130098691Y-123942764D01*
X129828192Y-124024818D01*
X129578899Y-124158068D01*
X129360392Y-124337393D01*
X129181068Y-124555900D01*
X129047818Y-124805193D01*
X128965764Y-125075692D01*
X128945000Y-125286509D01*
X128945000Y-125788096D01*
X128904019Y-125460248D01*
X128896914Y-125431407D01*
X128744514Y-125025007D01*
X128731270Y-124999153D01*
X128528070Y-124694353D01*
X128512203Y-124674997D01*
X128309003Y-124471797D01*
X128298536Y-124462430D01*
X128044536Y-124259230D01*
X128028210Y-124248133D01*
X127672610Y-124044933D01*
X127660807Y-124038981D01*
X127637150Y-124031224D01*
X127179950Y-123929624D01*
X127152400Y-123926600D01*
X127000000Y-123926600D01*
X126984248Y-123927581D01*
X126577848Y-123978381D01*
X126549007Y-123985486D01*
X126142607Y-124137886D01*
X126116753Y-124151130D01*
X125811953Y-124354330D01*
X125792597Y-124370197D01*
X125436997Y-124725797D01*
X125416533Y-124752590D01*
X125213333Y-125108190D01*
X125203117Y-125131039D01*
X125101517Y-125435839D01*
X125096276Y-125458039D01*
X125045476Y-125813639D01*
X125045181Y-125847352D01*
X123465000Y-125847352D01*
X123465000Y-125238963D01*
X123444960Y-125035493D01*
X123365764Y-124774419D01*
X123237157Y-124533812D01*
X123064080Y-124322919D01*
X122853187Y-124149843D01*
X122612580Y-124021236D01*
X122351506Y-123942040D01*
X122080000Y-123915299D01*
X121808493Y-123942040D01*
X121547419Y-124021236D01*
X121306812Y-124149843D01*
X121095919Y-124322920D01*
X120922843Y-124533813D01*
X120794236Y-124774420D01*
X120715040Y-125035494D01*
X120695000Y-125238964D01*
X120294400Y-125238964D01*
X120294400Y-119532061D01*
X126676200Y-119532061D01*
X126676200Y-119735939D01*
X126715974Y-119935898D01*
X126793995Y-120124256D01*
X126907263Y-120293774D01*
X127051426Y-120437937D01*
X127220944Y-120551205D01*
X127409302Y-120629226D01*
X127609261Y-120669000D01*
X127813139Y-120669000D01*
X128013098Y-120629226D01*
X128201456Y-120551205D01*
X128370974Y-120437937D01*
X128515137Y-120293774D01*
X128628405Y-120124256D01*
X128706426Y-119935898D01*
X128746200Y-119735939D01*
X128746200Y-119532061D01*
X128706426Y-119332102D01*
X128628405Y-119143744D01*
X128515137Y-118974226D01*
X128473200Y-118932289D01*
X128473200Y-118882830D01*
X128769831Y-118586200D01*
X128829139Y-118586200D01*
X129029098Y-118546426D01*
X129217456Y-118468405D01*
X129386974Y-118355137D01*
X129531137Y-118210974D01*
X129644405Y-118041456D01*
X129722426Y-117853098D01*
X129762200Y-117653139D01*
X129762200Y-117449261D01*
X129722426Y-117249302D01*
X129644405Y-117060944D01*
X129531137Y-116891426D01*
X129386974Y-116747263D01*
X129217456Y-116633995D01*
X129029098Y-116555974D01*
X128829139Y-116516200D01*
X128625261Y-116516200D01*
X128608000Y-116519633D01*
X128608000Y-116160000D01*
X128549886Y-115823959D01*
X128427330Y-115505712D01*
X128245042Y-115217489D01*
X128010027Y-114970367D01*
X127731317Y-114773843D01*
X127419622Y-114635469D01*
X127269122Y-114597825D01*
X127000000Y-114715875D01*
X127000000Y-116560000D01*
X127020000Y-116560000D01*
X127020000Y-116814000D01*
X127000000Y-116814000D01*
X127000000Y-118286706D01*
X126960226Y-118417823D01*
X126949200Y-118529774D01*
X126945514Y-118567200D01*
X126949200Y-118604624D01*
X126949200Y-118932289D01*
X126907263Y-118974226D01*
X126793995Y-119143744D01*
X126715974Y-119332102D01*
X126676200Y-119532061D01*
X120294400Y-119532061D01*
X120294400Y-116814000D01*
X125138000Y-116814000D01*
X125138000Y-117214000D01*
X125196114Y-117550041D01*
X125318670Y-117868288D01*
X125500958Y-118156511D01*
X125735973Y-118403633D01*
X126014683Y-118600157D01*
X126326378Y-118738531D01*
X126476878Y-118776175D01*
X126746000Y-118658125D01*
X126746000Y-116814000D01*
X125138000Y-116814000D01*
X120294400Y-116814000D01*
X120294400Y-116160000D01*
X125138000Y-116160000D01*
X125138000Y-116560000D01*
X126746000Y-116560000D01*
X126746000Y-114715875D01*
X126476878Y-114597825D01*
X126326378Y-114635469D01*
X126014683Y-114773843D01*
X125735973Y-114970367D01*
X125500958Y-115217489D01*
X125318670Y-115505712D01*
X125196114Y-115823959D01*
X125138000Y-116160000D01*
X120294400Y-116160000D01*
X120294400Y-110061624D01*
X120479856Y-109984805D01*
X120649374Y-109871537D01*
X120793537Y-109727374D01*
X120906805Y-109557856D01*
X120984826Y-109369498D01*
X121024600Y-109169539D01*
X121024600Y-108965661D01*
X120984826Y-108765702D01*
X120906805Y-108577344D01*
X120793537Y-108407826D01*
X120649374Y-108263663D01*
X120479856Y-108150395D01*
X120291498Y-108072374D01*
X120091539Y-108032600D01*
X119887661Y-108032600D01*
X119687702Y-108072374D01*
X119634000Y-108094618D01*
X119634000Y-107214000D01*
X125138000Y-107214000D01*
X125138000Y-107614000D01*
X125196114Y-107950041D01*
X125318670Y-108268288D01*
X125500958Y-108556511D01*
X125735973Y-108803633D01*
X126014683Y-109000157D01*
X126326378Y-109138531D01*
X126476878Y-109176175D01*
X126746000Y-109058125D01*
X126746000Y-107214000D01*
X127000000Y-107214000D01*
X127000000Y-109058125D01*
X127269122Y-109176175D01*
X127419622Y-109138531D01*
X127731317Y-109000157D01*
X128010027Y-108803633D01*
X128245042Y-108556511D01*
X128427330Y-108268288D01*
X128549886Y-107950041D01*
X128608000Y-107614000D01*
X128608000Y-107214000D01*
X127000000Y-107214000D01*
X126746000Y-107214000D01*
X125138000Y-107214000D01*
X119634000Y-107214000D01*
X119634000Y-106560000D01*
X125138000Y-106560000D01*
X125138000Y-106960000D01*
X126746000Y-106960000D01*
X126746000Y-105115875D01*
X127000000Y-105115875D01*
X127000000Y-106960000D01*
X128608000Y-106960000D01*
X128608000Y-106560000D01*
X128549886Y-106223959D01*
X128427330Y-105905712D01*
X128245042Y-105617489D01*
X128010027Y-105370367D01*
X127731317Y-105173843D01*
X127419622Y-105035469D01*
X127269122Y-104997825D01*
X127000000Y-105115875D01*
X126746000Y-105115875D01*
X126476878Y-104997825D01*
X126326378Y-105035469D01*
X126014683Y-105173843D01*
X125735973Y-105370367D01*
X125500958Y-105617489D01*
X125318670Y-105905712D01*
X125196114Y-106223959D01*
X125138000Y-106560000D01*
X119634000Y-106560000D01*
X119634000Y-101320000D01*
X125138000Y-101320000D01*
X125138000Y-101720000D01*
X125196114Y-102056041D01*
X125318670Y-102374288D01*
X125500958Y-102662511D01*
X125735973Y-102909633D01*
X126014683Y-103106157D01*
X126326378Y-103244531D01*
X126476878Y-103282175D01*
X126746000Y-103164125D01*
X126746000Y-101320000D01*
X127000000Y-101320000D01*
X127000000Y-103164125D01*
X127269122Y-103282175D01*
X127419622Y-103244531D01*
X127731317Y-103106157D01*
X128010027Y-102909633D01*
X128245042Y-102662511D01*
X128427330Y-102374288D01*
X128549886Y-102056041D01*
X128608000Y-101720000D01*
X128608000Y-101320000D01*
X127000000Y-101320000D01*
X126746000Y-101320000D01*
X125138000Y-101320000D01*
X119634000Y-101320000D01*
X119634000Y-100666000D01*
X125138000Y-100666000D01*
X125138000Y-101066000D01*
X126746000Y-101066000D01*
X126746000Y-99221875D01*
X127000000Y-99221875D01*
X127000000Y-101066000D01*
X128608000Y-101066000D01*
X128608000Y-100666000D01*
X128549886Y-100329959D01*
X128427330Y-100011712D01*
X128245042Y-99723489D01*
X128010027Y-99476367D01*
X127731317Y-99279843D01*
X127419622Y-99141469D01*
X127269122Y-99103825D01*
X127000000Y-99221875D01*
X126746000Y-99221875D01*
X126476878Y-99103825D01*
X126326378Y-99141469D01*
X126014683Y-99279843D01*
X125735973Y-99476367D01*
X125500958Y-99723489D01*
X125318670Y-100011712D01*
X125196114Y-100329959D01*
X125138000Y-100666000D01*
X119634000Y-100666000D01*
X119634000Y-97950401D01*
X120478600Y-98795002D01*
X120478600Y-98857139D01*
X120518374Y-99057098D01*
X120596395Y-99245456D01*
X120709663Y-99414974D01*
X120853826Y-99559137D01*
X121023344Y-99672405D01*
X121211702Y-99750426D01*
X121411661Y-99790200D01*
X121615539Y-99790200D01*
X121815498Y-99750426D01*
X122003856Y-99672405D01*
X122173374Y-99559137D01*
X122317537Y-99414974D01*
X122430805Y-99245456D01*
X122508826Y-99057098D01*
X122548600Y-98857139D01*
X122548600Y-98653261D01*
X122508826Y-98453302D01*
X122430805Y-98264944D01*
X122317537Y-98095426D01*
X122173374Y-97951263D01*
X122003856Y-97837995D01*
X121815498Y-97759974D01*
X121615539Y-97720200D01*
X121553402Y-97720200D01*
X120190800Y-96357599D01*
X120190800Y-93642392D01*
X123936359Y-97387952D01*
X123960216Y-97417022D01*
X124076246Y-97512245D01*
X124208623Y-97583002D01*
X124352260Y-97626574D01*
X124464212Y-97637600D01*
X124464214Y-97637600D01*
X124501637Y-97641286D01*
X124539060Y-97637600D01*
X125637889Y-97637600D01*
X125679826Y-97679537D01*
X125849344Y-97792805D01*
X126037702Y-97870826D01*
X126237661Y-97910600D01*
X126441539Y-97910600D01*
X126641498Y-97870826D01*
X126829856Y-97792805D01*
X126999374Y-97679537D01*
X127143537Y-97535374D01*
X127256805Y-97365856D01*
X127334826Y-97177498D01*
X127374600Y-96977539D01*
X127374600Y-96773661D01*
X127334826Y-96573702D01*
X127256805Y-96385344D01*
X127143537Y-96215826D01*
X126999374Y-96071663D01*
X126829856Y-95958395D01*
X126641498Y-95880374D01*
X126441539Y-95840600D01*
X126237661Y-95840600D01*
X126037702Y-95880374D01*
X125849344Y-95958395D01*
X125679826Y-96071663D01*
X125637889Y-96113600D01*
X124817269Y-96113600D01*
X121003967Y-92300299D01*
X121000964Y-91720000D01*
X125138000Y-91720000D01*
X125138000Y-92120000D01*
X125196114Y-92456041D01*
X125318670Y-92774288D01*
X125500958Y-93062511D01*
X125735973Y-93309633D01*
X126014683Y-93506157D01*
X126326378Y-93644531D01*
X126476878Y-93682175D01*
X126746000Y-93564125D01*
X126746000Y-91720000D01*
X127000000Y-91720000D01*
X127000000Y-93564125D01*
X127269122Y-93682175D01*
X127419622Y-93644531D01*
X127731317Y-93506157D01*
X128010027Y-93309633D01*
X128245042Y-93062511D01*
X128427330Y-92774288D01*
X128549886Y-92456041D01*
X128608000Y-92120000D01*
X128608000Y-91720000D01*
X127000000Y-91720000D01*
X126746000Y-91720000D01*
X125138000Y-91720000D01*
X121000964Y-91720000D01*
X120997579Y-91066000D01*
X125138000Y-91066000D01*
X125138000Y-91466000D01*
X126746000Y-91466000D01*
X126746000Y-89621875D01*
X127000000Y-89621875D01*
X127000000Y-91466000D01*
X128608000Y-91466000D01*
X128608000Y-91066000D01*
X128549886Y-90729959D01*
X128427330Y-90411712D01*
X128245042Y-90123489D01*
X128010027Y-89876367D01*
X127731317Y-89679843D01*
X127419622Y-89541469D01*
X127269122Y-89503825D01*
X127000000Y-89621875D01*
X126746000Y-89621875D01*
X126476878Y-89503825D01*
X126326378Y-89541469D01*
X126014683Y-89679843D01*
X125735973Y-89876367D01*
X125500958Y-90123489D01*
X125318670Y-90411712D01*
X125196114Y-90729959D01*
X125138000Y-91066000D01*
X120997579Y-91066000D01*
X120970126Y-85762500D01*
X125138000Y-85762500D01*
X125138000Y-86162500D01*
X125196114Y-86498541D01*
X125318670Y-86816788D01*
X125500958Y-87105011D01*
X125735973Y-87352133D01*
X126014683Y-87548657D01*
X126326378Y-87687031D01*
X126476878Y-87724675D01*
X126746000Y-87606625D01*
X126746000Y-85762500D01*
X127000000Y-85762500D01*
X127000000Y-87606625D01*
X127269122Y-87724675D01*
X127419622Y-87687031D01*
X127731317Y-87548657D01*
X128010027Y-87352133D01*
X128245042Y-87105011D01*
X128427330Y-86816788D01*
X128549886Y-86498541D01*
X128608000Y-86162500D01*
X128608000Y-85762500D01*
X127000000Y-85762500D01*
X126746000Y-85762500D01*
X125138000Y-85762500D01*
X120970126Y-85762500D01*
X120966741Y-85108500D01*
X125138000Y-85108500D01*
X125138000Y-85508500D01*
X126746000Y-85508500D01*
X126746000Y-83664375D01*
X127000000Y-83664375D01*
X127000000Y-85508500D01*
X128608000Y-85508500D01*
X128608000Y-85108500D01*
X128549886Y-84772459D01*
X128427330Y-84454212D01*
X128245042Y-84165989D01*
X128010027Y-83918867D01*
X127731317Y-83722343D01*
X127419622Y-83583969D01*
X127269122Y-83546325D01*
X127000000Y-83664375D01*
X126746000Y-83664375D01*
X126476878Y-83546325D01*
X126326378Y-83583969D01*
X126014683Y-83722343D01*
X125735973Y-83918867D01*
X125500958Y-84165989D01*
X125318670Y-84454212D01*
X125196114Y-84772459D01*
X125138000Y-85108500D01*
X120966741Y-85108500D01*
X120954800Y-82802040D01*
X120954800Y-79611632D01*
X120981845Y-79578677D01*
X121052602Y-79446300D01*
X121096174Y-79302663D01*
X121096428Y-79300083D01*
X121149137Y-79247374D01*
X121262405Y-79077856D01*
X121340426Y-78889498D01*
X121380200Y-78689539D01*
X121380200Y-78485661D01*
X121340426Y-78285702D01*
X121262405Y-78097344D01*
X121149137Y-77927826D01*
X121004974Y-77783663D01*
X120835456Y-77670395D01*
X120647098Y-77592374D01*
X120447139Y-77552600D01*
X120243261Y-77552600D01*
X120190800Y-77563035D01*
X120190800Y-76162500D01*
X125138000Y-76162500D01*
X125138000Y-76562500D01*
X125196114Y-76898541D01*
X125318670Y-77216788D01*
X125500958Y-77505011D01*
X125735973Y-77752133D01*
X126014683Y-77948657D01*
X126326378Y-78087031D01*
X126476878Y-78124675D01*
X126746000Y-78006625D01*
X126746000Y-76162500D01*
X127000000Y-76162500D01*
X127000000Y-78006625D01*
X127269122Y-78124675D01*
X127419622Y-78087031D01*
X127731317Y-77948657D01*
X128010027Y-77752133D01*
X128245042Y-77505011D01*
X128427330Y-77216788D01*
X128549886Y-76898541D01*
X128608000Y-76562500D01*
X128608000Y-76162500D01*
X127000000Y-76162500D01*
X126746000Y-76162500D01*
X125138000Y-76162500D01*
X120190800Y-76162500D01*
X120190800Y-75508500D01*
X125138000Y-75508500D01*
X125138000Y-75908500D01*
X126746000Y-75908500D01*
X126746000Y-74064375D01*
X127000000Y-74064375D01*
X127000000Y-75908500D01*
X128608000Y-75908500D01*
X128608000Y-75508500D01*
X128549886Y-75172459D01*
X128427330Y-74854212D01*
X128245042Y-74565989D01*
X128010027Y-74318867D01*
X127731317Y-74122343D01*
X127419622Y-73983969D01*
X127269122Y-73946325D01*
X127000000Y-74064375D01*
X126746000Y-74064375D01*
X126476878Y-73946325D01*
X126326378Y-73983969D01*
X126014683Y-74122343D01*
X125735973Y-74318867D01*
X125500958Y-74565989D01*
X125318670Y-74854212D01*
X125196114Y-75172459D01*
X125138000Y-75508500D01*
X120190800Y-75508500D01*
X120190800Y-73100861D01*
X127692200Y-73100861D01*
X127692200Y-73304739D01*
X127731974Y-73504698D01*
X127809995Y-73693056D01*
X127923263Y-73862574D01*
X128067426Y-74006737D01*
X128236944Y-74120005D01*
X128425302Y-74198026D01*
X128625261Y-74237800D01*
X128829139Y-74237800D01*
X129005158Y-74202788D01*
X129622600Y-74820230D01*
X129622600Y-74879539D01*
X129662374Y-75079498D01*
X129740395Y-75267856D01*
X129853663Y-75437374D01*
X129997826Y-75581537D01*
X130167344Y-75694805D01*
X130355702Y-75772826D01*
X130555661Y-75812600D01*
X130759539Y-75812600D01*
X130959498Y-75772826D01*
X131147856Y-75694805D01*
X131317374Y-75581537D01*
X131461537Y-75437374D01*
X131574805Y-75267856D01*
X131652826Y-75079498D01*
X131692600Y-74879539D01*
X131692600Y-74675661D01*
X131652826Y-74475702D01*
X131574805Y-74287344D01*
X131461537Y-74117826D01*
X131317374Y-73973663D01*
X131147856Y-73860395D01*
X130959498Y-73782374D01*
X130759539Y-73742600D01*
X130700230Y-73742600D01*
X129648084Y-72690454D01*
X129624222Y-72661378D01*
X129593213Y-72635930D01*
X129531137Y-72543026D01*
X129386974Y-72398863D01*
X129217456Y-72285595D01*
X129029098Y-72207574D01*
X128829139Y-72167800D01*
X128625261Y-72167800D01*
X128425302Y-72207574D01*
X128236944Y-72285595D01*
X128067426Y-72398863D01*
X127923263Y-72543026D01*
X127809995Y-72712544D01*
X127731974Y-72900902D01*
X127692200Y-73100861D01*
X120190800Y-73100861D01*
X120190800Y-70332000D01*
X125138000Y-70332000D01*
X125138000Y-70732000D01*
X125196114Y-71068041D01*
X125318670Y-71386288D01*
X125500958Y-71674511D01*
X125735973Y-71921633D01*
X126014683Y-72118157D01*
X126326378Y-72256531D01*
X126476878Y-72294175D01*
X126746000Y-72176125D01*
X126746000Y-70332000D01*
X127000000Y-70332000D01*
X127000000Y-72176125D01*
X127269122Y-72294175D01*
X127419622Y-72256531D01*
X127731317Y-72118157D01*
X128010027Y-71921633D01*
X128245042Y-71674511D01*
X128427330Y-71386288D01*
X128549886Y-71068041D01*
X128608000Y-70732000D01*
X128608000Y-70332000D01*
X127000000Y-70332000D01*
X126746000Y-70332000D01*
X125138000Y-70332000D01*
X120190800Y-70332000D01*
X120190800Y-69678000D01*
X125138000Y-69678000D01*
X125138000Y-70078000D01*
X126746000Y-70078000D01*
X126746000Y-68233875D01*
X127000000Y-68233875D01*
X127000000Y-70078000D01*
X128608000Y-70078000D01*
X128608000Y-69678000D01*
X128549886Y-69341959D01*
X128427330Y-69023712D01*
X128245042Y-68735489D01*
X128010027Y-68488367D01*
X127731317Y-68291843D01*
X127419622Y-68153469D01*
X127269122Y-68115825D01*
X127000000Y-68233875D01*
X126746000Y-68233875D01*
X126476878Y-68115825D01*
X126326378Y-68153469D01*
X126014683Y-68291843D01*
X125735973Y-68488367D01*
X125500958Y-68735489D01*
X125318670Y-69023712D01*
X125196114Y-69341959D01*
X125138000Y-69678000D01*
X120190800Y-69678000D01*
X120190800Y-62753816D01*
X132838010Y-62753816D01*
X132838010Y-63056184D01*
X132896999Y-63352743D01*
X133012711Y-63632095D01*
X133180698Y-63883505D01*
X133394505Y-64097312D01*
X133450909Y-64135000D01*
X133394505Y-64172688D01*
X133180698Y-64386495D01*
X133012711Y-64637905D01*
X132896999Y-64917257D01*
X132838010Y-65213816D01*
X132838010Y-65516184D01*
X132896999Y-65812743D01*
X133012711Y-66092095D01*
X133180698Y-66343505D01*
X133394505Y-66557312D01*
X133510773Y-66635000D01*
X133394505Y-66712688D01*
X133180698Y-66926495D01*
X133012711Y-67177905D01*
X132896999Y-67457257D01*
X132838010Y-67753816D01*
X132838010Y-68056184D01*
X132896999Y-68352743D01*
X133012711Y-68632095D01*
X133180698Y-68883505D01*
X133394505Y-69097312D01*
X133645915Y-69265299D01*
X133925267Y-69381011D01*
X134221826Y-69440000D01*
X134524194Y-69440000D01*
X134820753Y-69381011D01*
X135100105Y-69265299D01*
X135351515Y-69097312D01*
X135565322Y-68883505D01*
X135733309Y-68632095D01*
X135849021Y-68352743D01*
X135908010Y-68056184D01*
X135908010Y-67753816D01*
X135849021Y-67457257D01*
X135733309Y-67177905D01*
X135565322Y-66926495D01*
X135351515Y-66712688D01*
X135235247Y-66635000D01*
X135351515Y-66557312D01*
X135565322Y-66343505D01*
X135733309Y-66092095D01*
X135849021Y-65812743D01*
X135908010Y-65516184D01*
X135908010Y-65213816D01*
X135849021Y-64917257D01*
X135733309Y-64637905D01*
X135565322Y-64386495D01*
X135351515Y-64172688D01*
X135295111Y-64135000D01*
X135351515Y-64097312D01*
X135565322Y-63883505D01*
X135733309Y-63632095D01*
X135849021Y-63352743D01*
X135908010Y-63056184D01*
X135908010Y-62753816D01*
X135849021Y-62457257D01*
X135733309Y-62177905D01*
X135565322Y-61926495D01*
X135351515Y-61712688D01*
X135100105Y-61544701D01*
X134820753Y-61428989D01*
X134524194Y-61370000D01*
X134221826Y-61370000D01*
X133925267Y-61428989D01*
X133645915Y-61544701D01*
X133394505Y-61712688D01*
X133180698Y-61926495D01*
X133012711Y-62177905D01*
X132896999Y-62457257D01*
X132838010Y-62753816D01*
X120190800Y-62753816D01*
X120190800Y-60732000D01*
X125138000Y-60732000D01*
X125138000Y-61132000D01*
X125196114Y-61468041D01*
X125318670Y-61786288D01*
X125500958Y-62074511D01*
X125735973Y-62321633D01*
X126014683Y-62518157D01*
X126326378Y-62656531D01*
X126476878Y-62694175D01*
X126746000Y-62576125D01*
X126746000Y-60732000D01*
X127000000Y-60732000D01*
X127000000Y-62576125D01*
X127269122Y-62694175D01*
X127419622Y-62656531D01*
X127731317Y-62518157D01*
X128010027Y-62321633D01*
X128245042Y-62074511D01*
X128427330Y-61786288D01*
X128549886Y-61468041D01*
X128608000Y-61132000D01*
X128608000Y-60732000D01*
X127000000Y-60732000D01*
X126746000Y-60732000D01*
X125138000Y-60732000D01*
X120190800Y-60732000D01*
X120190800Y-60078000D01*
X125138000Y-60078000D01*
X125138000Y-60478000D01*
X126746000Y-60478000D01*
X126746000Y-58633875D01*
X127000000Y-58633875D01*
X127000000Y-60478000D01*
X128608000Y-60478000D01*
X128608000Y-60078000D01*
X128549886Y-59741959D01*
X128427330Y-59423712D01*
X128245042Y-59135489D01*
X128010027Y-58888367D01*
X127731317Y-58691843D01*
X127419622Y-58553469D01*
X127269122Y-58515825D01*
X127000000Y-58633875D01*
X126746000Y-58633875D01*
X126476878Y-58515825D01*
X126326378Y-58553469D01*
X126014683Y-58691843D01*
X125735973Y-58888367D01*
X125500958Y-59135489D01*
X125318670Y-59423712D01*
X125196114Y-59741959D01*
X125138000Y-60078000D01*
X120190800Y-60078000D01*
X120190800Y-59792064D01*
X120194476Y-59754741D01*
X120190800Y-59717419D01*
X120190800Y-59717408D01*
X120179803Y-59605755D01*
X120136346Y-59462494D01*
X120084010Y-59364582D01*
X120084010Y-54440467D01*
X122126000Y-54440467D01*
X122126000Y-54762533D01*
X122188832Y-55078412D01*
X122312082Y-55375963D01*
X122491013Y-55643752D01*
X122718748Y-55871487D01*
X122986537Y-56050418D01*
X123284088Y-56173668D01*
X123599967Y-56236500D01*
X123922033Y-56236500D01*
X124237912Y-56173668D01*
X124535463Y-56050418D01*
X124803252Y-55871487D01*
X125030987Y-55643752D01*
X125209918Y-55375963D01*
X125333168Y-55078412D01*
X125396000Y-54762533D01*
X125396000Y-54546500D01*
X125535928Y-54546500D01*
X125535928Y-56070500D01*
X125548188Y-56194982D01*
X125584498Y-56314680D01*
X125643463Y-56424994D01*
X125722815Y-56521685D01*
X125819506Y-56601037D01*
X125929820Y-56660002D01*
X126049518Y-56696312D01*
X126174000Y-56708572D01*
X127698000Y-56708572D01*
X127822482Y-56696312D01*
X127942180Y-56660002D01*
X128052494Y-56601037D01*
X128149185Y-56521685D01*
X128228537Y-56424994D01*
X128287502Y-56314680D01*
X128323812Y-56194982D01*
X128336072Y-56070500D01*
X128336072Y-54546500D01*
X128323812Y-54422018D01*
X128287502Y-54302320D01*
X128228537Y-54192006D01*
X128149185Y-54095315D01*
X128052494Y-54015963D01*
X127942180Y-53956998D01*
X127822482Y-53920688D01*
X127698000Y-53908428D01*
X126174000Y-53908428D01*
X126049518Y-53920688D01*
X125929820Y-53956998D01*
X125819506Y-54015963D01*
X125722815Y-54095315D01*
X125643463Y-54192006D01*
X125584498Y-54302320D01*
X125548188Y-54422018D01*
X125535928Y-54546500D01*
X125396000Y-54546500D01*
X125396000Y-54440467D01*
X125333168Y-54124588D01*
X125327177Y-54110125D01*
X125642102Y-53795200D01*
X128379899Y-53795200D01*
X128694823Y-54110124D01*
X128688832Y-54124588D01*
X128626000Y-54440467D01*
X128626000Y-54762533D01*
X128688832Y-55078412D01*
X128812082Y-55375963D01*
X128991013Y-55643752D01*
X129218748Y-55871487D01*
X129486537Y-56050418D01*
X129784088Y-56173668D01*
X130099967Y-56236500D01*
X130422033Y-56236500D01*
X130737912Y-56173668D01*
X131035463Y-56050418D01*
X131303252Y-55871487D01*
X131530987Y-55643752D01*
X131709918Y-55375963D01*
X131833168Y-55078412D01*
X131896000Y-54762533D01*
X131896000Y-54440467D01*
X131833168Y-54124588D01*
X131709918Y-53827037D01*
X131530987Y-53559248D01*
X131303252Y-53331513D01*
X131035463Y-53152582D01*
X130737912Y-53029332D01*
X130422033Y-52966500D01*
X130099967Y-52966500D01*
X129784088Y-53029332D01*
X129769624Y-53035323D01*
X129258504Y-52524203D01*
X129234701Y-52495199D01*
X129118976Y-52400226D01*
X128986947Y-52329654D01*
X128843686Y-52286197D01*
X128732033Y-52275200D01*
X128732022Y-52275200D01*
X128694700Y-52271524D01*
X128657378Y-52275200D01*
X125364625Y-52275200D01*
X125327300Y-52271524D01*
X125289975Y-52275200D01*
X125289967Y-52275200D01*
X125178314Y-52286197D01*
X125035053Y-52329654D01*
X124903024Y-52400226D01*
X124787299Y-52495199D01*
X124763501Y-52524197D01*
X124252375Y-53035323D01*
X124237912Y-53029332D01*
X123922033Y-52966500D01*
X123599967Y-52966500D01*
X123284088Y-53029332D01*
X122986537Y-53152582D01*
X122718748Y-53331513D01*
X122491013Y-53559248D01*
X122312082Y-53827037D01*
X122188832Y-54124588D01*
X122126000Y-54440467D01*
X120084010Y-54440467D01*
X120084010Y-51678791D01*
X120901303Y-50861500D01*
X122306091Y-50861500D01*
X122312082Y-50875963D01*
X122491013Y-51143752D01*
X122718748Y-51371487D01*
X122986537Y-51550418D01*
X123284088Y-51673668D01*
X123599967Y-51736500D01*
X123922033Y-51736500D01*
X124237912Y-51673668D01*
X124535463Y-51550418D01*
X124803252Y-51371487D01*
X125030987Y-51143752D01*
X125209918Y-50875963D01*
X125333168Y-50578412D01*
X125396000Y-50262533D01*
X125396000Y-49940467D01*
X125333168Y-49624588D01*
X125209918Y-49327037D01*
X125048193Y-49084999D01*
X125562255Y-49084999D01*
X125539000Y-49201908D01*
G37*
X125539000Y-49201908D02*
X125539000Y-49477092D01*
X125592686Y-49746990D01*
X125697995Y-50001227D01*
X125850880Y-50230035D01*
X126045465Y-50424620D01*
X126274273Y-50577505D01*
X126528510Y-50682814D01*
X126798408Y-50736500D01*
X127073592Y-50736500D01*
X127343490Y-50682814D01*
X127597727Y-50577505D01*
X127826535Y-50424620D01*
X128021120Y-50230035D01*
X128174005Y-50001227D01*
X128279314Y-49746990D01*
X128333000Y-49477092D01*
X128333000Y-49201908D01*
X128309745Y-49084999D01*
X128973807Y-49084999D01*
X128812082Y-49327037D01*
X128688832Y-49624588D01*
X128626000Y-49940467D01*
X128626000Y-50262533D01*
X128688832Y-50578412D01*
X128812082Y-50875963D01*
X128991013Y-51143752D01*
X129218748Y-51371487D01*
X129486537Y-51550418D01*
X129784088Y-51673668D01*
X130099967Y-51736500D01*
X130422033Y-51736500D01*
X130737912Y-51673668D01*
X131035463Y-51550418D01*
X131303252Y-51371487D01*
X131530987Y-51143752D01*
X131709918Y-50875963D01*
X131833168Y-50578412D01*
X131896000Y-50262533D01*
X131896000Y-49940467D01*
X131833168Y-49624588D01*
X131709918Y-49327037D01*
X131548193Y-49084999D01*
X135925000Y-49084999D01*
X135925000Y-101216742D01*
X135005907Y-100297648D01*
X135024209Y-100291222D01*
X135173802Y-100211261D01*
X135257485Y-99957080D01*
X134373010Y-99072605D01*
X134358868Y-99086748D01*
X134179263Y-98907143D01*
X134193405Y-98893000D01*
X134552615Y-98893000D01*
X135437090Y-99777475D01*
X135691271Y-99693792D01*
X135822168Y-99421225D01*
X135897375Y-99128358D01*
X135914001Y-98826447D01*
X135871407Y-98527093D01*
X135771232Y-98241801D01*
X135691271Y-98092208D01*
X135437090Y-98008525D01*
X134552615Y-98893000D01*
X134193405Y-98893000D01*
X134179263Y-98878858D01*
X134358868Y-98699253D01*
X134373010Y-98713395D01*
X135257485Y-97828920D01*
X135189691Y-97623000D01*
X135257485Y-97417080D01*
X134373010Y-96532605D01*
X134358868Y-96546748D01*
X134179263Y-96367143D01*
X134193405Y-96353000D01*
X134552615Y-96353000D01*
X135437090Y-97237475D01*
X135691271Y-97153792D01*
X135822168Y-96881225D01*
X135897375Y-96588358D01*
X135914001Y-96286447D01*
X135871407Y-95987093D01*
X135771232Y-95701801D01*
X135691271Y-95552208D01*
X135437090Y-95468525D01*
X134552615Y-96353000D01*
X134193405Y-96353000D01*
X134179263Y-96338858D01*
X134358868Y-96159253D01*
X134373010Y-96173395D01*
X135257485Y-95288920D01*
X135219494Y-95173526D01*
X135351515Y-95085312D01*
X135565322Y-94871505D01*
X135733309Y-94620095D01*
X135849021Y-94340743D01*
X135908010Y-94044184D01*
X135908010Y-93741816D01*
X135849021Y-93445257D01*
X135733309Y-93165905D01*
X135565322Y-92914495D01*
X135351515Y-92700688D01*
X135133000Y-92554681D01*
X135133000Y-84673819D01*
X135351515Y-84527812D01*
X135565322Y-84314005D01*
X135733309Y-84062595D01*
X135849021Y-83783243D01*
X135908010Y-83486684D01*
X135908010Y-83184316D01*
X135849021Y-82887757D01*
X135733309Y-82608405D01*
X135565322Y-82356995D01*
X135351515Y-82143188D01*
X135235247Y-82065500D01*
X135351515Y-81987812D01*
X135565322Y-81774005D01*
X135733309Y-81522595D01*
X135849021Y-81243243D01*
X135908010Y-80946684D01*
X135908010Y-80644316D01*
X135849021Y-80347757D01*
X135733309Y-80068405D01*
X135565322Y-79816995D01*
X135351515Y-79603188D01*
X135295111Y-79565500D01*
X135351515Y-79527812D01*
X135565322Y-79314005D01*
X135733309Y-79062595D01*
X135849021Y-78783243D01*
X135908010Y-78486684D01*
X135908010Y-78184316D01*
X135849021Y-77887757D01*
X135733309Y-77608405D01*
X135565322Y-77356995D01*
X135351515Y-77143188D01*
X135100105Y-76975201D01*
X134820753Y-76859489D01*
X134524194Y-76800500D01*
X134221826Y-76800500D01*
X133925267Y-76859489D01*
X133645915Y-76975201D01*
X133394505Y-77143188D01*
X133180698Y-77356995D01*
X133012711Y-77608405D01*
X132896999Y-77887757D01*
X132838010Y-78184316D01*
X132838010Y-78486684D01*
X132896999Y-78783243D01*
X133012711Y-79062595D01*
X133180698Y-79314005D01*
X133394505Y-79527812D01*
X133450909Y-79565500D01*
X133394505Y-79603188D01*
X133325247Y-79672446D01*
X132639904Y-78987103D01*
X132616101Y-78958099D01*
X132500376Y-78863126D01*
X132368347Y-78792554D01*
X132225086Y-78749097D01*
X132113433Y-78738100D01*
X132113422Y-78738100D01*
X132076100Y-78734424D01*
X132038778Y-78738100D01*
X130196398Y-78738100D01*
X130166564Y-78734570D01*
X130121735Y-78738100D01*
X130114267Y-78738100D01*
X130084493Y-78741033D01*
X130017319Y-78746322D01*
X130010092Y-78748360D01*
X130002614Y-78749097D01*
X129938102Y-78768666D01*
X129873234Y-78786963D01*
X129866541Y-78790373D01*
X129859353Y-78792554D01*
X129799894Y-78824336D01*
X129739847Y-78854935D01*
X129733949Y-78859585D01*
X129727324Y-78863126D01*
X129675233Y-78905876D01*
X129651742Y-78924396D01*
X129646358Y-78929573D01*
X129611599Y-78958099D01*
X129592541Y-78981321D01*
X128859481Y-79686200D01*
X128777661Y-79686200D01*
X128577702Y-79725974D01*
X128389344Y-79803995D01*
X128219826Y-79917263D01*
X128075663Y-80061426D01*
X127962395Y-80230944D01*
X127884374Y-80419302D01*
X127844600Y-80619261D01*
X127844600Y-80823139D01*
X127884374Y-81023098D01*
X127962395Y-81211456D01*
X128075663Y-81380974D01*
X128219826Y-81525137D01*
X128389344Y-81638405D01*
X128577702Y-81716426D01*
X128777661Y-81756200D01*
X128981539Y-81756200D01*
X129181498Y-81716426D01*
X129369856Y-81638405D01*
X129539374Y-81525137D01*
X129683537Y-81380974D01*
X129796805Y-81211456D01*
X129849638Y-81083907D01*
X130000044Y-81184405D01*
X130188402Y-81262426D01*
X130388361Y-81302200D01*
X130592239Y-81302200D01*
X130792198Y-81262426D01*
X130980556Y-81184405D01*
X131150074Y-81071137D01*
X131194011Y-81027200D01*
X131412799Y-81027200D01*
X132388010Y-82002412D01*
X132388009Y-83886178D01*
X132384333Y-83923501D01*
X132388009Y-83960823D01*
X132388009Y-83960833D01*
X132399006Y-84072486D01*
X132442463Y-84215747D01*
X132513035Y-84347777D01*
X132541865Y-84382906D01*
X132608008Y-84463502D01*
X132637011Y-84487304D01*
X132996401Y-84846695D01*
X132996400Y-89754239D01*
X132844902Y-89784374D01*
X132656544Y-89862395D01*
X132487026Y-89975663D01*
X132342863Y-90119826D01*
X132229595Y-90289344D01*
X132151574Y-90477702D01*
X132122717Y-90622775D01*
X132111159Y-90616597D01*
X131871763Y-90543977D01*
X131685180Y-90525600D01*
X131685173Y-90525600D01*
X131622800Y-90519457D01*
X131560427Y-90525600D01*
X129985620Y-90525600D01*
X129799037Y-90543977D01*
X129559641Y-90616597D01*
X129339012Y-90734525D01*
X129145630Y-90893230D01*
X128986925Y-91086612D01*
X128868997Y-91307241D01*
X128796377Y-91546637D01*
X128771856Y-91795600D01*
X128796377Y-92044563D01*
X128868997Y-92283959D01*
X128986925Y-92504588D01*
X129145630Y-92697970D01*
X129339012Y-92856675D01*
X129559641Y-92974603D01*
X129799037Y-93047223D01*
X129985620Y-93065600D01*
X131096750Y-93065600D01*
X131368009Y-93336860D01*
X131368010Y-99663418D01*
X131361866Y-99725801D01*
X131386386Y-99974764D01*
X131436019Y-100138379D01*
X131459007Y-100214160D01*
X131576935Y-100434789D01*
X131735640Y-100628171D01*
X131784095Y-100667937D01*
X134455000Y-103338843D01*
X134455001Y-104794948D01*
X131784091Y-107465859D01*
X131735630Y-107505630D01*
X131576925Y-107699013D01*
X131458997Y-107919642D01*
X131386377Y-108159038D01*
X131368000Y-108345621D01*
X131368000Y-108345627D01*
X131361857Y-108408000D01*
X131368000Y-108470373D01*
X131368001Y-115157617D01*
X131361857Y-115220000D01*
X131386377Y-115468963D01*
X131458998Y-115708359D01*
X131576926Y-115928988D01*
X131735631Y-116122370D01*
X131784086Y-116162137D01*
X134366000Y-118744051D01*
X134366001Y-124325951D01*
X134171646Y-124193285D01*
X133911818Y-124082633D01*
X133829039Y-124065096D01*
X133607000Y-124187085D01*
X133607000Y-125730000D01*
X133627000Y-125730000D01*
X133627000Y-125984000D01*
X133607000Y-125984000D01*
X133607000Y-127526915D01*
X133829039Y-127648904D01*
X133911818Y-127631367D01*
X134171646Y-127520715D01*
X134366001Y-127388049D01*
X134366001Y-127699610D01*
X134366000Y-127699620D01*
X134366000Y-129602379D01*
X134384377Y-129788962D01*
X134456997Y-130028358D01*
X134574925Y-130248987D01*
X134733630Y-130442370D01*
X134927012Y-130601075D01*
X135147641Y-130719003D01*
X135387037Y-130791623D01*
X135636000Y-130816144D01*
X135884962Y-130791623D01*
X135925001Y-130779477D01*
X135925001Y-154115000D01*
X118075000Y-154115000D01*
X118075000Y-149241964D01*
X120695000Y-149241964D01*
X120695000Y-150478037D01*
X120715040Y-150681507D01*
X120794236Y-150942581D01*
X120922843Y-151183188D01*
X121095920Y-151394081D01*
X121306813Y-151567157D01*
X121547420Y-151695764D01*
X121808494Y-151774960D01*
X122080000Y-151801701D01*
X122351507Y-151774960D01*
X122612581Y-151695764D01*
X122853188Y-151567157D01*
X123064081Y-151394081D01*
X123237157Y-151183188D01*
X123365764Y-150942581D01*
X123444960Y-150681507D01*
X123465000Y-150478037D01*
X123465000Y-149842013D01*
X125045755Y-149842013D01*
X125096555Y-150248413D01*
X125102091Y-150272822D01*
X125254491Y-150730022D01*
X125259215Y-150742098D01*
X125271630Y-150763678D01*
X125525630Y-151119278D01*
X125546323Y-151141887D01*
X125901923Y-151446687D01*
X125927778Y-151463853D01*
X126334178Y-151667053D01*
X126360172Y-151676669D01*
X126766572Y-151778269D01*
X126797374Y-151782061D01*
X127051374Y-151782061D01*
X127067126Y-151781080D01*
X127473526Y-151730280D01*
X127504941Y-151722178D01*
X128012941Y-151518978D01*
X128026481Y-151512612D01*
X128047077Y-151498625D01*
X128351877Y-151244625D01*
X128372174Y-151223261D01*
X128676974Y-150816861D01*
X128692105Y-150790689D01*
X128844505Y-150435089D01*
X128852308Y-150409968D01*
X128945000Y-149946508D01*
X128945000Y-150430492D01*
X128965764Y-150641309D01*
X129047818Y-150911808D01*
X129181068Y-151161101D01*
X129360393Y-151379608D01*
X129578900Y-151558932D01*
X129828193Y-151692182D01*
X130098692Y-151774236D01*
X130380000Y-151801943D01*
X130661309Y-151774236D01*
X130931808Y-151692182D01*
X131181101Y-151558932D01*
X131399608Y-151379608D01*
X131578932Y-151161101D01*
X131712182Y-150911808D01*
X131794236Y-150641309D01*
X131815000Y-150430492D01*
X131815000Y-149987000D01*
X132045000Y-149987000D01*
X132045000Y-150387000D01*
X132097350Y-150664514D01*
X132202834Y-150926483D01*
X132357399Y-151162839D01*
X132555105Y-151364500D01*
X132788354Y-151523715D01*
X133048182Y-151634367D01*
X133130961Y-151651904D01*
X133353000Y-151529915D01*
X133353000Y-149987000D01*
X133607000Y-149987000D01*
X133607000Y-151529915D01*
X133829039Y-151651904D01*
X133911818Y-151634367D01*
X134171646Y-151523715D01*
X134404895Y-151364500D01*
X134602601Y-151162839D01*
X134757166Y-150926483D01*
X134862650Y-150664514D01*
X134915000Y-150387000D01*
X134915000Y-149987000D01*
X133607000Y-149987000D01*
X133353000Y-149987000D01*
X132045000Y-149987000D01*
X131815000Y-149987000D01*
X131815000Y-149333000D01*
X132045000Y-149333000D01*
X132045000Y-149733000D01*
X133353000Y-149733000D01*
X133353000Y-148190085D01*
X133607000Y-148190085D01*
X133607000Y-149733000D01*
X134915000Y-149733000D01*
X134915000Y-149333000D01*
X134862650Y-149055486D01*
X134757166Y-148793517D01*
X134602601Y-148557161D01*
X134404895Y-148355500D01*
X134171646Y-148196285D01*
X133911818Y-148085633D01*
X133829039Y-148068096D01*
X133607000Y-148190085D01*
X133353000Y-148190085D01*
X133130961Y-148068096D01*
X133048182Y-148085633D01*
X132788354Y-148196285D01*
X132555105Y-148355500D01*
X132357399Y-148557161D01*
X132202834Y-148793517D01*
X132097350Y-149055486D01*
X132045000Y-149333000D01*
X131815000Y-149333000D01*
X131815000Y-149289508D01*
X131794236Y-149078691D01*
X131712182Y-148808192D01*
X131578932Y-148558899D01*
X131399607Y-148340392D01*
X131181100Y-148161068D01*
X130931807Y-148027818D01*
X130661308Y-147945764D01*
X130380000Y-147918057D01*
X130098691Y-147945764D01*
X129828192Y-148027818D01*
X129578899Y-148161068D01*
X129360392Y-148340393D01*
X129181068Y-148558900D01*
X129047818Y-148808193D01*
X128965764Y-149078692D01*
X128945000Y-149289509D01*
X128945000Y-149778165D01*
X128904593Y-149454909D01*
X128897488Y-149426068D01*
X128745088Y-149019668D01*
X128731844Y-148993814D01*
X128528644Y-148689014D01*
X128512777Y-148669658D01*
X128309577Y-148466458D01*
X128299110Y-148457091D01*
X128045110Y-148253891D01*
X128028784Y-148242794D01*
X127673184Y-148039594D01*
X127661381Y-148033642D01*
X127637724Y-148025885D01*
X127180524Y-147924285D01*
X127152974Y-147921261D01*
X127000574Y-147921261D01*
X126984822Y-147922242D01*
X126578422Y-147973042D01*
X126549581Y-147980147D01*
X126143181Y-148132547D01*
X126117327Y-148145791D01*
X125812527Y-148348991D01*
X125793171Y-148364858D01*
X125437571Y-148720458D01*
X125417107Y-148747251D01*
X125213907Y-149102851D01*
X125203691Y-149125700D01*
X125102091Y-149430500D01*
X125096850Y-149452700D01*
X125046050Y-149808300D01*
X125045755Y-149842013D01*
X123465000Y-149842013D01*
X123465000Y-149241963D01*
X123444960Y-149038493D01*
X123365764Y-148777419D01*
X123237157Y-148536812D01*
X123064080Y-148325919D01*
X122853187Y-148152843D01*
X122612580Y-148024236D01*
X122351506Y-147945040D01*
X122080000Y-147918299D01*
X121808493Y-147945040D01*
X121547419Y-148024236D01*
X121306812Y-148152843D01*
X121095919Y-148325920D01*
X120922843Y-148536813D01*
X120794236Y-148777420D01*
X120715040Y-149038494D01*
X120695000Y-149241964D01*
X118075000Y-149241964D01*
X118075000Y-130807478D01*
X118115037Y-130819623D01*
X118364000Y-130844144D01*
X118612962Y-130819623D01*
X118770401Y-130771864D01*
X118770401Y-135272967D01*
X118766714Y-135310400D01*
X118781427Y-135459778D01*
X118824999Y-135603415D01*
X118895755Y-135735792D01*
X118967121Y-135822751D01*
X118990979Y-135851822D01*
X119020049Y-135875679D01*
X120695000Y-137550631D01*
X120695000Y-138476037D01*
X120715040Y-138679507D01*
X120794236Y-138940581D01*
X120922843Y-139181188D01*
X121095920Y-139392081D01*
X121306813Y-139565157D01*
X121547420Y-139693764D01*
X121808494Y-139772960D01*
X122080000Y-139799701D01*
X122351507Y-139772960D01*
X122612581Y-139693764D01*
X122853188Y-139565157D01*
X123064081Y-139392081D01*
X123237157Y-139181188D01*
X123365764Y-138940581D01*
X123444960Y-138679507D01*
X123465000Y-138476037D01*
X123465000Y-137836152D01*
X125045181Y-137836152D01*
X125095981Y-138242552D01*
X125101517Y-138266961D01*
X125253917Y-138724161D01*
X125258641Y-138736237D01*
X125271056Y-138757817D01*
X125525056Y-139113417D01*
X125545749Y-139136026D01*
X125901349Y-139440826D01*
X125927204Y-139457992D01*
X126333604Y-139661192D01*
X126359598Y-139670808D01*
X126765998Y-139772408D01*
X126796800Y-139776200D01*
X127050800Y-139776200D01*
X127066552Y-139775219D01*
X127472952Y-139724419D01*
X127504367Y-139716317D01*
X128012367Y-139513117D01*
X128025907Y-139506751D01*
X128046503Y-139492764D01*
X128351303Y-139238764D01*
X128371600Y-139217400D01*
X128676400Y-138811000D01*
X128691531Y-138784828D01*
X128843931Y-138429228D01*
X128851734Y-138404107D01*
X128945000Y-137937777D01*
X128945000Y-138428492D01*
X128965764Y-138639309D01*
X129047818Y-138909808D01*
X129181068Y-139159101D01*
X129360393Y-139377608D01*
X129578900Y-139556932D01*
X129828193Y-139690182D01*
X130098692Y-139772236D01*
X130380000Y-139799943D01*
X130661309Y-139772236D01*
X130931808Y-139690182D01*
X131181101Y-139556932D01*
X131399608Y-139377608D01*
X131578932Y-139159101D01*
X131712182Y-138909808D01*
X131794236Y-138639309D01*
X131815000Y-138428492D01*
X131815000Y-137985000D01*
X132045000Y-137985000D01*
X132045000Y-138385000D01*
X132097350Y-138662514D01*
X132202834Y-138924483D01*
X132357399Y-139160839D01*
X132555105Y-139362500D01*
X132788354Y-139521715D01*
X133048182Y-139632367D01*
X133130961Y-139649904D01*
X133353000Y-139527915D01*
X133353000Y-137985000D01*
X133607000Y-137985000D01*
X133607000Y-139527915D01*
X133829039Y-139649904D01*
X133911818Y-139632367D01*
X134171646Y-139521715D01*
X134404895Y-139362500D01*
X134602601Y-139160839D01*
X134757166Y-138924483D01*
X134862650Y-138662514D01*
X134915000Y-138385000D01*
X134915000Y-137985000D01*
X133607000Y-137985000D01*
X133353000Y-137985000D01*
X132045000Y-137985000D01*
X131815000Y-137985000D01*
X131815000Y-137331000D01*
X132045000Y-137331000D01*
X132045000Y-137731000D01*
X133353000Y-137731000D01*
X133353000Y-136188085D01*
X133607000Y-136188085D01*
X133607000Y-137731000D01*
X134915000Y-137731000D01*
X134915000Y-137331000D01*
X134862650Y-137053486D01*
X134757166Y-136791517D01*
X134602601Y-136555161D01*
X134404895Y-136353500D01*
X134171646Y-136194285D01*
X133911818Y-136083633D01*
X133829039Y-136066096D01*
X133607000Y-136188085D01*
X133353000Y-136188085D01*
X133130961Y-136066096D01*
X133048182Y-136083633D01*
X132788354Y-136194285D01*
X132555105Y-136353500D01*
X132357399Y-136555161D01*
X132202834Y-136791517D01*
X132097350Y-137053486D01*
X132045000Y-137331000D01*
X131815000Y-137331000D01*
X131815000Y-137287508D01*
X131794236Y-137076691D01*
X131712182Y-136806192D01*
X131578932Y-136556899D01*
X131399607Y-136338392D01*
X131181100Y-136159068D01*
X130931807Y-136025818D01*
X130661308Y-135943764D01*
X130380000Y-135916057D01*
X130098691Y-135943764D01*
X129828192Y-136025818D01*
X129578899Y-136159068D01*
X129360392Y-136338393D01*
X129181068Y-136556900D01*
X129047818Y-136806193D01*
X128965764Y-137076692D01*
X128945000Y-137287509D01*
X128945000Y-137776896D01*
X128904019Y-137449048D01*
X128896914Y-137420207D01*
X128744514Y-137013807D01*
X128731270Y-136987953D01*
X128528070Y-136683153D01*
X128512203Y-136663797D01*
X128309003Y-136460597D01*
X128298536Y-136451230D01*
X128044536Y-136248030D01*
X128028210Y-136236933D01*
X127672610Y-136033733D01*
X127660807Y-136027781D01*
X127637150Y-136020024D01*
X127179950Y-135918424D01*
X127152400Y-135915400D01*
X127000000Y-135915400D01*
X126984248Y-135916381D01*
X126577848Y-135967181D01*
X126549007Y-135974286D01*
X126142607Y-136126686D01*
X126116753Y-136139930D01*
X125811953Y-136343130D01*
X125792597Y-136358997D01*
X125436997Y-136714597D01*
X125416533Y-136741390D01*
X125213333Y-137096990D01*
X125203117Y-137119839D01*
X125101517Y-137424639D01*
X125096276Y-137446839D01*
X125045476Y-137802439D01*
X125045181Y-137836152D01*
X123465000Y-137836152D01*
X123465000Y-137239963D01*
X123444960Y-137036493D01*
X123365764Y-136775419D01*
X123237157Y-136534812D01*
X123064080Y-136323919D01*
X122853187Y-136150843D01*
X122612580Y-136022236D01*
X122351506Y-135943040D01*
X122080000Y-135916299D01*
X121808493Y-135943040D01*
X121547419Y-136022236D01*
X121400432Y-136100802D01*
X120294400Y-134994770D01*
X120294400Y-125238964D01*
X120695000Y-125238964D01*
X120695000Y-126475037D01*
X120715040Y-126678507D01*
X120794236Y-126939581D01*
X120922843Y-127180188D01*
X121095920Y-127391081D01*
X121306813Y-127564157D01*
X121547420Y-127692764D01*
X121808494Y-127771960D01*
X122080000Y-127798701D01*
X122351507Y-127771960D01*
X122612581Y-127692764D01*
X122853188Y-127564157D01*
X123064081Y-127391081D01*
X123237157Y-127180188D01*
X123365764Y-126939581D01*
X123444960Y-126678507D01*
X123465000Y-126475037D01*
X123465000Y-125847352D01*
X125045181Y-125847352D01*
X125095981Y-126253752D01*
X125101517Y-126278161D01*
X125253917Y-126735361D01*
X125258641Y-126747437D01*
X125271056Y-126769017D01*
X125525056Y-127124617D01*
X125545749Y-127147226D01*
X125901349Y-127452026D01*
X125927204Y-127469192D01*
X126333604Y-127672392D01*
X126359598Y-127682008D01*
X126765998Y-127783608D01*
X126796800Y-127787400D01*
X127050800Y-127787400D01*
X127066552Y-127786419D01*
X127472952Y-127735619D01*
X127504367Y-127727517D01*
X128012367Y-127524317D01*
X128025907Y-127517951D01*
X128046503Y-127503964D01*
X128351303Y-127249964D01*
X128371600Y-127228600D01*
X128676400Y-126822200D01*
X128691531Y-126796028D01*
X128843931Y-126440428D01*
X128851734Y-126415307D01*
X128945000Y-125948977D01*
X128945000Y-126427492D01*
X128965764Y-126638309D01*
X129047818Y-126908808D01*
X129181068Y-127158101D01*
X129360393Y-127376608D01*
X129578900Y-127555932D01*
X129828193Y-127689182D01*
X130098692Y-127771236D01*
X130380000Y-127798943D01*
X130661309Y-127771236D01*
X130931808Y-127689182D01*
X131181101Y-127555932D01*
X131399608Y-127376608D01*
X131578932Y-127158101D01*
X131712182Y-126908808D01*
X131794236Y-126638309D01*
X131815000Y-126427492D01*
X131815000Y-125984000D01*
X132045000Y-125984000D01*
X132045000Y-126384000D01*
X132097350Y-126661514D01*
X132202834Y-126923483D01*
X132357399Y-127159839D01*
X132555105Y-127361500D01*
X132788354Y-127520715D01*
X133048182Y-127631367D01*
X133130961Y-127648904D01*
X133353000Y-127526915D01*
X133353000Y-125984000D01*
X132045000Y-125984000D01*
X131815000Y-125984000D01*
X131815000Y-125330000D01*
X132045000Y-125330000D01*
X132045000Y-125730000D01*
X133353000Y-125730000D01*
X133353000Y-124187085D01*
X133130961Y-124065096D01*
X133048182Y-124082633D01*
X132788354Y-124193285D01*
X132555105Y-124352500D01*
X132357399Y-124554161D01*
X132202834Y-124790517D01*
X132097350Y-125052486D01*
X132045000Y-125330000D01*
X131815000Y-125330000D01*
X131815000Y-125286508D01*
X131794236Y-125075691D01*
X131712182Y-124805192D01*
X131578932Y-124555899D01*
X131399607Y-124337392D01*
X131181100Y-124158068D01*
X130931807Y-124024818D01*
X130661308Y-123942764D01*
X130380000Y-123915057D01*
X130098691Y-123942764D01*
X129828192Y-124024818D01*
X129578899Y-124158068D01*
X129360392Y-124337393D01*
X129181068Y-124555900D01*
X129047818Y-124805193D01*
X128965764Y-125075692D01*
X128945000Y-125286509D01*
X128945000Y-125788096D01*
X128904019Y-125460248D01*
X128896914Y-125431407D01*
X128744514Y-125025007D01*
X128731270Y-124999153D01*
X128528070Y-124694353D01*
X128512203Y-124674997D01*
X128309003Y-124471797D01*
X128298536Y-124462430D01*
X128044536Y-124259230D01*
X128028210Y-124248133D01*
X127672610Y-124044933D01*
X127660807Y-124038981D01*
X127637150Y-124031224D01*
X127179950Y-123929624D01*
X127152400Y-123926600D01*
X127000000Y-123926600D01*
X126984248Y-123927581D01*
X126577848Y-123978381D01*
X126549007Y-123985486D01*
X126142607Y-124137886D01*
X126116753Y-124151130D01*
X125811953Y-124354330D01*
X125792597Y-124370197D01*
X125436997Y-124725797D01*
X125416533Y-124752590D01*
X125213333Y-125108190D01*
X125203117Y-125131039D01*
X125101517Y-125435839D01*
X125096276Y-125458039D01*
X125045476Y-125813639D01*
X125045181Y-125847352D01*
X123465000Y-125847352D01*
X123465000Y-125238963D01*
X123444960Y-125035493D01*
X123365764Y-124774419D01*
X123237157Y-124533812D01*
X123064080Y-124322919D01*
X122853187Y-124149843D01*
X122612580Y-124021236D01*
X122351506Y-123942040D01*
X122080000Y-123915299D01*
X121808493Y-123942040D01*
X121547419Y-124021236D01*
X121306812Y-124149843D01*
X121095919Y-124322920D01*
X120922843Y-124533813D01*
X120794236Y-124774420D01*
X120715040Y-125035494D01*
X120695000Y-125238964D01*
X120294400Y-125238964D01*
X120294400Y-119532061D01*
X126676200Y-119532061D01*
X126676200Y-119735939D01*
X126715974Y-119935898D01*
X126793995Y-120124256D01*
X126907263Y-120293774D01*
X127051426Y-120437937D01*
X127220944Y-120551205D01*
X127409302Y-120629226D01*
X127609261Y-120669000D01*
X127813139Y-120669000D01*
X128013098Y-120629226D01*
X128201456Y-120551205D01*
X128370974Y-120437937D01*
X128515137Y-120293774D01*
X128628405Y-120124256D01*
X128706426Y-119935898D01*
X128746200Y-119735939D01*
X128746200Y-119532061D01*
X128706426Y-119332102D01*
X128628405Y-119143744D01*
X128515137Y-118974226D01*
X128473200Y-118932289D01*
X128473200Y-118882830D01*
X128769831Y-118586200D01*
X128829139Y-118586200D01*
X129029098Y-118546426D01*
X129217456Y-118468405D01*
X129386974Y-118355137D01*
X129531137Y-118210974D01*
X129644405Y-118041456D01*
X129722426Y-117853098D01*
X129762200Y-117653139D01*
X129762200Y-117449261D01*
X129722426Y-117249302D01*
X129644405Y-117060944D01*
X129531137Y-116891426D01*
X129386974Y-116747263D01*
X129217456Y-116633995D01*
X129029098Y-116555974D01*
X128829139Y-116516200D01*
X128625261Y-116516200D01*
X128608000Y-116519633D01*
X128608000Y-116160000D01*
X128549886Y-115823959D01*
X128427330Y-115505712D01*
X128245042Y-115217489D01*
X128010027Y-114970367D01*
X127731317Y-114773843D01*
X127419622Y-114635469D01*
X127269122Y-114597825D01*
X127000000Y-114715875D01*
X127000000Y-116560000D01*
X127020000Y-116560000D01*
X127020000Y-116814000D01*
X127000000Y-116814000D01*
X127000000Y-118286706D01*
X126960226Y-118417823D01*
X126949200Y-118529774D01*
X126945514Y-118567200D01*
X126949200Y-118604624D01*
X126949200Y-118932289D01*
X126907263Y-118974226D01*
X126793995Y-119143744D01*
X126715974Y-119332102D01*
X126676200Y-119532061D01*
X120294400Y-119532061D01*
X120294400Y-116814000D01*
X125138000Y-116814000D01*
X125138000Y-117214000D01*
X125196114Y-117550041D01*
X125318670Y-117868288D01*
X125500958Y-118156511D01*
X125735973Y-118403633D01*
X126014683Y-118600157D01*
X126326378Y-118738531D01*
X126476878Y-118776175D01*
X126746000Y-118658125D01*
X126746000Y-116814000D01*
X125138000Y-116814000D01*
X120294400Y-116814000D01*
X120294400Y-116160000D01*
X125138000Y-116160000D01*
X125138000Y-116560000D01*
X126746000Y-116560000D01*
X126746000Y-114715875D01*
X126476878Y-114597825D01*
X126326378Y-114635469D01*
X126014683Y-114773843D01*
X125735973Y-114970367D01*
X125500958Y-115217489D01*
X125318670Y-115505712D01*
X125196114Y-115823959D01*
X125138000Y-116160000D01*
X120294400Y-116160000D01*
X120294400Y-110061624D01*
X120479856Y-109984805D01*
X120649374Y-109871537D01*
X120793537Y-109727374D01*
X120906805Y-109557856D01*
X120984826Y-109369498D01*
X121024600Y-109169539D01*
X121024600Y-108965661D01*
X120984826Y-108765702D01*
X120906805Y-108577344D01*
X120793537Y-108407826D01*
X120649374Y-108263663D01*
X120479856Y-108150395D01*
X120291498Y-108072374D01*
X120091539Y-108032600D01*
X119887661Y-108032600D01*
X119687702Y-108072374D01*
X119634000Y-108094618D01*
X119634000Y-107214000D01*
X125138000Y-107214000D01*
X125138000Y-107614000D01*
X125196114Y-107950041D01*
X125318670Y-108268288D01*
X125500958Y-108556511D01*
X125735973Y-108803633D01*
X126014683Y-109000157D01*
X126326378Y-109138531D01*
X126476878Y-109176175D01*
X126746000Y-109058125D01*
X126746000Y-107214000D01*
X127000000Y-107214000D01*
X127000000Y-109058125D01*
X127269122Y-109176175D01*
X127419622Y-109138531D01*
X127731317Y-109000157D01*
X128010027Y-108803633D01*
X128245042Y-108556511D01*
X128427330Y-108268288D01*
X128549886Y-107950041D01*
X128608000Y-107614000D01*
X128608000Y-107214000D01*
X127000000Y-107214000D01*
X126746000Y-107214000D01*
X125138000Y-107214000D01*
X119634000Y-107214000D01*
X119634000Y-106560000D01*
X125138000Y-106560000D01*
X125138000Y-106960000D01*
X126746000Y-106960000D01*
X126746000Y-105115875D01*
X127000000Y-105115875D01*
X127000000Y-106960000D01*
X128608000Y-106960000D01*
X128608000Y-106560000D01*
X128549886Y-106223959D01*
X128427330Y-105905712D01*
X128245042Y-105617489D01*
X128010027Y-105370367D01*
X127731317Y-105173843D01*
X127419622Y-105035469D01*
X127269122Y-104997825D01*
X127000000Y-105115875D01*
X126746000Y-105115875D01*
X126476878Y-104997825D01*
X126326378Y-105035469D01*
X126014683Y-105173843D01*
X125735973Y-105370367D01*
X125500958Y-105617489D01*
X125318670Y-105905712D01*
X125196114Y-106223959D01*
X125138000Y-106560000D01*
X119634000Y-106560000D01*
X119634000Y-101320000D01*
X125138000Y-101320000D01*
X125138000Y-101720000D01*
X125196114Y-102056041D01*
X125318670Y-102374288D01*
X125500958Y-102662511D01*
X125735973Y-102909633D01*
X126014683Y-103106157D01*
X126326378Y-103244531D01*
X126476878Y-103282175D01*
X126746000Y-103164125D01*
X126746000Y-101320000D01*
X127000000Y-101320000D01*
X127000000Y-103164125D01*
X127269122Y-103282175D01*
X127419622Y-103244531D01*
X127731317Y-103106157D01*
X128010027Y-102909633D01*
X128245042Y-102662511D01*
X128427330Y-102374288D01*
X128549886Y-102056041D01*
X128608000Y-101720000D01*
X128608000Y-101320000D01*
X127000000Y-101320000D01*
X126746000Y-101320000D01*
X125138000Y-101320000D01*
X119634000Y-101320000D01*
X119634000Y-100666000D01*
X125138000Y-100666000D01*
X125138000Y-101066000D01*
X126746000Y-101066000D01*
X126746000Y-99221875D01*
X127000000Y-99221875D01*
X127000000Y-101066000D01*
X128608000Y-101066000D01*
X128608000Y-100666000D01*
X128549886Y-100329959D01*
X128427330Y-100011712D01*
X128245042Y-99723489D01*
X128010027Y-99476367D01*
X127731317Y-99279843D01*
X127419622Y-99141469D01*
X127269122Y-99103825D01*
X127000000Y-99221875D01*
X126746000Y-99221875D01*
X126476878Y-99103825D01*
X126326378Y-99141469D01*
X126014683Y-99279843D01*
X125735973Y-99476367D01*
X125500958Y-99723489D01*
X125318670Y-100011712D01*
X125196114Y-100329959D01*
X125138000Y-100666000D01*
X119634000Y-100666000D01*
X119634000Y-97950401D01*
X120478600Y-98795002D01*
X120478600Y-98857139D01*
X120518374Y-99057098D01*
X120596395Y-99245456D01*
X120709663Y-99414974D01*
X120853826Y-99559137D01*
X121023344Y-99672405D01*
X121211702Y-99750426D01*
X121411661Y-99790200D01*
X121615539Y-99790200D01*
X121815498Y-99750426D01*
X122003856Y-99672405D01*
X122173374Y-99559137D01*
X122317537Y-99414974D01*
X122430805Y-99245456D01*
X122508826Y-99057098D01*
X122548600Y-98857139D01*
X122548600Y-98653261D01*
X122508826Y-98453302D01*
X122430805Y-98264944D01*
X122317537Y-98095426D01*
X122173374Y-97951263D01*
X122003856Y-97837995D01*
X121815498Y-97759974D01*
X121615539Y-97720200D01*
X121553402Y-97720200D01*
X120190800Y-96357599D01*
X120190800Y-93642392D01*
X123936359Y-97387952D01*
X123960216Y-97417022D01*
X124076246Y-97512245D01*
X124208623Y-97583002D01*
X124352260Y-97626574D01*
X124464212Y-97637600D01*
X124464214Y-97637600D01*
X124501637Y-97641286D01*
X124539060Y-97637600D01*
X125637889Y-97637600D01*
X125679826Y-97679537D01*
X125849344Y-97792805D01*
X126037702Y-97870826D01*
X126237661Y-97910600D01*
X126441539Y-97910600D01*
X126641498Y-97870826D01*
X126829856Y-97792805D01*
X126999374Y-97679537D01*
X127143537Y-97535374D01*
X127256805Y-97365856D01*
X127334826Y-97177498D01*
X127374600Y-96977539D01*
X127374600Y-96773661D01*
X127334826Y-96573702D01*
X127256805Y-96385344D01*
X127143537Y-96215826D01*
X126999374Y-96071663D01*
X126829856Y-95958395D01*
X126641498Y-95880374D01*
X126441539Y-95840600D01*
X126237661Y-95840600D01*
X126037702Y-95880374D01*
X125849344Y-95958395D01*
X125679826Y-96071663D01*
X125637889Y-96113600D01*
X124817269Y-96113600D01*
X121003967Y-92300299D01*
X121000964Y-91720000D01*
X125138000Y-91720000D01*
X125138000Y-92120000D01*
X125196114Y-92456041D01*
X125318670Y-92774288D01*
X125500958Y-93062511D01*
X125735973Y-93309633D01*
X126014683Y-93506157D01*
X126326378Y-93644531D01*
X126476878Y-93682175D01*
X126746000Y-93564125D01*
X126746000Y-91720000D01*
X127000000Y-91720000D01*
X127000000Y-93564125D01*
X127269122Y-93682175D01*
X127419622Y-93644531D01*
X127731317Y-93506157D01*
X128010027Y-93309633D01*
X128245042Y-93062511D01*
X128427330Y-92774288D01*
X128549886Y-92456041D01*
X128608000Y-92120000D01*
X128608000Y-91720000D01*
X127000000Y-91720000D01*
X126746000Y-91720000D01*
X125138000Y-91720000D01*
X121000964Y-91720000D01*
X120997579Y-91066000D01*
X125138000Y-91066000D01*
X125138000Y-91466000D01*
X126746000Y-91466000D01*
X126746000Y-89621875D01*
X127000000Y-89621875D01*
X127000000Y-91466000D01*
X128608000Y-91466000D01*
X128608000Y-91066000D01*
X128549886Y-90729959D01*
X128427330Y-90411712D01*
X128245042Y-90123489D01*
X128010027Y-89876367D01*
X127731317Y-89679843D01*
X127419622Y-89541469D01*
X127269122Y-89503825D01*
X127000000Y-89621875D01*
X126746000Y-89621875D01*
X126476878Y-89503825D01*
X126326378Y-89541469D01*
X126014683Y-89679843D01*
X125735973Y-89876367D01*
X125500958Y-90123489D01*
X125318670Y-90411712D01*
X125196114Y-90729959D01*
X125138000Y-91066000D01*
X120997579Y-91066000D01*
X120970126Y-85762500D01*
X125138000Y-85762500D01*
X125138000Y-86162500D01*
X125196114Y-86498541D01*
X125318670Y-86816788D01*
X125500958Y-87105011D01*
X125735973Y-87352133D01*
X126014683Y-87548657D01*
X126326378Y-87687031D01*
X126476878Y-87724675D01*
X126746000Y-87606625D01*
X126746000Y-85762500D01*
X127000000Y-85762500D01*
X127000000Y-87606625D01*
X127269122Y-87724675D01*
X127419622Y-87687031D01*
X127731317Y-87548657D01*
X128010027Y-87352133D01*
X128245042Y-87105011D01*
X128427330Y-86816788D01*
X128549886Y-86498541D01*
X128608000Y-86162500D01*
X128608000Y-85762500D01*
X127000000Y-85762500D01*
X126746000Y-85762500D01*
X125138000Y-85762500D01*
X120970126Y-85762500D01*
X120966741Y-85108500D01*
X125138000Y-85108500D01*
X125138000Y-85508500D01*
X126746000Y-85508500D01*
X126746000Y-83664375D01*
X127000000Y-83664375D01*
X127000000Y-85508500D01*
X128608000Y-85508500D01*
X128608000Y-85108500D01*
X128549886Y-84772459D01*
X128427330Y-84454212D01*
X128245042Y-84165989D01*
X128010027Y-83918867D01*
X127731317Y-83722343D01*
X127419622Y-83583969D01*
X127269122Y-83546325D01*
X127000000Y-83664375D01*
X126746000Y-83664375D01*
X126476878Y-83546325D01*
X126326378Y-83583969D01*
X126014683Y-83722343D01*
X125735973Y-83918867D01*
X125500958Y-84165989D01*
X125318670Y-84454212D01*
X125196114Y-84772459D01*
X125138000Y-85108500D01*
X120966741Y-85108500D01*
X120954800Y-82802040D01*
X120954800Y-79611632D01*
X120981845Y-79578677D01*
X121052602Y-79446300D01*
X121096174Y-79302663D01*
X121096428Y-79300083D01*
X121149137Y-79247374D01*
X121262405Y-79077856D01*
X121340426Y-78889498D01*
X121380200Y-78689539D01*
X121380200Y-78485661D01*
X121340426Y-78285702D01*
X121262405Y-78097344D01*
X121149137Y-77927826D01*
X121004974Y-77783663D01*
X120835456Y-77670395D01*
X120647098Y-77592374D01*
X120447139Y-77552600D01*
X120243261Y-77552600D01*
X120190800Y-77563035D01*
X120190800Y-76162500D01*
X125138000Y-76162500D01*
X125138000Y-76562500D01*
X125196114Y-76898541D01*
X125318670Y-77216788D01*
X125500958Y-77505011D01*
X125735973Y-77752133D01*
X126014683Y-77948657D01*
X126326378Y-78087031D01*
X126476878Y-78124675D01*
X126746000Y-78006625D01*
X126746000Y-76162500D01*
X127000000Y-76162500D01*
X127000000Y-78006625D01*
X127269122Y-78124675D01*
X127419622Y-78087031D01*
X127731317Y-77948657D01*
X128010027Y-77752133D01*
X128245042Y-77505011D01*
X128427330Y-77216788D01*
X128549886Y-76898541D01*
X128608000Y-76562500D01*
X128608000Y-76162500D01*
X127000000Y-76162500D01*
X126746000Y-76162500D01*
X125138000Y-76162500D01*
X120190800Y-76162500D01*
X120190800Y-75508500D01*
X125138000Y-75508500D01*
X125138000Y-75908500D01*
X126746000Y-75908500D01*
X126746000Y-74064375D01*
X127000000Y-74064375D01*
X127000000Y-75908500D01*
X128608000Y-75908500D01*
X128608000Y-75508500D01*
X128549886Y-75172459D01*
X128427330Y-74854212D01*
X128245042Y-74565989D01*
X128010027Y-74318867D01*
X127731317Y-74122343D01*
X127419622Y-73983969D01*
X127269122Y-73946325D01*
X127000000Y-74064375D01*
X126746000Y-74064375D01*
X126476878Y-73946325D01*
X126326378Y-73983969D01*
X126014683Y-74122343D01*
X125735973Y-74318867D01*
X125500958Y-74565989D01*
X125318670Y-74854212D01*
X125196114Y-75172459D01*
X125138000Y-75508500D01*
X120190800Y-75508500D01*
X120190800Y-73100861D01*
X127692200Y-73100861D01*
X127692200Y-73304739D01*
X127731974Y-73504698D01*
X127809995Y-73693056D01*
X127923263Y-73862574D01*
X128067426Y-74006737D01*
X128236944Y-74120005D01*
X128425302Y-74198026D01*
X128625261Y-74237800D01*
X128829139Y-74237800D01*
X129005158Y-74202788D01*
X129622600Y-74820230D01*
X129622600Y-74879539D01*
X129662374Y-75079498D01*
X129740395Y-75267856D01*
X129853663Y-75437374D01*
X129997826Y-75581537D01*
X130167344Y-75694805D01*
X130355702Y-75772826D01*
X130555661Y-75812600D01*
X130759539Y-75812600D01*
X130959498Y-75772826D01*
X131147856Y-75694805D01*
X131317374Y-75581537D01*
X131461537Y-75437374D01*
X131574805Y-75267856D01*
X131652826Y-75079498D01*
X131692600Y-74879539D01*
X131692600Y-74675661D01*
X131652826Y-74475702D01*
X131574805Y-74287344D01*
X131461537Y-74117826D01*
X131317374Y-73973663D01*
X131147856Y-73860395D01*
X130959498Y-73782374D01*
X130759539Y-73742600D01*
X130700230Y-73742600D01*
X129648084Y-72690454D01*
X129624222Y-72661378D01*
X129593213Y-72635930D01*
X129531137Y-72543026D01*
X129386974Y-72398863D01*
X129217456Y-72285595D01*
X129029098Y-72207574D01*
X128829139Y-72167800D01*
X128625261Y-72167800D01*
X128425302Y-72207574D01*
X128236944Y-72285595D01*
X128067426Y-72398863D01*
X127923263Y-72543026D01*
X127809995Y-72712544D01*
X127731974Y-72900902D01*
X127692200Y-73100861D01*
X120190800Y-73100861D01*
X120190800Y-70332000D01*
X125138000Y-70332000D01*
X125138000Y-70732000D01*
X125196114Y-71068041D01*
X125318670Y-71386288D01*
X125500958Y-71674511D01*
X125735973Y-71921633D01*
X126014683Y-72118157D01*
X126326378Y-72256531D01*
X126476878Y-72294175D01*
X126746000Y-72176125D01*
X126746000Y-70332000D01*
X127000000Y-70332000D01*
X127000000Y-72176125D01*
X127269122Y-72294175D01*
X127419622Y-72256531D01*
X127731317Y-72118157D01*
X128010027Y-71921633D01*
X128245042Y-71674511D01*
X128427330Y-71386288D01*
X128549886Y-71068041D01*
X128608000Y-70732000D01*
X128608000Y-70332000D01*
X127000000Y-70332000D01*
X126746000Y-70332000D01*
X125138000Y-70332000D01*
X120190800Y-70332000D01*
X120190800Y-69678000D01*
X125138000Y-69678000D01*
X125138000Y-70078000D01*
X126746000Y-70078000D01*
X126746000Y-68233875D01*
X127000000Y-68233875D01*
X127000000Y-70078000D01*
X128608000Y-70078000D01*
X128608000Y-69678000D01*
X128549886Y-69341959D01*
X128427330Y-69023712D01*
X128245042Y-68735489D01*
X128010027Y-68488367D01*
X127731317Y-68291843D01*
X127419622Y-68153469D01*
X127269122Y-68115825D01*
X127000000Y-68233875D01*
X126746000Y-68233875D01*
X126476878Y-68115825D01*
X126326378Y-68153469D01*
X126014683Y-68291843D01*
X125735973Y-68488367D01*
X125500958Y-68735489D01*
X125318670Y-69023712D01*
X125196114Y-69341959D01*
X125138000Y-69678000D01*
X120190800Y-69678000D01*
X120190800Y-62753816D01*
X132838010Y-62753816D01*
X132838010Y-63056184D01*
X132896999Y-63352743D01*
X133012711Y-63632095D01*
X133180698Y-63883505D01*
X133394505Y-64097312D01*
X133450909Y-64135000D01*
X133394505Y-64172688D01*
X133180698Y-64386495D01*
X133012711Y-64637905D01*
X132896999Y-64917257D01*
X132838010Y-65213816D01*
X132838010Y-65516184D01*
X132896999Y-65812743D01*
X133012711Y-66092095D01*
X133180698Y-66343505D01*
X133394505Y-66557312D01*
X133510773Y-66635000D01*
X133394505Y-66712688D01*
X133180698Y-66926495D01*
X133012711Y-67177905D01*
X132896999Y-67457257D01*
X132838010Y-67753816D01*
X132838010Y-68056184D01*
X132896999Y-68352743D01*
X133012711Y-68632095D01*
X133180698Y-68883505D01*
X133394505Y-69097312D01*
X133645915Y-69265299D01*
X133925267Y-69381011D01*
X134221826Y-69440000D01*
X134524194Y-69440000D01*
X134820753Y-69381011D01*
X135100105Y-69265299D01*
X135351515Y-69097312D01*
X135565322Y-68883505D01*
X135733309Y-68632095D01*
X135849021Y-68352743D01*
X135908010Y-68056184D01*
X135908010Y-67753816D01*
X135849021Y-67457257D01*
X135733309Y-67177905D01*
X135565322Y-66926495D01*
X135351515Y-66712688D01*
X135235247Y-66635000D01*
X135351515Y-66557312D01*
X135565322Y-66343505D01*
X135733309Y-66092095D01*
X135849021Y-65812743D01*
X135908010Y-65516184D01*
X135908010Y-65213816D01*
X135849021Y-64917257D01*
X135733309Y-64637905D01*
X135565322Y-64386495D01*
X135351515Y-64172688D01*
X135295111Y-64135000D01*
X135351515Y-64097312D01*
X135565322Y-63883505D01*
X135733309Y-63632095D01*
X135849021Y-63352743D01*
X135908010Y-63056184D01*
X135908010Y-62753816D01*
X135849021Y-62457257D01*
X135733309Y-62177905D01*
X135565322Y-61926495D01*
X135351515Y-61712688D01*
X135100105Y-61544701D01*
X134820753Y-61428989D01*
X134524194Y-61370000D01*
X134221826Y-61370000D01*
X133925267Y-61428989D01*
X133645915Y-61544701D01*
X133394505Y-61712688D01*
X133180698Y-61926495D01*
X133012711Y-62177905D01*
X132896999Y-62457257D01*
X132838010Y-62753816D01*
X120190800Y-62753816D01*
X120190800Y-60732000D01*
X125138000Y-60732000D01*
X125138000Y-61132000D01*
X125196114Y-61468041D01*
X125318670Y-61786288D01*
X125500958Y-62074511D01*
X125735973Y-62321633D01*
X126014683Y-62518157D01*
X126326378Y-62656531D01*
X126476878Y-62694175D01*
X126746000Y-62576125D01*
X126746000Y-60732000D01*
X127000000Y-60732000D01*
X127000000Y-62576125D01*
X127269122Y-62694175D01*
X127419622Y-62656531D01*
X127731317Y-62518157D01*
X128010027Y-62321633D01*
X128245042Y-62074511D01*
X128427330Y-61786288D01*
X128549886Y-61468041D01*
X128608000Y-61132000D01*
X128608000Y-60732000D01*
X127000000Y-60732000D01*
X126746000Y-60732000D01*
X125138000Y-60732000D01*
X120190800Y-60732000D01*
X120190800Y-60078000D01*
X125138000Y-60078000D01*
X125138000Y-60478000D01*
X126746000Y-60478000D01*
X126746000Y-58633875D01*
X127000000Y-58633875D01*
X127000000Y-60478000D01*
X128608000Y-60478000D01*
X128608000Y-60078000D01*
X128549886Y-59741959D01*
X128427330Y-59423712D01*
X128245042Y-59135489D01*
X128010027Y-58888367D01*
X127731317Y-58691843D01*
X127419622Y-58553469D01*
X127269122Y-58515825D01*
X127000000Y-58633875D01*
X126746000Y-58633875D01*
X126476878Y-58515825D01*
X126326378Y-58553469D01*
X126014683Y-58691843D01*
X125735973Y-58888367D01*
X125500958Y-59135489D01*
X125318670Y-59423712D01*
X125196114Y-59741959D01*
X125138000Y-60078000D01*
X120190800Y-60078000D01*
X120190800Y-59792064D01*
X120194476Y-59754741D01*
X120190800Y-59717419D01*
X120190800Y-59717408D01*
X120179803Y-59605755D01*
X120136346Y-59462494D01*
X120084010Y-59364582D01*
X120084010Y-54440467D01*
X122126000Y-54440467D01*
X122126000Y-54762533D01*
X122188832Y-55078412D01*
X122312082Y-55375963D01*
X122491013Y-55643752D01*
X122718748Y-55871487D01*
X122986537Y-56050418D01*
X123284088Y-56173668D01*
X123599967Y-56236500D01*
X123922033Y-56236500D01*
X124237912Y-56173668D01*
X124535463Y-56050418D01*
X124803252Y-55871487D01*
X125030987Y-55643752D01*
X125209918Y-55375963D01*
X125333168Y-55078412D01*
X125396000Y-54762533D01*
X125396000Y-54546500D01*
X125535928Y-54546500D01*
X125535928Y-56070500D01*
X125548188Y-56194982D01*
X125584498Y-56314680D01*
X125643463Y-56424994D01*
X125722815Y-56521685D01*
X125819506Y-56601037D01*
X125929820Y-56660002D01*
X126049518Y-56696312D01*
X126174000Y-56708572D01*
X127698000Y-56708572D01*
X127822482Y-56696312D01*
X127942180Y-56660002D01*
X128052494Y-56601037D01*
X128149185Y-56521685D01*
X128228537Y-56424994D01*
X128287502Y-56314680D01*
X128323812Y-56194982D01*
X128336072Y-56070500D01*
X128336072Y-54546500D01*
X128323812Y-54422018D01*
X128287502Y-54302320D01*
X128228537Y-54192006D01*
X128149185Y-54095315D01*
X128052494Y-54015963D01*
X127942180Y-53956998D01*
X127822482Y-53920688D01*
X127698000Y-53908428D01*
X126174000Y-53908428D01*
X126049518Y-53920688D01*
X125929820Y-53956998D01*
X125819506Y-54015963D01*
X125722815Y-54095315D01*
X125643463Y-54192006D01*
X125584498Y-54302320D01*
X125548188Y-54422018D01*
X125535928Y-54546500D01*
X125396000Y-54546500D01*
X125396000Y-54440467D01*
X125333168Y-54124588D01*
X125327177Y-54110125D01*
X125642102Y-53795200D01*
X128379899Y-53795200D01*
X128694823Y-54110124D01*
X128688832Y-54124588D01*
X128626000Y-54440467D01*
X128626000Y-54762533D01*
X128688832Y-55078412D01*
X128812082Y-55375963D01*
X128991013Y-55643752D01*
X129218748Y-55871487D01*
X129486537Y-56050418D01*
X129784088Y-56173668D01*
X130099967Y-56236500D01*
X130422033Y-56236500D01*
X130737912Y-56173668D01*
X131035463Y-56050418D01*
X131303252Y-55871487D01*
X131530987Y-55643752D01*
X131709918Y-55375963D01*
X131833168Y-55078412D01*
X131896000Y-54762533D01*
X131896000Y-54440467D01*
X131833168Y-54124588D01*
X131709918Y-53827037D01*
X131530987Y-53559248D01*
X131303252Y-53331513D01*
X131035463Y-53152582D01*
X130737912Y-53029332D01*
X130422033Y-52966500D01*
X130099967Y-52966500D01*
X129784088Y-53029332D01*
X129769624Y-53035323D01*
X129258504Y-52524203D01*
X129234701Y-52495199D01*
X129118976Y-52400226D01*
X128986947Y-52329654D01*
X128843686Y-52286197D01*
X128732033Y-52275200D01*
X128732022Y-52275200D01*
X128694700Y-52271524D01*
X128657378Y-52275200D01*
X125364625Y-52275200D01*
X125327300Y-52271524D01*
X125289975Y-52275200D01*
X125289967Y-52275200D01*
X125178314Y-52286197D01*
X125035053Y-52329654D01*
X124903024Y-52400226D01*
X124787299Y-52495199D01*
X124763501Y-52524197D01*
X124252375Y-53035323D01*
X124237912Y-53029332D01*
X123922033Y-52966500D01*
X123599967Y-52966500D01*
X123284088Y-53029332D01*
X122986537Y-53152582D01*
X122718748Y-53331513D01*
X122491013Y-53559248D01*
X122312082Y-53827037D01*
X122188832Y-54124588D01*
X122126000Y-54440467D01*
X120084010Y-54440467D01*
X120084010Y-51678791D01*
X120901303Y-50861500D01*
X122306091Y-50861500D01*
X122312082Y-50875963D01*
X122491013Y-51143752D01*
X122718748Y-51371487D01*
X122986537Y-51550418D01*
X123284088Y-51673668D01*
X123599967Y-51736500D01*
X123922033Y-51736500D01*
X124237912Y-51673668D01*
X124535463Y-51550418D01*
X124803252Y-51371487D01*
X125030987Y-51143752D01*
X125209918Y-50875963D01*
X125333168Y-50578412D01*
X125396000Y-50262533D01*
X125396000Y-49940467D01*
X125333168Y-49624588D01*
X125209918Y-49327037D01*
X125048193Y-49084999D01*
X125562255Y-49084999D01*
X125539000Y-49201908D01*
M02*
